<svg xmlns="http://www.w3.org/2000/svg" xmlns:xlink="http://www.w3.org/1999/xlink" xmlns:lucid="lucid" width="1832.52" height="1240"><g transform="translate(-14.481897410354577 -40)" lucid:page-tab-id="0_0"><path d="M0 0h1870.4v1323.2H0z" fill="#fff"/><path d="M807 960h960v300H807zM207 240h365v660H207z" stroke="#000" stroke-width="2" fill-opacity="0"/><path d="M227 463h320v197H227z" stroke="#000" stroke-width="2" fill="#f9d2de"/><path d="M927 480h160v160H927z" stroke="#000" stroke-width="2" fill="#ffdba9"/><use xlink:href="#a" transform="matrix(1,0,0,1,932,485) translate(9.34629629629633 82.4486111111111)"/><path d="M667 240h160v160H667z" stroke="#000" stroke-width="2" fill="#c7e8ac"/><use xlink:href="#b" transform="matrix(1,0,0,1,672,245) translate(1.8398148148148579 63.698611111111106)"/><use xlink:href="#c" transform="matrix(1,0,0,1,672,245) translate(39.96975308641977 95.96527777777776)"/><path d="M878 559h29.5v2H876V452.13h2zm0-131.13h-2V321h-47v-2h49z"/><path d="M829.03 321H828v-2h1.03zM922.76 560l-14.26 4.64v-9.28z"/><path d="M926 560l-18.5 6v-12zm-16.5 3.26l10.03-3.26-10.03-3.26z"/><use xlink:href="#d" transform="matrix(1,0,0,1,835.4601851851852,427.8666666666667) translate(0 16.17777777777777)"/><path d="M207 1000h577.5v210H207z" stroke="#000" stroke-opacity="0" stroke-width="2" fill="#fff" fill-opacity="0"/><use xlink:href="#e" transform="matrix(1,0,0,1,212,1005) translate(17.41049382716062 75.69444444444443)"/><use xlink:href="#f" transform="matrix(1,0,0,1,212,1005) translate(152.9043209876544 75.69444444444443)"/><use xlink:href="#g" transform="matrix(1,0,0,1,212,1005) translate(424.0462962962962 75.69444444444443)"/><use xlink:href="#h" transform="matrix(1,0,0,1,212,1005) translate(202.20987654320993 142.3611111111111)"/><use xlink:href="#i" transform="matrix(1,0,0,1,212,1005) translate(304.0617283950617 142.3611111111111)"/><path d="M667 480h160v160H667z" stroke="#000" stroke-width="2" fill="#c7e8ac"/><use xlink:href="#j" transform="matrix(1,0,0,1,672,485) translate(9.34629629629633 63.698611111111106)"/><use xlink:href="#k" transform="matrix(1,0,0,1,672,485) translate(33.2101851851852 95.96527777777776)"/><path d="M929.5 740h160v160h-160z" stroke="#000" stroke-width="2" fill="#c7e8ac"/><use xlink:href="#l" transform="matrix(1,0,0,1,934.4999999999999,745) translate(23.50030864197533 63.698611111111106)"/><use xlink:href="#m" transform="matrix(1,0,0,1,934.4999999999999,745) translate(25.778395061728418 95.96527777777776)"/><path d="M748 478h-2v-18.3h2zm0-42.57h-2V419.5h2z"/><path d="M748 479h-2v-1.03h2zM751.64 418.5h-9.28l4.64-14.26z"/><path d="M753 419.5h-12l6-18.5zm-9.26-2h6.52L747 407.47z"/><use xlink:href="#n" transform="matrix(1,0,0,1,726.833950617284,435.43215202876206) translate(0 16.17777777777777)"/><path d="M667 740h160v160H667z" stroke="#000" stroke-width="2" fill="#c7e8ac"/><use xlink:href="#o" transform="matrix(1,0,0,1,672,745) translate(31.71635802469138 63.698611111111106)"/><use xlink:href="#p" transform="matrix(1,0,0,1,672,745) translate(6.395987654321033 95.96527777777776)"/><use xlink:href="#q" transform="matrix(1,0,0,1,672,745) translate(70.55586419753088 95.96527777777776)"/><path d="M748 738h-2v-35.87h2zm0-60.13h-2V659.5h2z"/><path d="M748 739h-2v-1.03h2zM751.64 658.5h-9.28l4.64-14.26z"/><path d="M753 659.5h-12l6-18.5zm-9.26-2h6.52L747 647.47z"/><use xlink:href="#r" transform="matrix(1,0,0,1,713.9422839506173,677.8666666666667) translate(0 16.17777777777777)"/><path d="M845.2 821H829v-2h16.2z"/><path d="M829.03 821H828v-2h1.03zM925.26 820l-13.95 4.53v-9.06z"/><path d="M928.5 820l-17.2 5.6v-11.2zm-16.5 3.26l10.03-3.26-10.03-3.26z"/><use xlink:href="#r" transform="matrix(1,0,0,1,845.1922839506173,807.8666666666667) translate(0 16.17777777777777)"/><path d="M1187 480h160v160h-160z" stroke="#000" stroke-width="2" fill="#f9d2de"/><use xlink:href="#s" transform="matrix(1,0,0,1,1192,485) translate(9.34629629629633 63.698611111111106)"/><use xlink:href="#t" transform="matrix(1,0,0,1,1192,485) translate(25.815740740740765 95.96527777777776)"/><path d="M525 560h118.26" stroke="#7ab648" stroke-width="4" fill="none"/><path d="M525.05 562H523v-4h2.05z" fill="#7ab648"/><path d="M659.53 560l-14.27 4.64v-9.28z" stroke="#7ab648" stroke-width="4" fill="#7ab648"/><path d="M362 480h160v160H362z" stroke="#000" stroke-width="2" fill="#ffdba9"/><use xlink:href="#u" transform="matrix(1,0,0,1,367,485) translate(22.043827160493855 63.698611111111106)"/><use xlink:href="#v" transform="matrix(1,0,0,1,367,485) translate(32.46327160493829 95.96527777777776)"/><path d="M362 280h160v160H362z" stroke="#000" stroke-width="2" fill="#fff"/><use xlink:href="#w" transform="matrix(1,0,0,1,367,285) translate(3.370987654321027 30.886111111111102)"/><use xlink:href="#x" transform="matrix(1,0,0,1,367,285) translate(6.283950617283978 63.15277777777776)"/><use xlink:href="#y" transform="matrix(1,0,0,1,367,285) translate(72.01234567901234 63.15277777777776)"/><use xlink:href="#z" transform="matrix(1,0,0,1,367,285) translate(7.105555555555583 95.41944444444441)"/><use xlink:href="#A" transform="matrix(1,0,0,1,367,285) translate(122.05555555555553 95.41944444444441)"/><use xlink:href="#B" transform="matrix(1,0,0,1,367,285) translate(29.550308641975334 127.68611111111106)"/><use xlink:href="#C" transform="matrix(1,0,0,1,367,285) translate(74.36512345679012 127.68611111111106)"/><path d="M362 680h160v160H362z" stroke="#000" stroke-width="2" fill="#fff"/><use xlink:href="#D" transform="matrix(1,0,0,1,367,685) translate(20.064506172839536 82.4486111111111)"/><path d="M595.5 497h52v2h-54v-57.87h2zm0-80.13h-2V361H524v-2h71.5z"/><path d="M524.03 361H523v-2h1.03zM662.76 498l-14.26 4.64v-9.28z"/><path d="M666 498l-18.5 6v-12zm-16.5 3.26l10.03-3.26-10.03-3.26z"/><use xlink:href="#E" transform="matrix(1,0,0,1,564.1947530864197,416.8666666666667) translate(0 16.17777777777777)"/><path d="M595.5 760H524v-2h69.5v-55.87h2zm52-138h-52v55.87h-2V620h54z"/><path d="M524.03 760H523v-2h1.03zM662.76 621l-14.26 4.64v-9.28z"/><path d="M666 621l-18.5 6v-12zm-16.5 3.26l10.03-3.26-10.03-3.26z"/><use xlink:href="#F" transform="matrix(1,0,0,1,558.5774691358025,677.8666666666667) translate(0 16.17777777777777)"/><path d="M1427 480h160v160h-160z" stroke="#000" stroke-width="2" fill="#fff"/><use xlink:href="#b" transform="matrix(1,0,0,1,1432,485) translate(1.8398148148148579 63.698611111111106)"/><use xlink:href="#G" transform="matrix(1,0,0,1,1432,485) translate(22.75339506172842 95.96527777777776)"/><path d="M1349 560h58.5" stroke="#000" stroke-width="2" fill="none"/><path d="M1349.03 561H1348v-2h1.03z"/><path d="M1422.76 560l-14.26 4.64v-9.28z" stroke="#000" stroke-width="2"/><path d="M1667 240h160v160h-160z" stroke="#000" stroke-width="2" fill="#f9d2de"/><use xlink:href="#H" transform="matrix(1,0,0,1,1672,245) translate(1.9145061728395376 31.9777777777778)"/><use xlink:href="#I" transform="matrix(1,0,0,1,1672,245) translate(65.99969135802469 31.9777777777778)"/><use xlink:href="#J" transform="matrix(1,0,0,1,1672,245) translate(16.06851851851856 64.24444444444445)"/><use xlink:href="#K" transform="matrix(1,0,0,1,1672,245) translate(-1.1104938271604539 96.5111111111111)"/><use xlink:href="#L" transform="matrix(1,0,0,1,1672,245) translate(46.65462962962964 128.77777777777774)"/><path d="M412 60h160v160H412z" stroke="#000" stroke-width="2" fill="#ffdba9"/><use xlink:href="#M" transform="matrix(1,0,0,1,417,65) translate(24.284567901234595 82.4486111111111)"/><path d="M749 216.26h-4V152h4zM575 142v-4h46v4z" fill="#7ab648"/><path d="M575.05 142H573v-4h2.05zM747 232.53l-4.64-14.27h9.28z" fill="#7ab648"/><path d="M747 239l-7.4-22.74h14.8zm-1.88-18.74l1.88 5.8 1.88-5.8z" fill="#7ab648"/><use xlink:href="#N" transform="matrix(1,0,0,1,620.9890331574842,128) translate(0 16)"/><use xlink:href="#O" transform="matrix(1,0,0,1,620.9890331574842,128) translate(116.55555555555557 16)"/><path d="M1427 60h160v160h-160z" stroke="#000" stroke-width="2" fill="#f9d2de"/><use xlink:href="#P" transform="matrix(1,0,0,1,1432,65) translate(25.068827160493854 82.4486111111111)"/><path d="M1667 480h160v160h-160z" stroke="#000" stroke-width="2" fill="#fff"/><use xlink:href="#Q" transform="matrix(1,0,0,1,1672,485) translate(25.068827160493854 63.698611111111106)"/><use xlink:href="#G" transform="matrix(1,0,0,1,1672,485) translate(22.75339506172842 95.96527777777776)"/><path d="M1589 560h58.5" stroke="#000" stroke-width="2" fill="none"/><path d="M1589.03 561H1588v-2h1.03z"/><path d="M1662.76 560l-14.26 4.64v-9.28z" stroke="#000" stroke-width="2"/><path d="M1548.1 460.5h-2v-98.37h2zm0-122.63h-2V222h2z"/><path d="M1548.1 222.03h-2V221h2zM1547.1 475.76l-4.64-14.26h9.27z"/><path d="M1547.1 479l-6-18.5h12zm-3.26-16.5l3.26 10.03 3.26-10.03z"/><use xlink:href="#R" transform="matrix(1,0,0,1,1530.8074625729992,337.8666666666667) translate(0 16.17777777777777)"/><path d="M971.08 80.32h-162.7V220.5h-2V78.32h164.7zm453.92 0h-219.34v-2H1425z"/><path d="M1426 80.32h-1.03v-2h1.03zM807.37 235.76l-4.63-14.26H812z"/><path d="M807.37 239l-6-18.5h12.02zm-3.25-16.5l3.25 10.03 3.26-10.03z"/><use xlink:href="#S" transform="matrix(1,0,0,1,971.0782042002286,67.18555576054851) translate(0 16.17777777777777)"/><use xlink:href="#T" transform="matrix(1,0,0,1,971.0782042002286,67.18555576054851) translate(38.1975308641975 16.17777777777777)"/><use xlink:href="#U" transform="matrix(1,0,0,1,971.0782042002286,67.18555576054851) translate(181.8876543209875 16.17777777777777)"/><path d="M1468 478h-2V362.13h2zm0-140.13h-2V239.5h2z"/><path d="M1468 479h-2v-1.03h2zM1471.64 238.5h-9.28l4.64-14.26z"/><path d="M1473 239.5h-12l6-18.5zm-9.26-2h6.52l-3.26-10.03z"/><use xlink:href="#R" transform="matrix(1,0,0,1,1450.70987654321,337.8666666666667) translate(0 16.17777777777777)"/><path d="M1103.9 561H1089v-2h14.9z"/><path d="M1089.03 561H1088v-2h1.03zM1182.76 560l-12.65 4.1v-8.2z"/><path d="M1186 560l-15.9 5.16v-2.1l9.43-3.06-9.42-3.06v-2.1z"/><use xlink:href="#V" transform="matrix(1,0,0,1,1103.8861111111112,535.7333333333333) translate(0 16.17777777777777)"/><use xlink:href="#W" transform="matrix(1,0,0,1,1103.8861111111112,535.7333333333333) translate(0 40.44444444444443)"/><path d="M1172.8 113.08H1008V220.5h-2V111.08h166.8zm252.2 0h-173.6v-2H1425z"/><path d="M1426 113.08h-1.03v-2h1.03zM1007 235.76l-4.64-14.26h9.28z"/><path d="M1007 239l-6-18.5h12zm-3.26-16.5l3.26 10.03 3.26-10.03z"/><use xlink:href="#X" transform="matrix(1,0,0,1,1172.8041615112072,99.94688359199972) translate(0 16.17777777777777)"/><path d="M953.82 758h16.88v4h-20.88v-98.26h4zm119.73 4h-20.9v-4h16.9v-94.26h4zM956.46 661.74h-9.27l4.62-14.27z" fill="#7ab648"/><path d="M959.2 663.74h-14.77l7.4-22.74zm-9.26-4h3.76l-1.88-5.8zM1076.18 661.74h-9.27l4.65-14.27z" fill="#7ab648"/><path d="M1078.93 663.74h-14.77l7.4-22.74zm-9.27-4h3.77l-1.88-5.8z" fill="#7ab648"/><use xlink:href="#Y" transform="matrix(1,0,0,1,970.7049508751588,747.8666666666667) translate(0 16.17777777777777)"/><path d="M1311.7 141H1268v79.5h-2V139h45.7zm95.8 0h-63.23v-2h63.23zM1267 235.76l-4.64-14.26h9.28z"/><path d="M1267 239l-6-18.5h12zm-3.26-16.5l3.26 10.03 3.26-10.03zM1422.76 140l-14.26 4.64v-9.28z"/><path d="M1426 140l-18.5 6v-12zm-16.5 3.26l10.03-3.26-10.03-3.26z"/><use xlink:href="#R" transform="matrix(1,0,0,1,1311.692567589627,127.86666666666667) translate(0 16.17777777777777)"/><path d="M221.48 833H547v80H221.48z" stroke="#000" stroke-opacity="0" stroke-width="2" fill="#fff" fill-opacity="0"/><use xlink:href="#Z" transform="matrix(1,0,0,1,226.48189741039334,838) translate(56.0679012345679 42.63888888888889)"/><use xlink:href="#aa" transform="matrix(1,0,0,1,226.48189741039334,838) translate(137.30246913580248 42.63888888888889)"/><use xlink:href="#ab" transform="matrix(1,0,0,1,226.48189741039334,838) translate(171.87037037037038 42.63888888888889)"/><path d="M267 650.14v-177.3h73.26v177.3z" stroke="#000" stroke-opacity="0" stroke-width="2" fill="#fff" fill-opacity="0"/><use xlink:href="#ac" transform="matrix(6.123233995736766e-17,-1,1,6.123233995736766e-17,272,645.1359411658951) translate(13.07407407407409 21.33333333333333)"/><use xlink:href="#ad" transform="matrix(6.123233995736766e-17,-1,1,6.123233995736766e-17,272,645.1359411658951) translate(48.44444444444445 53.33333333333332)"/><path d="M927 240h160v160H927z" stroke="#000" stroke-width="2" fill="#ffdba9"/><use xlink:href="#ae" transform="matrix(1,0,0,1,932,245) translate(4.155246913580299 82.4486111111111)"/><path d="M829 320h78.5M828 320" stroke="#000" stroke-width="2" fill="none"/><path d="M922.76 320l-14.26 4.64v-9.28z" stroke="#000" stroke-width="2"/><path d="M1009 456.26h-4V442.6h4zm0-35.25h-4v-18h4z" fill="#7ab648"/><path d="M1009 403.05h-4V401h4zM1007 472.53l-4.64-14.27h9.28z" fill="#7ab648"/><path d="M1007 479l-7.4-22.74h14.8zm-1.88-18.74l1.88 5.8 1.88-5.8z" fill="#7ab648"/><use xlink:href="#af" transform="matrix(1,0,0,1,975.025,421.01153618429447) translate(0 14.4)"/><path d="M1187 240h160v160h-160z" stroke="#000" stroke-width="2" fill="url(#ag)"/><use xlink:href="#ah" transform="matrix(1,0,0,1,1192,245) translate(-1.1104938271604539 64.24444444444445)"/><use xlink:href="#ai" transform="matrix(1,0,0,1,1192,245) translate(-0.32623456790119576 96.5111111111111)"/><path d="M1120.5 322H1090v-4h30.5zm42.76 0h-9.76v-4h9.76z" fill="#7ab648"/><path d="M1090.05 322H1088v-4h2.05zM1179.53 320l-14.27 4.64v-9.28z" fill="#7ab648"/><path d="M1186 320l-22.74 7.4v-14.8zm-18.74 1.88l5.8-1.88-5.8-1.88z" fill="#7ab648"/><use xlink:href="#aj" transform="matrix(1,0,0,1,1120.5,309.2) translate(0 14.4)"/><path d="M1647.5 321H1349v-2h298.5z"/><path d="M1349.03 321H1348v-2h1.03zM1662.76 320l-14.26 4.64v-9.28z"/><path d="M1666 320l-18.5 6v-12zm-16.5 3.26l10.03-3.26-10.03-3.26z"/><path d="M1105.38 442h-58.17v14.26h-4V438h62.18zm163.62 0h-94.67v-4H1265v-35h4z" fill="#7ab648"/><path d="M1269 403.05h-4V401h4zM1045.2 472.53l-4.63-14.27h9.27z" fill="#7ab648"/><path d="M1045.2 479l-7.38-22.74h14.77zm-1.88-18.74l1.9 5.8 1.87-5.8z" fill="#7ab648"/><use xlink:href="#ak" transform="matrix(1,0,0,1,1105.3752406698136,429.2) translate(0 14.4)"/><path d="M707 880c0 11.05-8.95 20-20 20s-20-8.95-20-20 8.95-20 20-20 20 8.95 20 20z" stroke="#000" stroke-width="2" fill="#fff"/><use xlink:href="#al" transform="matrix(1,0,0,1,672,865) translate(8.770432098765435 19.830555555555552)"/><path d="M969.5 880c0 11.05-8.95 20-20 20s-20-8.95-20-20 8.95-20 20-20 20 8.95 20 20z" stroke="#000" stroke-width="2" fill="#fff"/><use xlink:href="#am" transform="matrix(1,0,0,1,934.5000000000001,865) translate(8.770432098765435 19.830555555555552)"/><path d="M1157 400c0 11.05-8.95 20-20 20s-20-8.95-20-20 8.95-20 20-20 20 8.95 20 20z" stroke="#000" stroke-width="2" fill="#fff"/><use xlink:href="#an" transform="matrix(1,0,0,1,1122,385) translate(8.770432098765435 19.830555555555552)"/><path d="M1157 280c0 11.05-8.95 20-20 20s-20-8.95-20-20 8.95-20 20-20 20 8.95 20 20z" stroke="#000" stroke-width="2" fill="#fff"/><use xlink:href="#ao" transform="matrix(1,0,0,1,1122,265) translate(8.770432098765435 19.830555555555552)"/><path d="M997 461c0 11.05-8.95 20-20 20s-20-8.95-20-20 8.95-20 20-20 20 8.95 20 20z" stroke="#000" stroke-width="2" fill="#fff"/><use xlink:href="#ap" transform="matrix(1,0,0,1,962,446) translate(8.770432098765435 19.830555555555552)"/><path d="M707 618.12c0 11.05-8.95 20-20 20s-20-8.95-20-20c0-11.04 8.95-20 20-20s20 8.96 20 20z" stroke="#000" stroke-width="2" fill="#fff"/><use xlink:href="#aq" transform="matrix(1,0,0,1,672,603.1247052761103) translate(8.770432098765435 19.830555555555552)"/><path d="M1187 740h160v160h-160z" stroke="#000" stroke-width="2" fill="#c7e8ac"/><use xlink:href="#b" transform="matrix(1,0,0,1,1192,745) translate(1.8398148148148579 49.636111111111106)"/><use xlink:href="#ar" transform="matrix(1,0,0,1,1192,745) translate(22.043827160493855 81.90277777777776)"/><use xlink:href="#c" transform="matrix(1,0,0,1,1192,745) translate(39.96975308641977 114.16944444444441)"/><path d="M1227 880c0 11.05-8.95 20-20 20s-20-8.95-20-20 8.95-20 20-20 20 8.95 20 20z" stroke="#000" stroke-width="2" fill="#fff"/><use xlink:href="#as" transform="matrix(1,0,0,1,1192,865) translate(8.770432098765435 19.830555555555552)"/><path d="M707 380c0 11.05-8.95 20-20 20s-20-8.95-20-20 8.95-20 20-20 20 8.95 20 20z" stroke="#000" stroke-width="2" fill="#fff"/><use xlink:href="#at" transform="matrix(1,0,0,1,672,365) translate(8.770432098765435 19.830555555555552)"/><path d="M629.5 561.5c0 11.04-8.95 20-20 20s-20-8.96-20-20c0-11.05 8.95-20 20-20s20 8.95 20 20z" stroke="#000" stroke-width="2" fill="#fff"/><use xlink:href="#au" transform="matrix(1,0,0,1,594.5,546.4925787820841) translate(2.5358641975308664 17.955555555555552)"/><path d="M847 1000h160v60H847z" stroke="#000" stroke-width="2" fill="#c7e8ac"/><path d="M1029.5 1000h240v60h-240z" stroke="#000" stroke-opacity="0" stroke-width="2" fill="#fff" fill-opacity="0"/><use xlink:href="#av" transform="matrix(1,0,0,1,1034.5,1005) translate(31.40740740740739 30.708333333333336)"/><use xlink:href="#aw" transform="matrix(1,0,0,1,1034.5,1005) translate(140.962962962963 30.708333333333336)"/><path d="M847 1080h160v60H847z" stroke="#000" stroke-width="2" fill="#ffdba9"/><path d="M847 1160h160v60H847z" stroke="#000" stroke-width="2" fill="#f9d2de"/><path d="M1029.5 1073h240v74h-240z" stroke="#000" stroke-opacity="0" stroke-width="2" fill="#fff" fill-opacity="0"/><g><use xlink:href="#ax" transform="matrix(1,0,0,1,1034.5,1078) translate(22.55555555555557 25.333333333333336)"/><use xlink:href="#ay" transform="matrix(1,0,0,1,1034.5,1078) translate(71.2962962962963 57.333333333333336)"/></g><path d="M1029.5 1153h240v74h-240z" stroke="#000" stroke-opacity="0" stroke-width="2" fill="#fff" fill-opacity="0"/><g><use xlink:href="#az" transform="matrix(1,0,0,1,1034.5,1158) translate(36.62962962962963 25.333333333333336)"/><use xlink:href="#aA" transform="matrix(1,0,0,1,1034.5,1158) translate(165.22222222222223 25.333333333333336)"/><use xlink:href="#aB" transform="matrix(1,0,0,1,1034.5,1158) translate(66.96296296296296 57.333333333333336)"/></g><path d="M1339.7 1035h88.93M1339.7 1035h-1" stroke="#000" stroke-width="2" fill="none"/><path d="M1443.9 1035l-14.27 4.64v-9.28z" stroke="#000" stroke-width="2"/><path d="M1507 1080h240v60h-240z" stroke="#000" stroke-opacity="0" stroke-width="2" fill="#fff" fill-opacity="0"/><g><use xlink:href="#aC" transform="matrix(1,0,0,1,1512,1085) translate(1.1111111111110858 30.708333333333336)"/><use xlink:href="#aD" transform="matrix(1,0,0,1,1512,1085) translate(106.14814814814814 30.708333333333336)"/></g><path d="M1507 1000h240v60h-240z" stroke="#000" stroke-opacity="0" stroke-width="2" fill="#fff" fill-opacity="0"/><g><use xlink:href="#aE" transform="matrix(1,0,0,1,1512,1005) translate(52.85185185185185 30.708333333333336)"/></g><path d="M1337.43 1108.72h91.07M1337.46 1108.72h-1.03" stroke="#7ab648" stroke-width="2" fill="none"/><path d="M1443.76 1108.72l-14.26 4.63v-9.27z" stroke="#7ab648" stroke-width="2" fill="#7ab648"/><path d="M127 562c0 11.05-8.95 20-20 20s-20-8.95-20-20 8.95-20 20-20 20 8.95 20 20z" stroke="#000" stroke-width="2" fill="#c92d39"/><path d="M39 596h140v106H39z" stroke="#000" stroke-opacity="0" stroke-width="2" fill="#fff" fill-opacity="0"/><g><use xlink:href="#aF" transform="matrix(1,0,0,1,44,601) translate(36.925925925925924 21.333333333333336)"/><use xlink:href="#aG" transform="matrix(1,0,0,1,44,601) translate(30.222222222222214 53.333333333333336)"/><use xlink:href="#aH" transform="matrix(1,0,0,1,44,601) translate(36.18518518518518 85.33333333333334)"/></g><path d="M1407 1190c0 11.05-8.95 20-20 20s-20-8.95-20-20 8.95-20 20-20 20 8.95 20 20z" stroke="#000" stroke-width="2" fill="#fff"/><g><use xlink:href="#al" transform="matrix(1,0,0,1,1372,1175) translate(8.770432098765435 19.830555555555552)"/></g><path d="M1507 1153h240v74h-240z" stroke="#000" stroke-opacity="0" stroke-width="2" fill="#fff" fill-opacity="0"/><g><use xlink:href="#aI" transform="matrix(1,0,0,1,1512,1158) translate(41.88888888888887 37.333333333333336)"/><use xlink:href="#aJ" transform="matrix(1,0,0,1,1512,1158) translate(108.4074074074074 37.333333333333336)"/></g><path d="M129 562h78.5" stroke="#000" stroke-width="2" fill="none"/><path d="M129.03 563h-1.15l.12-.96-.03-1.04h1.06z"/><path d="M222.76 562l-14.26 4.64v-9.28z" stroke="#000" stroke-width="2"/><path d="M680 180c0 11.05-8.95 20-20 20s-20-8.95-20-20 8.95-20 20-20 20 8.95 20 20z" stroke="#000" stroke-width="2" fill="#fff"/><g><use xlink:href="#aK" transform="matrix(1,0,0,1,645,165) translate(8.770432098765435 19.830555555555552)"/></g><path d="M126.48 140H392.5" stroke="#000" stroke-width="2" fill="none"/><path d="M126.5 141h-1.14l.12-.96-.03-1.04h1.06z"/><path d="M407.76 140l-14.26 4.64v-9.28z" stroke="#000" stroke-width="2"/><path d="M124.48 140c0 11.05-8.95 20-20 20-11.04 0-20-8.95-20-20s8.96-20 20-20c11.05 0 20 8.95 20 20z" stroke="#000" stroke-width="2" fill="#c92d39"/><path d="M34.48 178h140v106h-140z" stroke="#000" stroke-opacity="0" stroke-width="2" fill="#fff" fill-opacity="0"/><g><use xlink:href="#aL" transform="matrix(1,0,0,1,39.48189741035458,183) translate(4.370370370370381 21.333333333333336)"/><use xlink:href="#aM" transform="matrix(1,0,0,1,39.48189741035458,183) translate(30.222222222222214 53.333333333333336)"/><use xlink:href="#aN" transform="matrix(1,0,0,1,39.48189741035458,183) translate(36.18518518518518 85.33333333333334)"/></g><defs><path d="M205 0l-28-72H64L36 0H1l101-248h38L239 0h-34zm-38-99l-47-123c-12 45-31 82-46 123h93" id="aO"/><path d="M177-190C167-65 218 103 67 71c-23-6-38-20-44-43l32-5c15 47 100 32 89-28v-30C133-14 115 1 83 1 29 1 15-40 15-95c0-56 16-97 71-98 29-1 48 16 59 35 1-10 0-23 2-32h30zM94-22c36 0 50-32 50-73 0-42-14-75-50-75-39 0-46 34-46 75s6 73 46 73" id="aP"/><path d="M114-163C36-179 61-72 57 0H25l-1-190h30c1 12-1 29 2 39 6-27 23-49 58-41v29" id="aQ"/><path d="M100-194c63 0 86 42 84 106H49c0 40 14 67 53 68 26 1 43-12 49-29l28 8c-11 28-37 45-77 45C44 4 14-33 15-96c1-61 26-98 85-98zm52 81c6-60-76-77-97-28-3 7-6 17-6 28h103" id="aR"/><path d="M210-169c-67 3-38 105-44 169h-31v-121c0-29-5-50-35-48C34-165 62-65 56 0H25l-1-190h30c1 10-1 24 2 32 10-44 99-50 107 0 11-21 27-35 58-36 85-2 47 119 55 194h-31v-121c0-29-5-49-35-48" id="aS"/><path d="M117-194c89-4 53 116 60 194h-32v-121c0-31-8-49-39-48C34-167 62-67 57 0H25l-1-190h30c1 10-1 24 2 32 11-22 29-35 61-36" id="aT"/><path d="M59-47c-2 24 18 29 38 22v24C64 9 27 4 27-40v-127H5v-23h24l9-43h21v43h35v23H59v120" id="aU"/><g id="a"><use transform="matrix(0.07469135802469132,0,0,0.07469135802469132,0,0)" xlink:href="#aO"/><use transform="matrix(0.07469135802469132,0,0,0.07469135802469132,17.925925925925917,0)" xlink:href="#aP"/><use transform="matrix(0.07469135802469132,0,0,0.07469135802469132,32.86419753086418,0)" xlink:href="#aQ"/><use transform="matrix(0.07469135802469132,0,0,0.07469135802469132,41.75246913580245,0)" xlink:href="#aR"/><use transform="matrix(0.07469135802469132,0,0,0.07469135802469132,56.69074074074072,0)" xlink:href="#aR"/><use transform="matrix(0.07469135802469132,0,0,0.07469135802469132,71.62901234567897,0)" xlink:href="#aS"/><use transform="matrix(0.07469135802469132,0,0,0.07469135802469132,93.96172839506168,0)" xlink:href="#aR"/><use transform="matrix(0.07469135802469132,0,0,0.07469135802469132,108.89999999999993,0)" xlink:href="#aT"/><use transform="matrix(0.07469135802469132,0,0,0.07469135802469132,123.8382716049382,0)" xlink:href="#aU"/></g><path d="M143 4C61 4 22-44 18-125c-5-107 100-154 193-111 17 8 29 25 37 43l-32 9c-13-25-37-40-76-40-61 0-88 39-88 99 0 61 29 100 91 101 35 0 62-11 79-27v-45h-74v-28h105v86C228-13 192 4 143 4" id="aV"/><path d="M100-194c62-1 85 37 85 99 1 63-27 99-86 99S16-35 15-95c0-66 28-99 85-99zM99-20c44 1 53-31 53-75 0-43-8-75-51-75s-53 32-53 75 10 74 51 75" id="aW"/><path d="M108 0H70L1-190h34L89-25l56-165h34" id="aX"/><path d="M141-36C126-15 110 5 73 4 37 3 15-17 15-53c-1-64 63-63 125-63 3-35-9-54-41-54-24 1-41 7-42 31l-33-3c5-37 33-52 76-52 45 0 72 20 72 64v82c-1 20 7 32 28 27v20c-31 9-61-2-59-35zM48-53c0 20 12 33 32 33 41-3 63-29 60-74-43 2-92-5-92 41" id="aY"/><path d="M96-169c-40 0-48 33-48 73s9 75 48 75c24 0 41-14 43-38l32 2c-6 37-31 61-74 61-59 0-76-41-82-99-10-93 101-131 147-64 4 7 5 14 7 22l-32 3c-4-21-16-35-41-35" id="aZ"/><g id="b"><use transform="matrix(0.07469135802469132,0,0,0.07469135802469132,0,0)" xlink:href="#aV"/><use transform="matrix(0.07469135802469132,0,0,0.07469135802469132,20.91358024691357,0)" xlink:href="#aW"/><use transform="matrix(0.07469135802469132,0,0,0.07469135802469132,35.85185185185183,0)" xlink:href="#aX"/><use transform="matrix(0.07469135802469132,0,0,0.07469135802469132,49.29629629629627,0)" xlink:href="#aR"/><use transform="matrix(0.07469135802469132,0,0,0.07469135802469132,64.23456790123453,0)" xlink:href="#aQ"/><use transform="matrix(0.07469135802469132,0,0,0.07469135802469132,73.1228395061728,0)" xlink:href="#aT"/><use transform="matrix(0.07469135802469132,0,0,0.07469135802469132,88.06111111111106,0)" xlink:href="#aY"/><use transform="matrix(0.07469135802469132,0,0,0.07469135802469132,102.99938271604933,0)" xlink:href="#aT"/><use transform="matrix(0.07469135802469132,0,0,0.07469135802469132,117.93765432098759,0)" xlink:href="#aZ"/><use transform="matrix(0.07469135802469132,0,0,0.07469135802469132,131.38209876543203,0)" xlink:href="#aR"/></g><path d="M30 0v-248h187v28H63v79h144v27H63v87h162V0H30" id="ba"/><path d="M85-194c31 0 48 13 60 33l-1-100h32l1 261h-30c-2-10 0-23-3-31C134-8 116 4 85 4 32 4 16-35 15-94c0-66 23-100 70-100zm9 24c-40 0-46 34-46 75 0 40 6 74 45 74 42 0 51-32 51-76 0-42-9-74-50-73" id="bb"/><path d="M24-231v-30h32v30H24zM24 0v-190h32V0H24" id="bc"/><g id="c"><use transform="matrix(0.07469135802469132,0,0,0.07469135802469132,0,0)" xlink:href="#ba"/><use transform="matrix(0.07469135802469132,0,0,0.07469135802469132,17.925925925925917,0)" xlink:href="#bb"/><use transform="matrix(0.07469135802469132,0,0,0.07469135802469132,32.86419753086418,0)" xlink:href="#bc"/><use transform="matrix(0.07469135802469132,0,0,0.07469135802469132,38.764814814814805,0)" xlink:href="#aU"/><use transform="matrix(0.07469135802469132,0,0,0.07469135802469132,46.23395061728393,0)" xlink:href="#aW"/><use transform="matrix(0.07469135802469132,0,0,0.07469135802469132,61.172222222222196,0)" xlink:href="#aQ"/></g><path d="M115-194c55 1 70 41 70 98S169 2 115 4C84 4 66-9 55-30l1 105H24l-1-265h31l2 30c10-21 28-34 59-34zm-8 174c40 0 45-34 45-75s-6-73-45-74c-42 0-51 32-51 76 0 43 10 73 51 73" id="bd"/><path d="M84 4C-5 8 30-112 23-190h32v120c0 31 7 50 39 49 72-2 45-101 50-169h31l1 190h-30c-1-10 1-25-2-33-11 22-28 36-60 37" id="be"/><path d="M135-143c-3-34-86-38-87 0 15 53 115 12 119 90S17 21 10-45l28-5c4 36 97 45 98 0-10-56-113-15-118-90-4-57 82-63 122-42 12 7 21 19 24 35" id="bf"/><g id="d"><use transform="matrix(0.05617283950617281,0,0,0.05617283950617281,0,0)" xlink:href="#bd"/><use transform="matrix(0.05617283950617281,0,0,0.05617283950617281,11.234567901234561,0)" xlink:href="#aQ"/><use transform="matrix(0.05617283950617281,0,0,0.05617283950617281,17.919135802469125,0)" xlink:href="#aW"/><use transform="matrix(0.05617283950617281,0,0,0.05617283950617281,29.153703703703687,0)" xlink:href="#bb"/><use transform="matrix(0.05617283950617281,0,0,0.05617283950617281,40.38827160493825,0)" xlink:href="#be"/><use transform="matrix(0.05617283950617281,0,0,0.05617283950617281,51.62283950617281,0)" xlink:href="#aZ"/><use transform="matrix(0.05617283950617281,0,0,0.05617283950617281,61.73395061728392,0)" xlink:href="#aR"/><use transform="matrix(0.05617283950617281,0,0,0.05617283950617281,72.96851851851848,0)" xlink:href="#bf"/></g><path d="M30-248c118-7 216 8 213 122C240-48 200 0 122 0H30v-248zM63-27c89 8 146-16 146-99s-60-101-146-95v194" id="bg"/><path d="M101-234c-31-9-42 10-38 44h38v23H63V0H32v-167H5v-23h27c-7-52 17-82 69-68v24" id="bh"/><g id="e"><use transform="matrix(0.15432098765432092,0,0,0.15432098765432092,0,0)" xlink:href="#bg"/><use transform="matrix(0.15432098765432092,0,0,0.15432098765432092,39.96913580246912,0)" xlink:href="#aQ"/><use transform="matrix(0.15432098765432092,0,0,0.15432098765432092,58.33333333333331,0)" xlink:href="#aY"/><use transform="matrix(0.15432098765432092,0,0,0.15432098765432092,89.19753086419749,0)" xlink:href="#bh"/><use transform="matrix(0.15432098765432092,0,0,0.15432098765432092,104.62962962962956,0)" xlink:href="#aU"/></g><path d="M63-220v92h138v28H63V0H30v-248h175v28H63" id="bi"/><path d="M24 0v-261h32V0H24" id="bj"/><g id="f"><use transform="matrix(0.15432098765432092,0,0,0.15432098765432092,0,0)" xlink:href="#bi"/><use transform="matrix(0.15432098765432092,0,0,0.15432098765432092,33.79629629629628,0)" xlink:href="#be"/><use transform="matrix(0.15432098765432092,0,0,0.15432098765432092,64.66049382716047,0)" xlink:href="#aT"/><use transform="matrix(0.15432098765432092,0,0,0.15432098765432092,95.52469135802465,0)" xlink:href="#aZ"/><use transform="matrix(0.15432098765432092,0,0,0.15432098765432092,123.30246913580241,0)" xlink:href="#aU"/><use transform="matrix(0.15432098765432092,0,0,0.15432098765432092,138.73456790123453,0)" xlink:href="#bc"/><use transform="matrix(0.15432098765432092,0,0,0.15432098765432092,150.92592592592587,0)" xlink:href="#aW"/><use transform="matrix(0.15432098765432092,0,0,0.15432098765432092,181.79012345679004,0)" xlink:href="#aT"/><use transform="matrix(0.15432098765432092,0,0,0.15432098765432092,212.65432098765424,0)" xlink:href="#aY"/><use transform="matrix(0.15432098765432092,0,0,0.15432098765432092,243.5185185185184,0)" xlink:href="#bj"/></g><path d="M185-189c-5-48-123-54-124 2 14 75 158 14 163 119 3 78-121 87-175 55-17-10-28-26-33-46l33-7c5 56 141 63 141-1 0-78-155-14-162-118-5-82 145-84 179-34 5 7 8 16 11 25" id="bk"/><g id="g"><use transform="matrix(0.15432098765432092,0,0,0.15432098765432092,0,0)" xlink:href="#bk"/><use transform="matrix(0.15432098765432092,0,0,0.15432098765432092,37.037037037037024,0)" xlink:href="#bd"/><use transform="matrix(0.15432098765432092,0,0,0.15432098765432092,67.90123456790121,0)" xlink:href="#aR"/><use transform="matrix(0.15432098765432092,0,0,0.15432098765432092,98.7654320987654,0)" xlink:href="#aZ"/></g><path d="M140-251c81 0 123 46 123 126C263-46 219 4 140 4 59 4 17-45 17-125s42-126 123-126zm0 227c63 0 89-41 89-101s-29-99-89-99c-61 0-89 39-89 99S79-25 140-24" id="bl"/><g id="h"><use transform="matrix(0.15432098765432092,0,0,0.15432098765432092,0,0)" xlink:href="#bl"/><use transform="matrix(0.15432098765432092,0,0,0.15432098765432092,43.20987654320986,0)" xlink:href="#aZ"/><use transform="matrix(0.15432098765432092,0,0,0.15432098765432092,70.98765432098763,0)" xlink:href="#aU"/></g><path d="M27 0v-27h64v-190l-56 39v-29l58-41h29v221h61V0H27" id="bm"/><path d="M99-251c64 0 84 50 84 122C183-37 130 33 47-8c-14-7-20-23-25-40l30-5c6 39 69 39 84 7 9-19 16-44 16-74-10 22-31 35-62 35-49 0-73-33-73-83 0-54 28-83 82-83zm-1 141c31-1 51-18 51-49 0-36-14-67-51-67-34 0-49 23-49 58 0 34 15 58 49 58" id="bn"/><g id="i"><use transform="matrix(0.15432098765432092,0,0,0.15432098765432092,0,0)" xlink:href="#bm"/><use transform="matrix(0.15432098765432092,0,0,0.15432098765432092,30.864197530864185,0)" xlink:href="#bn"/></g><g id="j"><use transform="matrix(0.07469135802469132,0,0,0.07469135802469132,0,0)" xlink:href="#aO"/><use transform="matrix(0.07469135802469132,0,0,0.07469135802469132,17.925925925925917,0)" xlink:href="#aP"/><use transform="matrix(0.07469135802469132,0,0,0.07469135802469132,32.86419753086418,0)" xlink:href="#aQ"/><use transform="matrix(0.07469135802469132,0,0,0.07469135802469132,41.75246913580245,0)" xlink:href="#aR"/><use transform="matrix(0.07469135802469132,0,0,0.07469135802469132,56.69074074074072,0)" xlink:href="#aR"/><use transform="matrix(0.07469135802469132,0,0,0.07469135802469132,71.62901234567897,0)" xlink:href="#aS"/><use transform="matrix(0.07469135802469132,0,0,0.07469135802469132,93.96172839506168,0)" xlink:href="#aR"/><use transform="matrix(0.07469135802469132,0,0,0.07469135802469132,108.89999999999993,0)" xlink:href="#aT"/><use transform="matrix(0.07469135802469132,0,0,0.07469135802469132,123.8382716049382,0)" xlink:href="#aU"/></g><g id="k"><use transform="matrix(0.07469135802469132,0,0,0.07469135802469132,0,0)" xlink:href="#ba"/><use transform="matrix(0.07469135802469132,0,0,0.07469135802469132,17.925925925925917,0)" xlink:href="#aT"/><use transform="matrix(0.07469135802469132,0,0,0.07469135802469132,32.86419753086418,0)" xlink:href="#aP"/><use transform="matrix(0.07469135802469132,0,0,0.07469135802469132,47.80246913580244,0)" xlink:href="#bc"/><use transform="matrix(0.07469135802469132,0,0,0.07469135802469132,53.70308641975306,0)" xlink:href="#aT"/><use transform="matrix(0.07469135802469132,0,0,0.07469135802469132,68.64135802469133,0)" xlink:href="#aR"/></g><path d="M240 0l2-218c-23 76-54 145-80 218h-23L58-218 59 0H30v-248h44l77 211c21-75 51-140 76-211h43V0h-30" id="bo"/><g id="l"><use transform="matrix(0.07469135802469132,0,0,0.07469135802469132,0,0)" xlink:href="#bo"/><use transform="matrix(0.07469135802469132,0,0,0.07469135802469132,22.332716049382704,0)" xlink:href="#aR"/><use transform="matrix(0.07469135802469132,0,0,0.07469135802469132,37.27098765432097,0)" xlink:href="#aU"/><use transform="matrix(0.07469135802469132,0,0,0.07469135802469132,44.7401234567901,0)" xlink:href="#aY"/><use transform="matrix(0.07469135802469132,0,0,0.07469135802469132,59.67839506172836,0)" xlink:href="#aP"/><use transform="matrix(0.07469135802469132,0,0,0.07469135802469132,74.61666666666663,0)" xlink:href="#aW"/><use transform="matrix(0.07469135802469132,0,0,0.07469135802469132,89.5549382716049,0)" xlink:href="#aX"/></g><path d="M30-248c87 1 191-15 191 75 0 78-77 80-158 76V0H30v-248zm33 125c57 0 124 11 124-50 0-59-68-47-124-48v98" id="bp"/><g id="m"><use transform="matrix(0.07469135802469132,0,0,0.07469135802469132,0,0)" xlink:href="#bp"/><use transform="matrix(0.07469135802469132,0,0,0.07469135802469132,17.925925925925917,0)" xlink:href="#aQ"/><use transform="matrix(0.07469135802469132,0,0,0.07469135802469132,26.814197530864185,0)" xlink:href="#aW"/><use transform="matrix(0.07469135802469132,0,0,0.07469135802469132,41.75246913580245,0)" xlink:href="#aU"/><use transform="matrix(0.07469135802469132,0,0,0.07469135802469132,49.221604938271575,0)" xlink:href="#aW"/><use transform="matrix(0.07469135802469132,0,0,0.07469135802469132,64.15987654320985,0)" xlink:href="#aZ"/><use transform="matrix(0.07469135802469132,0,0,0.07469135802469132,77.60432098765429,0)" xlink:href="#aW"/><use transform="matrix(0.07469135802469132,0,0,0.07469135802469132,92.54259259259256,0)" xlink:href="#bj"/></g><g id="n"><use transform="matrix(0.05617283950617281,0,0,0.05617283950617281,0,0)" xlink:href="#aZ"/><use transform="matrix(0.05617283950617281,0,0,0.05617283950617281,10.111111111111105,0)" xlink:href="#aY"/><use transform="matrix(0.05617283950617281,0,0,0.05617283950617281,21.345679012345666,0)" xlink:href="#bj"/><use transform="matrix(0.05617283950617281,0,0,0.05617283950617281,25.783333333333317,0)" xlink:href="#bj"/><use transform="matrix(0.05617283950617281,0,0,0.05617283950617281,30.22098765432097,0)" xlink:href="#bf"/></g><path d="M106-169C34-169 62-67 57 0H25v-261h32l-1 103c12-21 28-36 61-36 89 0 53 116 60 194h-32v-121c2-32-8-49-39-48" id="bq"/><g id="o"><use transform="matrix(0.07469135802469132,0,0,0.07469135802469132,0,0)" xlink:href="#bk"/><use transform="matrix(0.07469135802469132,0,0,0.07469135802469132,17.925925925925917,0)" xlink:href="#bq"/><use transform="matrix(0.07469135802469132,0,0,0.07469135802469132,32.86419753086418,0)" xlink:href="#aY"/><use transform="matrix(0.07469135802469132,0,0,0.07469135802469132,47.80246913580244,0)" xlink:href="#aQ"/><use transform="matrix(0.07469135802469132,0,0,0.07469135802469132,56.69074074074072,0)" xlink:href="#aR"/><use transform="matrix(0.07469135802469132,0,0,0.07469135802469132,71.62901234567897,0)" xlink:href="#bb"/></g><g id="p"><use transform="matrix(0.07469135802469132,0,0,0.07469135802469132,0,0)" xlink:href="#bg"/><use transform="matrix(0.07469135802469132,0,0,0.07469135802469132,19.345061728395052,0)" xlink:href="#aY"/><use transform="matrix(0.07469135802469132,0,0,0.07469135802469132,34.28333333333332,0)" xlink:href="#aU"/><use transform="matrix(0.07469135802469132,0,0,0.07469135802469132,41.75246913580245,0)" xlink:href="#aY"/></g><g id="q"><use transform="matrix(0.07469135802469132,0,0,0.07469135802469132,0,0)" xlink:href="#bo"/><use transform="matrix(0.07469135802469132,0,0,0.07469135802469132,22.332716049382704,0)" xlink:href="#aW"/><use transform="matrix(0.07469135802469132,0,0,0.07469135802469132,37.27098765432097,0)" xlink:href="#bb"/><use transform="matrix(0.07469135802469132,0,0,0.07469135802469132,52.209259259259234,0)" xlink:href="#aR"/><use transform="matrix(0.07469135802469132,0,0,0.07469135802469132,67.14753086419749,0)" xlink:href="#bj"/></g><g id="r"><use transform="matrix(0.05617283950617281,0,0,0.05617283950617281,0,0)" xlink:href="#bc"/><use transform="matrix(0.05617283950617281,0,0,0.05617283950617281,4.437654320987652,0)" xlink:href="#aT"/><use transform="matrix(0.05617283950617281,0,0,0.05617283950617281,15.672222222222214,0)" xlink:href="#bh"/><use transform="matrix(0.05617283950617281,0,0,0.05617283950617281,21.289506172839495,0)" xlink:href="#aW"/><use transform="matrix(0.05617283950617281,0,0,0.05617283950617281,32.52407407407406,0)" xlink:href="#aQ"/><use transform="matrix(0.05617283950617281,0,0,0.05617283950617281,39.20864197530862,0)" xlink:href="#aS"/><use transform="matrix(0.05617283950617281,0,0,0.05617283950617281,56.004320987654296,0)" xlink:href="#bf"/></g><g id="s"><use transform="matrix(0.07469135802469132,0,0,0.07469135802469132,0,0)" xlink:href="#aO"/><use transform="matrix(0.07469135802469132,0,0,0.07469135802469132,17.925925925925917,0)" xlink:href="#aP"/><use transform="matrix(0.07469135802469132,0,0,0.07469135802469132,32.86419753086418,0)" xlink:href="#aQ"/><use transform="matrix(0.07469135802469132,0,0,0.07469135802469132,41.75246913580245,0)" xlink:href="#aR"/><use transform="matrix(0.07469135802469132,0,0,0.07469135802469132,56.69074074074072,0)" xlink:href="#aR"/><use transform="matrix(0.07469135802469132,0,0,0.07469135802469132,71.62901234567897,0)" xlink:href="#aS"/><use transform="matrix(0.07469135802469132,0,0,0.07469135802469132,93.96172839506168,0)" xlink:href="#aR"/><use transform="matrix(0.07469135802469132,0,0,0.07469135802469132,108.89999999999993,0)" xlink:href="#aT"/><use transform="matrix(0.07469135802469132,0,0,0.07469135802469132,123.8382716049382,0)" xlink:href="#aU"/></g><path d="M233-177c-1 41-23 64-60 70L243 0h-38l-65-103H63V0H30v-248c88 3 205-21 203 71zM63-129c60-2 137 13 137-47 0-61-80-42-137-45v92" id="br"/><path d="M179-190L93 31C79 59 56 82 12 73V49c39 6 53-20 64-50L1-190h34L92-34l54-156h33" id="bs"/><g id="t"><use transform="matrix(0.07469135802469132,0,0,0.07469135802469132,0,0)" xlink:href="#br"/><use transform="matrix(0.07469135802469132,0,0,0.07469135802469132,19.345061728395052,0)" xlink:href="#aR"/><use transform="matrix(0.07469135802469132,0,0,0.07469135802469132,34.28333333333332,0)" xlink:href="#aP"/><use transform="matrix(0.07469135802469132,0,0,0.07469135802469132,49.221604938271575,0)" xlink:href="#bc"/><use transform="matrix(0.07469135802469132,0,0,0.07469135802469132,55.1222222222222,0)" xlink:href="#bf"/><use transform="matrix(0.07469135802469132,0,0,0.07469135802469132,68.56666666666663,0)" xlink:href="#aU"/><use transform="matrix(0.07469135802469132,0,0,0.07469135802469132,76.03580246913576,0)" xlink:href="#aQ"/><use transform="matrix(0.07469135802469132,0,0,0.07469135802469132,84.92407407407403,0)" xlink:href="#bs"/></g><g id="u"><use transform="matrix(0.07469135802469132,0,0,0.07469135802469132,0,0)" xlink:href="#bp"/><use transform="matrix(0.07469135802469132,0,0,0.07469135802469132,17.925925925925917,0)" xlink:href="#aQ"/><use transform="matrix(0.07469135802469132,0,0,0.07469135802469132,26.814197530864185,0)" xlink:href="#aW"/><use transform="matrix(0.07469135802469132,0,0,0.07469135802469132,41.75246913580245,0)" xlink:href="#bd"/><use transform="matrix(0.07469135802469132,0,0,0.07469135802469132,56.69074074074072,0)" xlink:href="#aW"/><use transform="matrix(0.07469135802469132,0,0,0.07469135802469132,71.62901234567897,0)" xlink:href="#bf"/><use transform="matrix(0.07469135802469132,0,0,0.07469135802469132,85.07345679012342,0)" xlink:href="#aY"/><use transform="matrix(0.07469135802469132,0,0,0.07469135802469132,100.01172839506168,0)" xlink:href="#bj"/></g><g id="v"><use transform="matrix(0.07469135802469132,0,0,0.07469135802469132,0,0)" xlink:href="#bf"/><use transform="matrix(0.07469135802469132,0,0,0.07469135802469132,13.444444444444438,0)" xlink:href="#bs"/><use transform="matrix(0.07469135802469132,0,0,0.07469135802469132,26.888888888888875,0)" xlink:href="#bf"/><use transform="matrix(0.07469135802469132,0,0,0.07469135802469132,40.333333333333314,0)" xlink:href="#aU"/><use transform="matrix(0.07469135802469132,0,0,0.07469135802469132,47.80246913580244,0)" xlink:href="#aR"/><use transform="matrix(0.07469135802469132,0,0,0.07469135802469132,62.74074074074071,0)" xlink:href="#aS"/></g><path d="M68-38c1 34 0 65-14 84H32c9-13 17-26 17-46H33v-38h35" id="bt"/><g id="w"><use transform="matrix(0.07469135802469132,0,0,0.07469135802469132,0,0)" xlink:href="#bg"/><use transform="matrix(0.07469135802469132,0,0,0.07469135802469132,19.345061728395052,0)" xlink:href="#aW"/><use transform="matrix(0.07469135802469132,0,0,0.07469135802469132,34.28333333333332,0)" xlink:href="#aZ"/><use transform="matrix(0.07469135802469132,0,0,0.07469135802469132,47.72777777777775,0)" xlink:href="#be"/><use transform="matrix(0.07469135802469132,0,0,0.07469135802469132,62.66604938271602,0)" xlink:href="#aS"/><use transform="matrix(0.07469135802469132,0,0,0.07469135802469132,84.99876543209872,0)" xlink:href="#aR"/><use transform="matrix(0.07469135802469132,0,0,0.07469135802469132,99.93703703703699,0)" xlink:href="#aT"/><use transform="matrix(0.07469135802469132,0,0,0.07469135802469132,114.87530864197525,0)" xlink:href="#aU"/><use transform="matrix(0.07469135802469132,0,0,0.07469135802469132,122.34444444444438,0)" xlink:href="#bf"/><use transform="matrix(0.07469135802469132,0,0,0.07469135802469132,135.7888888888888,0)" xlink:href="#bt"/></g><g id="x"><use transform="matrix(0.07469135802469132,0,0,0.07469135802469132,0,0)" xlink:href="#aZ"/><use transform="matrix(0.07469135802469132,0,0,0.07469135802469132,13.444444444444438,0)" xlink:href="#bq"/><use transform="matrix(0.07469135802469132,0,0,0.07469135802469132,28.3827160493827,0)" xlink:href="#aY"/><use transform="matrix(0.07469135802469132,0,0,0.07469135802469132,43.320987654320966,0)" xlink:href="#aU"/><use transform="matrix(0.07469135802469132,0,0,0.07469135802469132,50.7901234567901,0)" xlink:href="#bt"/></g><g id="y"><use transform="matrix(0.07469135802469132,0,0,0.07469135802469132,0,0)" xlink:href="#bd"/><use transform="matrix(0.07469135802469132,0,0,0.07469135802469132,14.938271604938263,0)" xlink:href="#aW"/><use transform="matrix(0.07469135802469132,0,0,0.07469135802469132,29.876543209876527,0)" xlink:href="#bf"/><use transform="matrix(0.07469135802469132,0,0,0.07469135802469132,43.320987654320966,0)" xlink:href="#aU"/><use transform="matrix(0.07469135802469132,0,0,0.07469135802469132,50.7901234567901,0)" xlink:href="#bf"/><use transform="matrix(0.07469135802469132,0,0,0.07469135802469132,64.23456790123454,0)" xlink:href="#bt"/></g><g id="z"><use transform="matrix(0.07469135802469132,0,0,0.07469135802469132,0,0)" xlink:href="#aR"/><use transform="matrix(0.07469135802469132,0,0,0.07469135802469132,14.938271604938263,0)" xlink:href="#aX"/><use transform="matrix(0.07469135802469132,0,0,0.07469135802469132,28.3827160493827,0)" xlink:href="#bc"/><use transform="matrix(0.07469135802469132,0,0,0.07469135802469132,34.28333333333332,0)" xlink:href="#bb"/><use transform="matrix(0.07469135802469132,0,0,0.07469135802469132,49.221604938271575,0)" xlink:href="#aR"/><use transform="matrix(0.07469135802469132,0,0,0.07469135802469132,64.15987654320985,0)" xlink:href="#aT"/><use transform="matrix(0.07469135802469132,0,0,0.07469135802469132,79.09814814814811,0)" xlink:href="#aZ"/><use transform="matrix(0.07469135802469132,0,0,0.07469135802469132,92.54259259259256,0)" xlink:href="#aR"/></g><g id="A"><use transform="matrix(0.07469135802469132,0,0,0.07469135802469132,0,0)" xlink:href="#bc"/><use transform="matrix(0.07469135802469132,0,0,0.07469135802469132,5.900617283950614,0)" xlink:href="#aT"/></g><g id="B"><use transform="matrix(0.07469135802469132,0,0,0.07469135802469132,0,0)" xlink:href="#aU"/><use transform="matrix(0.07469135802469132,0,0,0.07469135802469132,7.469135802469132,0)" xlink:href="#bq"/><use transform="matrix(0.07469135802469132,0,0,0.07469135802469132,22.407407407407394,0)" xlink:href="#aR"/></g><path d="M206 0h-36l-40-164L89 0H53L-1-190h32L70-26l43-164h34l41 164 42-164h31" id="bu"/><g id="C"><use transform="matrix(0.07469135802469132,0,0,0.07469135802469132,0,0)" xlink:href="#bu"/><use transform="matrix(0.07469135802469132,0,0,0.07469135802469132,19.345061728395052,0)" xlink:href="#bc"/><use transform="matrix(0.07469135802469132,0,0,0.07469135802469132,25.245679012345665,0)" xlink:href="#bj"/><use transform="matrix(0.07469135802469132,0,0,0.07469135802469132,31.14629629629628,0)" xlink:href="#bb"/></g><path d="M266 0h-40l-56-210L115 0H75L2-248h35L96-30l15-64 43-154h32l59 218 59-218h35" id="bv"/><path d="M115-194c53 0 69 39 70 98 0 66-23 100-70 100C84 3 66-7 56-30L54 0H23l1-261h32v101c10-23 28-34 59-34zm-8 174c40 0 45-34 45-75 0-40-5-75-45-74-42 0-51 32-51 76 0 43 10 73 51 73" id="bw"/><g id="D"><use transform="matrix(0.07469135802469132,0,0,0.07469135802469132,0,0)" xlink:href="#bv"/><use transform="matrix(0.07469135802469132,0,0,0.07469135802469132,24.79753086419752,0)" xlink:href="#aR"/><use transform="matrix(0.07469135802469132,0,0,0.07469135802469132,39.735802469135784,0)" xlink:href="#bw"/><use transform="matrix(0.07469135802469132,0,0,0.07469135802469132,54.67407407407404,0)" xlink:href="#bf"/><use transform="matrix(0.07469135802469132,0,0,0.07469135802469132,68.11851851851848,0)" xlink:href="#bc"/><use transform="matrix(0.07469135802469132,0,0,0.07469135802469132,74.0191358024691,0)" xlink:href="#aU"/><use transform="matrix(0.07469135802469132,0,0,0.07469135802469132,81.48827160493823,0)" xlink:href="#aR"/><use transform="matrix(0.07469135802469132,0,0,0.07469135802469132,96.42654320987648,0)" xlink:href="#bf"/></g><g id="E"><use transform="matrix(0.05617283950617281,0,0,0.05617283950617281,0,0)" xlink:href="#be"/><use transform="matrix(0.05617283950617281,0,0,0.05617283950617281,11.234567901234561,0)" xlink:href="#bd"/><use transform="matrix(0.05617283950617281,0,0,0.05617283950617281,22.469135802469122,0)" xlink:href="#bj"/><use transform="matrix(0.05617283950617281,0,0,0.05617283950617281,26.906790123456773,0)" xlink:href="#aW"/><use transform="matrix(0.05617283950617281,0,0,0.05617283950617281,38.141358024691336,0)" xlink:href="#aY"/><use transform="matrix(0.05617283950617281,0,0,0.05617283950617281,49.3759259259259,0)" xlink:href="#bb"/></g><g id="F"><use transform="matrix(0.05617283950617281,0,0,0.05617283950617281,0,0)" xlink:href="#aY"/><use transform="matrix(0.05617283950617281,0,0,0.05617283950617281,11.234567901234561,0)" xlink:href="#bb"/><use transform="matrix(0.05617283950617281,0,0,0.05617283950617281,22.469135802469122,0)" xlink:href="#bb"/><use transform="matrix(0.05617283950617281,0,0,0.05617283950617281,33.70370370370368,0)" xlink:href="#aQ"/><use transform="matrix(0.05617283950617281,0,0,0.05617283950617281,40.38827160493825,0)" xlink:href="#aR"/><use transform="matrix(0.05617283950617281,0,0,0.05617283950617281,51.62283950617281,0)" xlink:href="#bf"/><use transform="matrix(0.05617283950617281,0,0,0.05617283950617281,61.73395061728392,0)" xlink:href="#bf"/></g><path d="M33 0v-248h34V0H33" id="bx"/><g id="G"><use transform="matrix(0.07469135802469132,0,0,0.07469135802469132,0,0)" xlink:href="#bx"/><use transform="matrix(0.07469135802469132,0,0,0.07469135802469132,7.469135802469132,0)" xlink:href="#aT"/><use transform="matrix(0.07469135802469132,0,0,0.07469135802469132,22.407407407407394,0)" xlink:href="#aU"/><use transform="matrix(0.07469135802469132,0,0,0.07469135802469132,29.876543209876527,0)" xlink:href="#aR"/><use transform="matrix(0.07469135802469132,0,0,0.07469135802469132,44.81481481481479,0)" xlink:href="#aQ"/><use transform="matrix(0.07469135802469132,0,0,0.07469135802469132,53.703086419753056,0)" xlink:href="#bh"/><use transform="matrix(0.07469135802469132,0,0,0.07469135802469132,61.17222222222219,0)" xlink:href="#aY"/><use transform="matrix(0.07469135802469132,0,0,0.07469135802469132,76.11049382716045,0)" xlink:href="#aZ"/><use transform="matrix(0.07469135802469132,0,0,0.07469135802469132,89.5549382716049,0)" xlink:href="#aR"/></g><path d="M232-93c-1 65-40 97-104 97C67 4 28-28 28-90v-158h33c8 89-33 224 67 224 102 0 64-133 71-224h33v155" id="by"/><g id="H"><use transform="matrix(0.07469135802469132,0,0,0.07469135802469132,0,0)" xlink:href="#by"/><use transform="matrix(0.07469135802469132,0,0,0.07469135802469132,19.345061728395052,0)" xlink:href="#bf"/><use transform="matrix(0.07469135802469132,0,0,0.07469135802469132,32.78950617283949,0)" xlink:href="#aR"/><use transform="matrix(0.07469135802469132,0,0,0.07469135802469132,47.72777777777775,0)" xlink:href="#aQ"/></g><g id="I"><use transform="matrix(0.07469135802469132,0,0,0.07469135802469132,0,0)" xlink:href="#aO"/><use transform="matrix(0.07469135802469132,0,0,0.07469135802469132,17.925925925925917,0)" xlink:href="#aZ"/><use transform="matrix(0.07469135802469132,0,0,0.07469135802469132,31.370370370370352,0)" xlink:href="#aU"/><use transform="matrix(0.07469135802469132,0,0,0.07469135802469132,38.839506172839485,0)" xlink:href="#bc"/><use transform="matrix(0.07469135802469132,0,0,0.07469135802469132,44.7401234567901,0)" xlink:href="#aW"/><use transform="matrix(0.07469135802469132,0,0,0.07469135802469132,59.67839506172836,0)" xlink:href="#aT"/><use transform="matrix(0.07469135802469132,0,0,0.07469135802469132,74.61666666666663,0)" xlink:href="#bt"/></g><g id="J"><use transform="matrix(0.07469135802469132,0,0,0.07469135802469132,0,0)" xlink:href="#bx"/><use transform="matrix(0.07469135802469132,0,0,0.07469135802469132,7.469135802469132,0)" xlink:href="#aT"/><use transform="matrix(0.07469135802469132,0,0,0.07469135802469132,22.407407407407394,0)" xlink:href="#bh"/><use transform="matrix(0.07469135802469132,0,0,0.07469135802469132,29.876543209876527,0)" xlink:href="#aQ"/><use transform="matrix(0.07469135802469132,0,0,0.07469135802469132,38.76481481481479,0)" xlink:href="#aY"/><use transform="matrix(0.07469135802469132,0,0,0.07469135802469132,53.703086419753056,0)" xlink:href="#aZ"/><use transform="matrix(0.07469135802469132,0,0,0.07469135802469132,67.14753086419749,0)" xlink:href="#aU"/><use transform="matrix(0.07469135802469132,0,0,0.07469135802469132,74.61666666666662,0)" xlink:href="#bc"/><use transform="matrix(0.07469135802469132,0,0,0.07469135802469132,80.51728395061723,0)" xlink:href="#aW"/><use transform="matrix(0.07469135802469132,0,0,0.07469135802469132,95.45555555555549,0)" xlink:href="#aT"/><use transform="matrix(0.07469135802469132,0,0,0.07469135802469132,110.39382716049376,0)" xlink:href="#bt"/></g><g id="K"><use transform="matrix(0.07469135802469132,0,0,0.07469135802469132,0,0)" xlink:href="#ba"/><use transform="matrix(0.07469135802469132,0,0,0.07469135802469132,17.925925925925917,0)" xlink:href="#aT"/><use transform="matrix(0.07469135802469132,0,0,0.07469135802469132,32.86419753086418,0)" xlink:href="#bh"/><use transform="matrix(0.07469135802469132,0,0,0.07469135802469132,40.333333333333314,0)" xlink:href="#aW"/><use transform="matrix(0.07469135802469132,0,0,0.07469135802469132,55.27160493827159,0)" xlink:href="#aQ"/><use transform="matrix(0.07469135802469132,0,0,0.07469135802469132,64.15987654320985,0)" xlink:href="#aZ"/><use transform="matrix(0.07469135802469132,0,0,0.07469135802469132,77.60432098765429,0)" xlink:href="#aR"/><use transform="matrix(0.07469135802469132,0,0,0.07469135802469132,92.54259259259256,0)" xlink:href="#aS"/><use transform="matrix(0.07469135802469132,0,0,0.07469135802469132,114.87530864197527,0)" xlink:href="#aR"/><use transform="matrix(0.07469135802469132,0,0,0.07469135802469132,129.81358024691352,0)" xlink:href="#aT"/><use transform="matrix(0.07469135802469132,0,0,0.07469135802469132,144.75185185185177,0)" xlink:href="#aU"/></g><g id="L"><use transform="matrix(0.07469135802469132,0,0,0.07469135802469132,0,0)" xlink:href="#bg"/><use transform="matrix(0.07469135802469132,0,0,0.07469135802469132,19.345061728395052,0)" xlink:href="#aY"/><use transform="matrix(0.07469135802469132,0,0,0.07469135802469132,34.28333333333332,0)" xlink:href="#aU"/><use transform="matrix(0.07469135802469132,0,0,0.07469135802469132,41.75246913580245,0)" xlink:href="#aY"/></g><g id="M"><use transform="matrix(0.07469135802469132,0,0,0.07469135802469132,0,0)" xlink:href="#bo"/><use transform="matrix(0.07469135802469132,0,0,0.07469135802469132,22.332716049382704,0)" xlink:href="#aW"/><use transform="matrix(0.07469135802469132,0,0,0.07469135802469132,37.27098765432097,0)" xlink:href="#bb"/><use transform="matrix(0.07469135802469132,0,0,0.07469135802469132,52.209259259259234,0)" xlink:href="#be"/><use transform="matrix(0.07469135802469132,0,0,0.07469135802469132,67.14753086419749,0)" xlink:href="#bj"/><use transform="matrix(0.07469135802469132,0,0,0.07469135802469132,73.0481481481481,0)" xlink:href="#aR"/><use transform="matrix(0.07469135802469132,0,0,0.07469135802469132,87.98641975308637,0)" xlink:href="#bf"/></g><g id="N"><use transform="matrix(0.05555555555555555,0,0,0.05555555555555555,0,0)" xlink:href="#aW"/><use transform="matrix(0.05555555555555555,0,0,0.05555555555555555,11.11111111111111,0)" xlink:href="#aQ"/><use transform="matrix(0.05555555555555555,0,0,0.05555555555555555,17.72222222222222,0)" xlink:href="#aZ"/><use transform="matrix(0.05555555555555555,0,0,0.05555555555555555,27.72222222222222,0)" xlink:href="#bq"/><use transform="matrix(0.05555555555555555,0,0,0.05555555555555555,38.83333333333333,0)" xlink:href="#aR"/><use transform="matrix(0.05555555555555555,0,0,0.05555555555555555,49.94444444444444,0)" xlink:href="#bf"/><use transform="matrix(0.05555555555555555,0,0,0.05555555555555555,59.94444444444444,0)" xlink:href="#aU"/><use transform="matrix(0.05555555555555555,0,0,0.05555555555555555,65.5,0)" xlink:href="#aQ"/><use transform="matrix(0.05555555555555555,0,0,0.05555555555555555,72.11111111111111,0)" xlink:href="#aY"/><use transform="matrix(0.05555555555555555,0,0,0.05555555555555555,83.22222222222223,0)" xlink:href="#aU"/><use transform="matrix(0.05555555555555555,0,0,0.05555555555555555,88.77777777777779,0)" xlink:href="#aR"/><use transform="matrix(0.05555555555555555,0,0,0.05555555555555555,99.8888888888889,0)" xlink:href="#bb"/></g><g id="O"><use transform="matrix(0.05555555555555555,0,0,0.05555555555555555,0,0)" xlink:href="#bw"/><use transform="matrix(0.05555555555555555,0,0,0.05555555555555555,11.11111111111111,0)" xlink:href="#bs"/></g><g id="P"><use transform="matrix(0.07469135802469132,0,0,0.07469135802469132,0,0)" xlink:href="#bp"/><use transform="matrix(0.07469135802469132,0,0,0.07469135802469132,17.925925925925917,0)" xlink:href="#bj"/><use transform="matrix(0.07469135802469132,0,0,0.07469135802469132,23.82654320987653,0)" xlink:href="#aY"/><use transform="matrix(0.07469135802469132,0,0,0.07469135802469132,38.76481481481479,0)" xlink:href="#aU"/><use transform="matrix(0.07469135802469132,0,0,0.07469135802469132,46.233950617283924,0)" xlink:href="#bh"/><use transform="matrix(0.07469135802469132,0,0,0.07469135802469132,53.703086419753056,0)" xlink:href="#aW"/><use transform="matrix(0.07469135802469132,0,0,0.07469135802469132,68.64135802469131,0)" xlink:href="#aQ"/><use transform="matrix(0.07469135802469132,0,0,0.07469135802469132,77.52962962962958,0)" xlink:href="#aS"/></g><g id="Q"><use transform="matrix(0.07469135802469132,0,0,0.07469135802469132,0,0)" xlink:href="#bp"/><use transform="matrix(0.07469135802469132,0,0,0.07469135802469132,17.925925925925917,0)" xlink:href="#bj"/><use transform="matrix(0.07469135802469132,0,0,0.07469135802469132,23.82654320987653,0)" xlink:href="#aY"/><use transform="matrix(0.07469135802469132,0,0,0.07469135802469132,38.76481481481479,0)" xlink:href="#aU"/><use transform="matrix(0.07469135802469132,0,0,0.07469135802469132,46.233950617283924,0)" xlink:href="#bh"/><use transform="matrix(0.07469135802469132,0,0,0.07469135802469132,53.703086419753056,0)" xlink:href="#aW"/><use transform="matrix(0.07469135802469132,0,0,0.07469135802469132,68.64135802469131,0)" xlink:href="#aQ"/><use transform="matrix(0.07469135802469132,0,0,0.07469135802469132,77.52962962962958,0)" xlink:href="#aS"/></g><g id="R"><use transform="matrix(0.05617283950617281,0,0,0.05617283950617281,0,0)" xlink:href="#aO"/><use transform="matrix(0.05617283950617281,0,0,0.05617283950617281,13.481481481481474,0)" xlink:href="#bp"/><use transform="matrix(0.05617283950617281,0,0,0.05617283950617281,26.962962962962948,0)" xlink:href="#bx"/></g><g id="S"><use transform="matrix(0.05617283950617281,0,0,0.05617283950617281,0,0)" xlink:href="#aO"/><use transform="matrix(0.05617283950617281,0,0,0.05617283950617281,13.481481481481474,0)" xlink:href="#bp"/><use transform="matrix(0.05617283950617281,0,0,0.05617283950617281,26.962962962962948,0)" xlink:href="#bx"/></g><g id="T"><use transform="matrix(0.05617283950617281,0,0,0.05617283950617281,0,0)" xlink:href="#bb"/><use transform="matrix(0.05617283950617281,0,0,0.05617283950617281,11.234567901234561,0)" xlink:href="#aW"/><use transform="matrix(0.05617283950617281,0,0,0.05617283950617281,22.469135802469122,0)" xlink:href="#aZ"/><use transform="matrix(0.05617283950617281,0,0,0.05617283950617281,32.580246913580226,0)" xlink:href="#be"/><use transform="matrix(0.05617283950617281,0,0,0.05617283950617281,43.81481481481479,0)" xlink:href="#aS"/><use transform="matrix(0.05617283950617281,0,0,0.05617283950617281,60.61049382716046,0)" xlink:href="#aR"/><use transform="matrix(0.05617283950617281,0,0,0.05617283950617281,71.84506172839501,0)" xlink:href="#aT"/><use transform="matrix(0.05617283950617281,0,0,0.05617283950617281,83.07962962962957,0)" xlink:href="#aU"/><use transform="matrix(0.05617283950617281,0,0,0.05617283950617281,88.69691358024684,0)" xlink:href="#aY"/><use transform="matrix(0.05617283950617281,0,0,0.05617283950617281,99.9314814814814,0)" xlink:href="#aU"/><use transform="matrix(0.05617283950617281,0,0,0.05617283950617281,105.54876543209868,0)" xlink:href="#bc"/><use transform="matrix(0.05617283950617281,0,0,0.05617283950617281,109.98641975308632,0)" xlink:href="#aW"/><use transform="matrix(0.05617283950617281,0,0,0.05617283950617281,121.22098765432087,0)" xlink:href="#aT"/><use transform="matrix(0.05617283950617281,0,0,0.05617283950617281,132.45555555555543,0)" xlink:href="#bt"/></g><g id="U"><use transform="matrix(0.05617283950617281,0,0,0.05617283950617281,0,0)" xlink:href="#by"/><use transform="matrix(0.05617283950617281,0,0,0.05617283950617281,14.548765432098756,0)" xlink:href="#bf"/><use transform="matrix(0.05617283950617281,0,0,0.05617283950617281,24.65987654320986,0)" xlink:href="#aR"/><use transform="matrix(0.05617283950617281,0,0,0.05617283950617281,35.894444444444424,0)" xlink:href="#aQ"/><use transform="matrix(0.05617283950617281,0,0,0.05617283950617281,42.57901234567899,0)" xlink:href="#bf"/></g><path d="M141 0L90-78 38 0H4l68-98-65-92h35l48 74 47-74h35l-64 92 68 98h-35" id="bz"/><g id="V"><use transform="matrix(0.05617283950617281,0,0,0.05617283950617281,0,0)" xlink:href="#aR"/><use transform="matrix(0.05617283950617281,0,0,0.05617283950617281,11.234567901234561,0)" xlink:href="#bz"/><use transform="matrix(0.05617283950617281,0,0,0.05617283950617281,21.345679012345666,0)" xlink:href="#bd"/><use transform="matrix(0.05617283950617281,0,0,0.05617283950617281,32.580246913580226,0)" xlink:href="#aW"/><use transform="matrix(0.05617283950617281,0,0,0.05617283950617281,43.81481481481479,0)" xlink:href="#aQ"/><use transform="matrix(0.05617283950617281,0,0,0.05617283950617281,50.499382716049354,0)" xlink:href="#aU"/><use transform="matrix(0.05617283950617281,0,0,0.05617283950617281,56.11666666666663,0)" xlink:href="#bf"/></g><g id="W"><use transform="matrix(0.05617283950617281,0,0,0.05617283950617281,0,0)" xlink:href="#aU"/><use transform="matrix(0.05617283950617281,0,0,0.05617283950617281,5.6172839506172805,0)" xlink:href="#aW"/></g><g id="X"><use transform="matrix(0.05617283950617281,0,0,0.05617283950617281,0,0)" xlink:href="#aW"/><use transform="matrix(0.05617283950617281,0,0,0.05617283950617281,11.234567901234561,0)" xlink:href="#bd"/><use transform="matrix(0.05617283950617281,0,0,0.05617283950617281,22.469135802469122,0)" xlink:href="#aR"/><use transform="matrix(0.05617283950617281,0,0,0.05617283950617281,33.70370370370368,0)" xlink:href="#aQ"/><use transform="matrix(0.05617283950617281,0,0,0.05617283950617281,40.38827160493825,0)" xlink:href="#aY"/><use transform="matrix(0.05617283950617281,0,0,0.05617283950617281,51.62283950617281,0)" xlink:href="#aU"/><use transform="matrix(0.05617283950617281,0,0,0.05617283950617281,57.24012345679009,0)" xlink:href="#aR"/><use transform="matrix(0.05617283950617281,0,0,0.05617283950617281,68.47469135802464,0)" xlink:href="#bf"/></g><g id="Y"><use transform="matrix(0.05617283950617281,0,0,0.05617283950617281,0,0)" xlink:href="#aS"/><use transform="matrix(0.05617283950617281,0,0,0.05617283950617281,16.79567901234567,0)" xlink:href="#aR"/><use transform="matrix(0.05617283950617281,0,0,0.05617283950617281,28.03024691358023,0)" xlink:href="#bf"/><use transform="matrix(0.05617283950617281,0,0,0.05617283950617281,38.141358024691336,0)" xlink:href="#bf"/><use transform="matrix(0.05617283950617281,0,0,0.05617283950617281,48.25246913580244,0)" xlink:href="#aY"/><use transform="matrix(0.05617283950617281,0,0,0.05617283950617281,59.487037037037005,0)" xlink:href="#aP"/><use transform="matrix(0.05617283950617281,0,0,0.05617283950617281,70.72160493827157,0)" xlink:href="#aR"/></g><g id="Z"><use transform="matrix(0.08641975308641976,0,0,0.08641975308641976,0,0)" xlink:href="#bk"/><use transform="matrix(0.08641975308641976,0,0,0.08641975308641976,20.740740740740744,0)" xlink:href="#aU"/><use transform="matrix(0.08641975308641976,0,0,0.08641975308641976,29.382716049382726,0)" xlink:href="#aY"/><use transform="matrix(0.08641975308641976,0,0,0.08641975308641976,46.66666666666667,0)" xlink:href="#aU"/><use transform="matrix(0.08641975308641976,0,0,0.08641975308641976,55.308641975308646,0)" xlink:href="#aR"/></g><g id="aa"><use transform="matrix(0.08641975308641976,0,0,0.08641975308641976,0,0)" xlink:href="#aW"/><use transform="matrix(0.08641975308641976,0,0,0.08641975308641976,17.283950617283953,0)" xlink:href="#bh"/></g><g id="ab"><use transform="matrix(0.08641975308641976,0,0,0.08641975308641976,0,0)" xlink:href="#aT"/><use transform="matrix(0.08641975308641976,0,0,0.08641975308641976,17.283950617283953,0)" xlink:href="#aY"/><use transform="matrix(0.08641975308641976,0,0,0.08641975308641976,34.567901234567906,0)" xlink:href="#aU"/><use transform="matrix(0.08641975308641976,0,0,0.08641975308641976,43.20987654320988,0)" xlink:href="#be"/><use transform="matrix(0.08641975308641976,0,0,0.08641975308641976,60.49382716049384,0)" xlink:href="#aQ"/><use transform="matrix(0.08641975308641976,0,0,0.08641975308641976,70.77777777777779,0)" xlink:href="#aR"/></g><g id="ac"><use transform="matrix(0.07407407407407406,0,0,0.07407407407407406,0,0)" xlink:href="#bg"/><use transform="matrix(0.07407407407407406,0,0,0.07407407407407406,19.18518518518518,0)" xlink:href="#aR"/><use transform="matrix(0.07407407407407406,0,0,0.07407407407407406,33.99999999999999,0)" xlink:href="#bj"/><use transform="matrix(0.07407407407407406,0,0,0.07407407407407406,39.85185185185184,0)" xlink:href="#bc"/><use transform="matrix(0.07407407407407406,0,0,0.07407407407407406,45.70370370370368,0)" xlink:href="#bw"/><use transform="matrix(0.07407407407407406,0,0,0.07407407407407406,60.5185185185185,0)" xlink:href="#aR"/><use transform="matrix(0.07407407407407406,0,0,0.07407407407407406,75.33333333333331,0)" xlink:href="#aQ"/><use transform="matrix(0.07407407407407406,0,0,0.07407407407407406,84.14814814814812,0)" xlink:href="#aY"/><use transform="matrix(0.07407407407407406,0,0,0.07407407407407406,98.96296296296293,0)" xlink:href="#aU"/><use transform="matrix(0.07407407407407406,0,0,0.07407407407407406,106.37037037037034,0)" xlink:href="#bc"/><use transform="matrix(0.07407407407407406,0,0,0.07407407407407406,112.22222222222217,0)" xlink:href="#aW"/><use transform="matrix(0.07407407407407406,0,0,0.07407407407407406,127.037037037037,0)" xlink:href="#aT"/></g><g id="ad"><use transform="matrix(0.07407407407407406,0,0,0.07407407407407406,0,0)" xlink:href="#bf"/><use transform="matrix(0.07407407407407406,0,0,0.07407407407407406,13.33333333333333,0)" xlink:href="#bd"/><use transform="matrix(0.07407407407407406,0,0,0.07407407407407406,28.14814814814814,0)" xlink:href="#aY"/><use transform="matrix(0.07407407407407406,0,0,0.07407407407407406,42.962962962962955,0)" xlink:href="#aZ"/><use transform="matrix(0.07407407407407406,0,0,0.07407407407407406,56.29629629629628,0)" xlink:href="#aR"/></g><path d="M212-179c-10-28-35-45-73-45-59 0-87 40-87 99 0 60 29 101 89 101 43 0 62-24 78-52l27 14C228-24 195 4 139 4 59 4 22-46 18-125c-6-104 99-153 187-111 19 9 31 26 39 46" id="bA"/><g id="ae"><use transform="matrix(0.07469135802469132,0,0,0.07469135802469132,0,0)" xlink:href="#bA"/><use transform="matrix(0.07469135802469132,0,0,0.07469135802469132,19.345061728395052,0)" xlink:href="#aW"/><use transform="matrix(0.07469135802469132,0,0,0.07469135802469132,34.28333333333332,0)" xlink:href="#aT"/><use transform="matrix(0.07469135802469132,0,0,0.07469135802469132,49.221604938271575,0)" xlink:href="#bf"/><use transform="matrix(0.07469135802469132,0,0,0.07469135802469132,62.66604938271602,0)" xlink:href="#aU"/><use transform="matrix(0.07469135802469132,0,0,0.07469135802469132,70.13518518518515,0)" xlink:href="#bc"/><use transform="matrix(0.07469135802469132,0,0,0.07469135802469132,76.03580246913576,0)" xlink:href="#aU"/><use transform="matrix(0.07469135802469132,0,0,0.07469135802469132,83.5049382716049,0)" xlink:href="#be"/><use transform="matrix(0.07469135802469132,0,0,0.07469135802469132,98.44320987654315,0)" xlink:href="#aU"/><use transform="matrix(0.07469135802469132,0,0,0.07469135802469132,105.91234567901228,0)" xlink:href="#bc"/><use transform="matrix(0.07469135802469132,0,0,0.07469135802469132,111.81296296296289,0)" xlink:href="#aW"/><use transform="matrix(0.07469135802469132,0,0,0.07469135802469132,126.75123456790115,0)" xlink:href="#aT"/></g><g id="af"><use transform="matrix(0.05,0,0,0.05,0,0)" xlink:href="#aP"/><use transform="matrix(0.05,0,0,0.05,10,0)" xlink:href="#aW"/><use transform="matrix(0.05,0,0,0.05,20,0)" xlink:href="#aX"/><use transform="matrix(0.05,0,0,0.05,29,0)" xlink:href="#aR"/><use transform="matrix(0.05,0,0,0.05,39,0)" xlink:href="#aQ"/><use transform="matrix(0.05,0,0,0.05,44.95,0)" xlink:href="#aT"/><use transform="matrix(0.05,0,0,0.05,54.95,0)" xlink:href="#bf"/></g><linearGradient gradientUnits="userSpaceOnUse" id="ag" x1="1347" y1="240" x2="1187" y2="400"><stop offset="0%" stop-color="#f9d2de"/><stop offset="100%" stop-color="#ffdba9"/></linearGradient><g id="ah"><use transform="matrix(0.07469135802469132,0,0,0.07469135802469132,0,0)" xlink:href="#ba"/><use transform="matrix(0.07469135802469132,0,0,0.07469135802469132,17.925925925925917,0)" xlink:href="#aT"/><use transform="matrix(0.07469135802469132,0,0,0.07469135802469132,32.86419753086418,0)" xlink:href="#bh"/><use transform="matrix(0.07469135802469132,0,0,0.07469135802469132,40.333333333333314,0)" xlink:href="#aW"/><use transform="matrix(0.07469135802469132,0,0,0.07469135802469132,55.27160493827159,0)" xlink:href="#aQ"/><use transform="matrix(0.07469135802469132,0,0,0.07469135802469132,64.15987654320985,0)" xlink:href="#aZ"/><use transform="matrix(0.07469135802469132,0,0,0.07469135802469132,77.60432098765429,0)" xlink:href="#aR"/><use transform="matrix(0.07469135802469132,0,0,0.07469135802469132,92.54259259259256,0)" xlink:href="#aS"/><use transform="matrix(0.07469135802469132,0,0,0.07469135802469132,114.87530864197527,0)" xlink:href="#aR"/><use transform="matrix(0.07469135802469132,0,0,0.07469135802469132,129.81358024691352,0)" xlink:href="#aT"/><use transform="matrix(0.07469135802469132,0,0,0.07469135802469132,144.75185185185177,0)" xlink:href="#aU"/></g><g id="ai"><use transform="matrix(0.07469135802469132,0,0,0.07469135802469132,0,0)" xlink:href="#bo"/><use transform="matrix(0.07469135802469132,0,0,0.07469135802469132,22.332716049382704,0)" xlink:href="#aR"/><use transform="matrix(0.07469135802469132,0,0,0.07469135802469132,37.27098765432097,0)" xlink:href="#aZ"/><use transform="matrix(0.07469135802469132,0,0,0.07469135802469132,50.715432098765405,0)" xlink:href="#bq"/><use transform="matrix(0.07469135802469132,0,0,0.07469135802469132,65.65370370370367,0)" xlink:href="#aY"/><use transform="matrix(0.07469135802469132,0,0,0.07469135802469132,80.59197530864193,0)" xlink:href="#aT"/><use transform="matrix(0.07469135802469132,0,0,0.07469135802469132,95.5302469135802,0)" xlink:href="#bc"/><use transform="matrix(0.07469135802469132,0,0,0.07469135802469132,101.43086419753081,0)" xlink:href="#bf"/><use transform="matrix(0.07469135802469132,0,0,0.07469135802469132,114.87530864197525,0)" xlink:href="#aS"/><use transform="matrix(0.07469135802469132,0,0,0.07469135802469132,137.20802469135796,0)" xlink:href="#bf"/></g><g id="aj"><use transform="matrix(0.05,0,0,0.05,0,0)" xlink:href="#bf"/><use transform="matrix(0.05,0,0,0.05,9,0)" xlink:href="#aR"/><use transform="matrix(0.05,0,0,0.05,19,0)" xlink:href="#aU"/><use transform="matrix(0.05,0,0,0.05,24,0)" xlink:href="#bf"/></g><g id="ak"><use transform="matrix(0.05,0,0,0.05,0,0)" xlink:href="#aR"/><use transform="matrix(0.05,0,0,0.05,10,0)" xlink:href="#aT"/><use transform="matrix(0.05,0,0,0.05,20,0)" xlink:href="#bh"/><use transform="matrix(0.05,0,0,0.05,25,0)" xlink:href="#aW"/><use transform="matrix(0.05,0,0,0.05,35,0)" xlink:href="#aQ"/><use transform="matrix(0.05,0,0,0.05,40.95,0)" xlink:href="#aZ"/><use transform="matrix(0.05,0,0,0.05,49.95,0)" xlink:href="#aR"/><use transform="matrix(0.05,0,0,0.05,59.95,0)" xlink:href="#bf"/></g><use transform="matrix(0.06234567901234567,0,0,0.06234567901234567,0,0)" xlink:href="#bm" id="al"/><use transform="matrix(0.06234567901234567,0,0,0.06234567901234567,0,0)" xlink:href="#bn" id="am"/><path d="M54-142c48-35 137-8 131 61C196 18 31 33 14-55l32-4c7 23 22 37 52 37 35-1 51-22 54-58 4-55-73-65-99-34H22l8-134h141v27H59" id="bB"/><use transform="matrix(0.06234567901234567,0,0,0.06234567901234567,0,0)" xlink:href="#bB" id="an"/><path d="M155-56V0h-30v-56H8v-25l114-167h33v167h35v25h-35zm-30-156c-27 46-58 90-88 131h88v-131" id="bC"/><use transform="matrix(0.06234567901234567,0,0,0.06234567901234567,0,0)" xlink:href="#bC" id="ao"/><path d="M64 0c3-98 48-159 88-221H18v-27h164v26C143-157 98-101 97 0H64" id="bD"/><use transform="matrix(0.06234567901234567,0,0,0.06234567901234567,0,0)" xlink:href="#bD" id="ap"/><path d="M134-131c28 9 52 24 51 62-1 50-34 73-85 73S17-19 16-69c0-36 21-54 49-61-75-25-45-126 34-121 46 3 78 18 79 63 0 33-17 51-44 57zm-34-11c31 1 46-15 46-44 0-28-17-43-47-42-29 0-46 13-45 42 1 28 16 44 46 44zm1 122c35 0 51-18 51-52 0-30-18-46-53-46-33 0-51 17-51 47 0 34 19 51 53 51" id="bE"/><use transform="matrix(0.06234567901234567,0,0,0.06234567901234567,0,0)" xlink:href="#bE" id="aq"/><g id="ar"><use transform="matrix(0.07469135802469132,0,0,0.07469135802469132,0,0)" xlink:href="#bk"/><use transform="matrix(0.07469135802469132,0,0,0.07469135802469132,17.925925925925917,0)" xlink:href="#aZ"/><use transform="matrix(0.07469135802469132,0,0,0.07469135802469132,31.370370370370352,0)" xlink:href="#aR"/><use transform="matrix(0.07469135802469132,0,0,0.07469135802469132,46.30864197530862,0)" xlink:href="#aT"/><use transform="matrix(0.07469135802469132,0,0,0.07469135802469132,61.24691358024688,0)" xlink:href="#aY"/><use transform="matrix(0.07469135802469132,0,0,0.07469135802469132,76.18518518518515,0)" xlink:href="#aQ"/><use transform="matrix(0.07469135802469132,0,0,0.07469135802469132,85.07345679012342,0)" xlink:href="#bc"/><use transform="matrix(0.07469135802469132,0,0,0.07469135802469132,90.97407407407403,0)" xlink:href="#aW"/></g><path d="M110-160c48 1 74 30 74 79 0 53-28 85-80 85-65 0-83-55-86-122-5-90 50-162 133-122 14 7 22 21 27 39l-31 6c-5-40-67-38-82-6-9 19-15 44-15 74 11-20 30-34 60-33zm-7 138c34 0 49-23 49-58s-16-56-50-56c-29 0-50 16-49 49 1 36 15 65 50 65" id="bF"/><use transform="matrix(0.06234567901234567,0,0,0.06234567901234567,0,0)" xlink:href="#bF" id="as"/><path d="M126-127c33 6 58 20 58 59 0 88-139 92-164 29-3-8-5-16-6-25l32-3c6 27 21 44 54 44 32 0 52-15 52-46 0-38-36-46-79-43v-28c39 1 72-4 72-42 0-27-17-43-46-43-28 0-47 15-49 41l-32-3c6-42 35-63 81-64 48-1 79 21 79 65 0 36-21 52-52 59" id="bG"/><use transform="matrix(0.06234567901234567,0,0,0.06234567901234567,0,0)" xlink:href="#bG" id="at"/><path d="M101-251c68 0 85 55 85 127S166 4 100 4C33 4 14-52 14-124c0-73 17-127 87-127zm-1 229c47 0 54-49 54-102s-4-102-53-102c-51 0-55 48-55 102 0 53 5 102 54 102" id="bH"/><g id="au"><use transform="matrix(0.06234567901234567,0,0,0.06234567901234567,0,0)" xlink:href="#bm"/><use transform="matrix(0.06234567901234567,0,0,0.06234567901234567,12.469135802469133,0)" xlink:href="#bH"/></g><g id="av"><use transform="matrix(0.07407407407407408,0,0,0.07407407407407408,0,0)" xlink:href="#bo"/><use transform="matrix(0.07407407407407408,0,0,0.07407407407407408,22.148148148148152,0)" xlink:href="#aR"/><use transform="matrix(0.07407407407407408,0,0,0.07407407407407408,36.96296296296297,0)" xlink:href="#aU"/><use transform="matrix(0.07407407407407408,0,0,0.07407407407407408,44.37037037037039,0)" xlink:href="#aY"/><use transform="matrix(0.07407407407407408,0,0,0.07407407407407408,59.185185185185205,0)" xlink:href="#aP"/><use transform="matrix(0.07407407407407408,0,0,0.07407407407407408,74.00000000000001,0)" xlink:href="#aW"/><use transform="matrix(0.07407407407407408,0,0,0.07407407407407408,88.81481481481484,0)" xlink:href="#aX"/></g><g id="aw"><use transform="matrix(0.07407407407407408,0,0,0.07407407407407408,0,0)" xlink:href="#bA"/><use transform="matrix(0.07407407407407408,0,0,0.07407407407407408,19.185185185185187,0)" xlink:href="#aW"/><use transform="matrix(0.07407407407407408,0,0,0.07407407407407408,34,0)" xlink:href="#aQ"/><use transform="matrix(0.07407407407407408,0,0,0.07407407407407408,42.814814814814824,0)" xlink:href="#aR"/></g><path d="M16-82v-28h88v28H16" id="bI"/><g id="ax"><use transform="matrix(0.07407407407407408,0,0,0.07407407407407408,0,0)" xlink:href="#by"/><use transform="matrix(0.07407407407407408,0,0,0.07407407407407408,19.185185185185187,0)" xlink:href="#bf"/><use transform="matrix(0.07407407407407408,0,0,0.07407407407407408,32.51851851851852,0)" xlink:href="#aR"/><use transform="matrix(0.07407407407407408,0,0,0.07407407407407408,47.33333333333334,0)" xlink:href="#aQ"/><use transform="matrix(0.07407407407407408,0,0,0.07407407407407408,56.14814814814815,0)" xlink:href="#bI"/><use transform="matrix(0.07407407407407408,0,0,0.07407407407407408,64.96296296296296,0)" xlink:href="#aP"/><use transform="matrix(0.07407407407407408,0,0,0.07407407407407408,79.77777777777777,0)" xlink:href="#aR"/><use transform="matrix(0.07407407407407408,0,0,0.07407407407407408,94.5925925925926,0)" xlink:href="#aT"/><use transform="matrix(0.07407407407407408,0,0,0.07407407407407408,109.40740740740739,0)" xlink:href="#aR"/><use transform="matrix(0.07407407407407408,0,0,0.07407407407407408,124.2222222222222,0)" xlink:href="#aQ"/><use transform="matrix(0.07407407407407408,0,0,0.07407407407407408,133.037037037037,0)" xlink:href="#aY"/><use transform="matrix(0.07407407407407408,0,0,0.07407407407407408,147.85185185185182,0)" xlink:href="#aU"/><use transform="matrix(0.07407407407407408,0,0,0.07407407407407408,155.25925925925924,0)" xlink:href="#aR"/><use transform="matrix(0.07407407407407408,0,0,0.07407407407407408,170.07407407407408,0)" xlink:href="#bb"/></g><g id="ay"><use transform="matrix(0.07407407407407408,0,0,0.07407407407407408,0,0)" xlink:href="#aZ"/><use transform="matrix(0.07407407407407408,0,0,0.07407407407407408,13.333333333333336,0)" xlink:href="#aW"/><use transform="matrix(0.07407407407407408,0,0,0.07407407407407408,28.148148148148152,0)" xlink:href="#aT"/><use transform="matrix(0.07407407407407408,0,0,0.07407407407407408,42.96296296296297,0)" xlink:href="#aU"/><use transform="matrix(0.07407407407407408,0,0,0.07407407407407408,50.370370370370374,0)" xlink:href="#aR"/><use transform="matrix(0.07407407407407408,0,0,0.07407407407407408,65.18518518518519,0)" xlink:href="#aT"/><use transform="matrix(0.07407407407407408,0,0,0.07407407407407408,80,0)" xlink:href="#aU"/></g><g id="az"><use transform="matrix(0.07407407407407408,0,0,0.07407407407407408,0,0)" xlink:href="#bA"/><use transform="matrix(0.07407407407407408,0,0,0.07407407407407408,19.185185185185187,0)" xlink:href="#aW"/><use transform="matrix(0.07407407407407408,0,0,0.07407407407407408,34,0)" xlink:href="#aT"/><use transform="matrix(0.07407407407407408,0,0,0.07407407407407408,48.81481481481481,0)" xlink:href="#aU"/><use transform="matrix(0.07407407407407408,0,0,0.07407407407407408,56.22222222222223,0)" xlink:href="#aQ"/><use transform="matrix(0.07407407407407408,0,0,0.07407407407407408,65.03703703703704,0)" xlink:href="#aW"/><use transform="matrix(0.07407407407407408,0,0,0.07407407407407408,79.85185185185185,0)" xlink:href="#bj"/><use transform="matrix(0.07407407407407408,0,0,0.07407407407407408,85.7037037037037,0)" xlink:href="#bj"/><use transform="matrix(0.07407407407407408,0,0,0.07407407407407408,91.55555555555556,0)" xlink:href="#aR"/><use transform="matrix(0.07407407407407408,0,0,0.07407407407407408,106.37037037037035,0)" xlink:href="#bb"/></g><g id="aA"><use transform="matrix(0.07407407407407408,0,0,0.07407407407407408,0,0)" xlink:href="#bw"/><use transform="matrix(0.07407407407407408,0,0,0.07407407407407408,14.814814814814817,0)" xlink:href="#bs"/></g><g id="aB"><use transform="matrix(0.07407407407407408,0,0,0.07407407407407408,0,0)" xlink:href="#bd"/><use transform="matrix(0.07407407407407408,0,0,0.07407407407407408,14.814814814814817,0)" xlink:href="#bj"/><use transform="matrix(0.07407407407407408,0,0,0.07407407407407408,20.666666666666668,0)" xlink:href="#aY"/><use transform="matrix(0.07407407407407408,0,0,0.07407407407407408,35.48148148148149,0)" xlink:href="#aU"/><use transform="matrix(0.07407407407407408,0,0,0.07407407407407408,42.8888888888889,0)" xlink:href="#bh"/><use transform="matrix(0.07407407407407408,0,0,0.07407407407407408,50.296296296296305,0)" xlink:href="#aW"/><use transform="matrix(0.07407407407407408,0,0,0.07407407407407408,65.11111111111111,0)" xlink:href="#aQ"/><use transform="matrix(0.07407407407407408,0,0,0.07407407407407408,73.92592592592592,0)" xlink:href="#aS"/></g><g id="aC"><use transform="matrix(0.07407407407407408,0,0,0.07407407407407408,0,0)" xlink:href="#bp"/><use transform="matrix(0.07407407407407408,0,0,0.07407407407407408,17.77777777777778,0)" xlink:href="#aQ"/><use transform="matrix(0.07407407407407408,0,0,0.07407407407407408,26.592592592592595,0)" xlink:href="#aW"/><use transform="matrix(0.07407407407407408,0,0,0.07407407407407408,41.40740740740741,0)" xlink:href="#aU"/><use transform="matrix(0.07407407407407408,0,0,0.07407407407407408,48.814814814814824,0)" xlink:href="#aW"/><use transform="matrix(0.07407407407407408,0,0,0.07407407407407408,63.62962962962964,0)" xlink:href="#aZ"/><use transform="matrix(0.07407407407407408,0,0,0.07407407407407408,76.96296296296298,0)" xlink:href="#aW"/><use transform="matrix(0.07407407407407408,0,0,0.07407407407407408,91.7777777777778,0)" xlink:href="#bj"/></g><g id="aD"><use transform="matrix(0.07407407407407408,0,0,0.07407407407407408,0,0)" xlink:href="#bc"/><use transform="matrix(0.07407407407407408,0,0,0.07407407407407408,5.851851851851853,0)" xlink:href="#aT"/><use transform="matrix(0.07407407407407408,0,0,0.07407407407407408,20.666666666666668,0)" xlink:href="#aU"/><use transform="matrix(0.07407407407407408,0,0,0.07407407407407408,28.074074074074076,0)" xlink:href="#aR"/><use transform="matrix(0.07407407407407408,0,0,0.07407407407407408,42.8888888888889,0)" xlink:href="#aQ"/><use transform="matrix(0.07407407407407408,0,0,0.07407407407407408,51.70370370370372,0)" xlink:href="#aY"/><use transform="matrix(0.07407407407407408,0,0,0.07407407407407408,66.51851851851853,0)" xlink:href="#aZ"/><use transform="matrix(0.07407407407407408,0,0,0.07407407407407408,79.85185185185188,0)" xlink:href="#aU"/><use transform="matrix(0.07407407407407408,0,0,0.07407407407407408,87.25925925925928,0)" xlink:href="#bc"/><use transform="matrix(0.07407407407407408,0,0,0.07407407407407408,93.11111111111113,0)" xlink:href="#aW"/><use transform="matrix(0.07407407407407408,0,0,0.07407407407407408,107.92592592592595,0)" xlink:href="#aT"/></g><g id="aE"><use transform="matrix(0.07407407407407408,0,0,0.07407407407407408,0,0)" xlink:href="#bx"/><use transform="matrix(0.07407407407407408,0,0,0.07407407407407408,7.407407407407408,0)" xlink:href="#aT"/><use transform="matrix(0.07407407407407408,0,0,0.07407407407407408,22.222222222222225,0)" xlink:href="#aU"/><use transform="matrix(0.07407407407407408,0,0,0.07407407407407408,29.629629629629633,0)" xlink:href="#aR"/><use transform="matrix(0.07407407407407408,0,0,0.07407407407407408,44.44444444444445,0)" xlink:href="#aQ"/><use transform="matrix(0.07407407407407408,0,0,0.07407407407407408,53.25925925925927,0)" xlink:href="#aY"/><use transform="matrix(0.07407407407407408,0,0,0.07407407407407408,68.07407407407408,0)" xlink:href="#aZ"/><use transform="matrix(0.07407407407407408,0,0,0.07407407407407408,81.40740740740742,0)" xlink:href="#aU"/><use transform="matrix(0.07407407407407408,0,0,0.07407407407407408,88.81481481481482,0)" xlink:href="#bc"/><use transform="matrix(0.07407407407407408,0,0,0.07407407407407408,94.66666666666669,0)" xlink:href="#aW"/><use transform="matrix(0.07407407407407408,0,0,0.07407407407407408,109.4814814814815,0)" xlink:href="#aT"/></g><g id="aF"><use transform="matrix(0.07407407407407408,0,0,0.07407407407407408,0,0)" xlink:href="#by"/><use transform="matrix(0.07407407407407408,0,0,0.07407407407407408,19.185185185185187,0)" xlink:href="#bf"/><use transform="matrix(0.07407407407407408,0,0,0.07407407407407408,32.51851851851852,0)" xlink:href="#aR"/><use transform="matrix(0.07407407407407408,0,0,0.07407407407407408,47.33333333333334,0)" xlink:href="#aQ"/></g><g id="aG"><use transform="matrix(0.07407407407407408,0,0,0.07407407407407408,0,0)" xlink:href="#bk"/><use transform="matrix(0.07407407407407408,0,0,0.07407407407407408,17.77777777777778,0)" xlink:href="#aU"/><use transform="matrix(0.07407407407407408,0,0,0.07407407407407408,25.185185185185187,0)" xlink:href="#aY"/><use transform="matrix(0.07407407407407408,0,0,0.07407407407407408,40,0)" xlink:href="#aQ"/><use transform="matrix(0.07407407407407408,0,0,0.07407407407407408,48.81481481481481,0)" xlink:href="#aU"/><use transform="matrix(0.07407407407407408,0,0,0.07407407407407408,56.22222222222223,0)" xlink:href="#bf"/></g><path d="M197 0v-115H63V0H30v-248h33v105h134v-105h34V0h-34" id="bJ"/><g id="aH"><use transform="matrix(0.07407407407407408,0,0,0.07407407407407408,0,0)" xlink:href="#bJ"/><use transform="matrix(0.07407407407407408,0,0,0.07407407407407408,19.185185185185187,0)" xlink:href="#aR"/><use transform="matrix(0.07407407407407408,0,0,0.07407407407407408,34,0)" xlink:href="#aQ"/><use transform="matrix(0.07407407407407408,0,0,0.07407407407407408,42.814814814814824,0)" xlink:href="#aR"/></g><path d="M160-131c35 5 61 23 61 61C221 17 115-2 30 0v-248c76 3 177-17 177 60 0 33-19 50-47 57zm-97-11c50-1 110 9 110-42 0-47-63-36-110-37v79zm0 115c55-2 124 14 124-45 0-56-70-42-124-44v89" id="bK"/><g id="aI"><use transform="matrix(0.07407407407407408,0,0,0.07407407407407408,0,0)" xlink:href="#bK"/><use transform="matrix(0.07407407407407408,0,0,0.07407407407407408,17.77777777777778,0)" xlink:href="#be"/><use transform="matrix(0.07407407407407408,0,0,0.07407407407407408,32.592592592592595,0)" xlink:href="#bc"/><use transform="matrix(0.07407407407407408,0,0,0.07407407407407408,38.44444444444445,0)" xlink:href="#bj"/><use transform="matrix(0.07407407407407408,0,0,0.07407407407407408,44.296296296296305,0)" xlink:href="#bb"/></g><g id="aJ"><use transform="matrix(0.07407407407407408,0,0,0.07407407407407408,0,0)" xlink:href="#bd"/><use transform="matrix(0.07407407407407408,0,0,0.07407407407407408,14.814814814814817,0)" xlink:href="#aQ"/><use transform="matrix(0.07407407407407408,0,0,0.07407407407407408,23.629629629629633,0)" xlink:href="#bc"/><use transform="matrix(0.07407407407407408,0,0,0.07407407407407408,29.481481481481488,0)" xlink:href="#aW"/><use transform="matrix(0.07407407407407408,0,0,0.07407407407407408,44.296296296296305,0)" xlink:href="#aQ"/><use transform="matrix(0.07407407407407408,0,0,0.07407407407407408,53.11111111111112,0)" xlink:href="#bc"/><use transform="matrix(0.07407407407407408,0,0,0.07407407407407408,58.962962962962976,0)" xlink:href="#aU"/><use transform="matrix(0.07407407407407408,0,0,0.07407407407407408,66.37037037037038,0)" xlink:href="#bs"/></g><path d="M101-251c82-7 93 87 43 132L82-64C71-53 59-42 53-27h129V0H18c2-99 128-94 128-182 0-28-16-43-45-43s-46 15-49 41l-32-3c6-41 34-60 81-64" id="bL"/><use transform="matrix(0.06234567901234567,0,0,0.06234567901234567,0,0)" xlink:href="#bL" id="aK"/><g id="aL"><use transform="matrix(0.07407407407407408,0,0,0.07407407407407408,0,0)" xlink:href="#bg"/><use transform="matrix(0.07407407407407408,0,0,0.07407407407407408,19.185185185185187,0)" xlink:href="#aR"/><use transform="matrix(0.07407407407407408,0,0,0.07407407407407408,34,0)" xlink:href="#aX"/><use transform="matrix(0.07407407407407408,0,0,0.07407407407407408,47.33333333333334,0)" xlink:href="#aR"/><use transform="matrix(0.07407407407407408,0,0,0.07407407407407408,62.14814814814816,0)" xlink:href="#bj"/><use transform="matrix(0.07407407407407408,0,0,0.07407407407407408,68,0)" xlink:href="#aW"/><use transform="matrix(0.07407407407407408,0,0,0.07407407407407408,82.81481481481481,0)" xlink:href="#bd"/><use transform="matrix(0.07407407407407408,0,0,0.07407407407407408,97.62962962962962,0)" xlink:href="#aR"/><use transform="matrix(0.07407407407407408,0,0,0.07407407407407408,112.44444444444443,0)" xlink:href="#aQ"/></g><g id="aM"><use transform="matrix(0.07407407407407408,0,0,0.07407407407407408,0,0)" xlink:href="#bk"/><use transform="matrix(0.07407407407407408,0,0,0.07407407407407408,17.77777777777778,0)" xlink:href="#aU"/><use transform="matrix(0.07407407407407408,0,0,0.07407407407407408,25.185185185185187,0)" xlink:href="#aY"/><use transform="matrix(0.07407407407407408,0,0,0.07407407407407408,40,0)" xlink:href="#aQ"/><use transform="matrix(0.07407407407407408,0,0,0.07407407407407408,48.81481481481481,0)" xlink:href="#aU"/><use transform="matrix(0.07407407407407408,0,0,0.07407407407407408,56.22222222222223,0)" xlink:href="#bf"/></g><g id="aN"><use transform="matrix(0.07407407407407408,0,0,0.07407407407407408,0,0)" xlink:href="#bJ"/><use transform="matrix(0.07407407407407408,0,0,0.07407407407407408,19.185185185185187,0)" xlink:href="#aR"/><use transform="matrix(0.07407407407407408,0,0,0.07407407407407408,34,0)" xlink:href="#aQ"/><use transform="matrix(0.07407407407407408,0,0,0.07407407407407408,42.814814814814824,0)" xlink:href="#aR"/></g></defs></g></svg>