<svg xmlns="http://www.w3.org/2000/svg" xmlns:xlink="http://www.w3.org/1999/xlink" xmlns:lucid="lucid" width="1660" height="900"><g transform="translate(-40 -180)" lucid:page-tab-id="0_0"><path d="M60 380h365v680H60z" stroke="#000" stroke-width="2" fill-opacity="0"/><path d="M80 583h320v197H80z" stroke="#000" stroke-width="2" fill="#f9d2de"/><path d="M780 600h160v160H780z" stroke="#000" stroke-width="2" fill="#ffdba9"/><use xlink:href="#a" transform="matrix(1,0,0,1,785,605) translate(9.34629629629633 82.4486111111111)"/><path d="M500 300h200v520h265v240H500z" fill-opacity="0"/><path d="M501 300c0 .55-.45 1-1 1s-1-.45-1-1 .45-1 1-1 1 .45 1 1zm8 0c0 .55-.45 1-1 1s-1-.45-1-1 .45-1 1-1 1 .45 1 1zm8 0c0 .55-.45 1-1 1s-1-.45-1-1 .45-1 1-1 1 .45 1 1zm8 0c0 .55-.45 1-1 1s-1-.45-1-1 .45-1 1-1 1 .45 1 1zm8 0c0 .55-.45 1-1 1s-1-.45-1-1 .45-1 1-1 1 .45 1 1zm8 0c0 .55-.45 1-1 1s-1-.45-1-1 .45-1 1-1 1 .45 1 1zm8 0c0 .55-.45 1-1 1s-1-.45-1-1 .45-1 1-1 1 .45 1 1zm8 0c0 .55-.45 1-1 1s-1-.45-1-1 .45-1 1-1 1 .45 1 1zm8 0c0 .55-.45 1-1 1s-1-.45-1-1 .45-1 1-1 1 .45 1 1zm8 0c0 .55-.45 1-1 1s-1-.45-1-1 .45-1 1-1 1 .45 1 1zm8 0c0 .55-.45 1-1 1s-1-.45-1-1 .45-1 1-1 1 .45 1 1zm8 0c0 .55-.45 1-1 1s-1-.45-1-1 .45-1 1-1 1 .45 1 1zm8 0c0 .55-.45 1-1 1s-1-.45-1-1 .45-1 1-1 1 .45 1 1zm8 0c0 .55-.45 1-1 1s-1-.45-1-1 .45-1 1-1 1 .45 1 1zm8 0c0 .55-.45 1-1 1s-1-.45-1-1 .45-1 1-1 1 .45 1 1zm8 0c0 .55-.45 1-1 1s-1-.45-1-1 .45-1 1-1 1 .45 1 1zm8 0c0 .55-.45 1-1 1s-1-.45-1-1 .45-1 1-1 1 .45 1 1zm8 0c0 .55-.45 1-1 1s-1-.45-1-1 .45-1 1-1 1 .45 1 1zm8 0c0 .55-.45 1-1 1s-1-.45-1-1 .45-1 1-1 1 .45 1 1zm8 0c0 .55-.45 1-1 1s-1-.45-1-1 .45-1 1-1 1 .45 1 1zm8 0c0 .55-.45 1-1 1s-1-.45-1-1 .45-1 1-1 1 .45 1 1zm8 0c0 .55-.45 1-1 1s-1-.45-1-1 .45-1 1-1 1 .45 1 1zm8 0c0 .55-.45 1-1 1s-1-.45-1-1 .45-1 1-1 1 .45 1 1zm8 0c0 .55-.45 1-1 1s-1-.45-1-1 .45-1 1-1 1 .45 1 1zm8 0c0 .55-.45 1-1 1s-1-.45-1-1 .45-1 1-1 1 .45 1 1zm8 0c0 .55-.45 1-1 1s-1-.45-1-1 .45-1 1-1 1 .45 1 1zm0 8c0 .55-.45 1-1 1s-1-.45-1-1 .45-1 1-1 1 .45 1 1zm0 8c0 .55-.45 1-1 1s-1-.45-1-1 .45-1 1-1 1 .45 1 1zm0 8c0 .55-.45 1-1 1s-1-.45-1-1 .45-1 1-1 1 .45 1 1zm0 8c0 .55-.45 1-1 1s-1-.45-1-1 .45-1 1-1 1 .45 1 1zm0 8c0 .55-.45 1-1 1s-1-.45-1-1 .45-1 1-1 1 .45 1 1zm0 8c0 .55-.45 1-1 1s-1-.45-1-1 .45-1 1-1 1 .45 1 1zm0 8c0 .55-.45 1-1 1s-1-.45-1-1 .45-1 1-1 1 .45 1 1zm0 8c0 .55-.45 1-1 1s-1-.45-1-1 .45-1 1-1 1 .45 1 1zm0 8c0 .55-.45 1-1 1s-1-.45-1-1 .45-1 1-1 1 .45 1 1zm0 8c0 .55-.45 1-1 1s-1-.45-1-1 .45-1 1-1 1 .45 1 1zm0 8c0 .55-.45 1-1 1s-1-.45-1-1 .45-1 1-1 1 .45 1 1zm0 8c0 .55-.45 1-1 1s-1-.45-1-1 .45-1 1-1 1 .45 1 1zm0 8c0 .55-.45 1-1 1s-1-.45-1-1 .45-1 1-1 1 .45 1 1zm0 8c0 .55-.45 1-1 1s-1-.45-1-1 .45-1 1-1 1 .45 1 1zm0 8c0 .55-.45 1-1 1s-1-.45-1-1 .45-1 1-1 1 .45 1 1zm0 8c0 .55-.45 1-1 1s-1-.45-1-1 .45-1 1-1 1 .45 1 1zm0 8c0 .55-.45 1-1 1s-1-.45-1-1 .45-1 1-1 1 .45 1 1zm0 8c0 .55-.45 1-1 1s-1-.45-1-1 .45-1 1-1 1 .45 1 1zm0 8c0 .55-.45 1-1 1s-1-.45-1-1 .45-1 1-1 1 .45 1 1zm0 8c0 .55-.45 1-1 1s-1-.45-1-1 .45-1 1-1 1 .45 1 1zm0 8c0 .55-.45 1-1 1s-1-.45-1-1 .45-1 1-1 1 .45 1 1zm0 8c0 .55-.45 1-1 1s-1-.45-1-1 .45-1 1-1 1 .45 1 1zm0 8c0 .55-.45 1-1 1s-1-.45-1-1 .45-1 1-1 1 .45 1 1zm0 8c0 .55-.45 1-1 1s-1-.45-1-1 .45-1 1-1 1 .45 1 1zm0 8c0 .55-.45 1-1 1s-1-.45-1-1 .45-1 1-1 1 .45 1 1zm0 8c0 .55-.45 1-1 1s-1-.45-1-1 .45-1 1-1 1 .45 1 1zm0 8c0 .55-.45 1-1 1s-1-.45-1-1 .45-1 1-1 1 .45 1 1zm0 8c0 .55-.45 1-1 1s-1-.45-1-1 .45-1 1-1 1 .45 1 1zm0 8c0 .55-.45 1-1 1s-1-.45-1-1 .45-1 1-1 1 .45 1 1zm0 8c0 .55-.45 1-1 1s-1-.45-1-1 .45-1 1-1 1 .45 1 1zm0 8c0 .55-.45 1-1 1s-1-.45-1-1 .45-1 1-1 1 .45 1 1zm0 8c0 .55-.45 1-1 1s-1-.45-1-1 .45-1 1-1 1 .45 1 1zm0 8c0 .55-.45 1-1 1s-1-.45-1-1 .45-1 1-1 1 .45 1 1zm0 8c0 .55-.45 1-1 1s-1-.45-1-1 .45-1 1-1 1 .45 1 1zm0 8c0 .55-.45 1-1 1s-1-.45-1-1 .45-1 1-1 1 .45 1 1zm0 8c0 .55-.45 1-1 1s-1-.45-1-1 .45-1 1-1 1 .45 1 1zm0 8c0 .55-.45 1-1 1s-1-.45-1-1 .45-1 1-1 1 .45 1 1zm0 8c0 .55-.45 1-1 1s-1-.45-1-1 .45-1 1-1 1 .45 1 1zm0 8c0 .55-.45 1-1 1s-1-.45-1-1 .45-1 1-1 1 .45 1 1zm0 8c0 .55-.45 1-1 1s-1-.45-1-1 .45-1 1-1 1 .45 1 1zm0 8c0 .55-.45 1-1 1s-1-.45-1-1 .45-1 1-1 1 .45 1 1zm0 8c0 .55-.45 1-1 1s-1-.45-1-1 .45-1 1-1 1 .45 1 1zm0 8c0 .55-.45 1-1 1s-1-.45-1-1 .45-1 1-1 1 .45 1 1zm0 8c0 .55-.45 1-1 1s-1-.45-1-1 .45-1 1-1 1 .45 1 1zm0 8c0 .55-.45 1-1 1s-1-.45-1-1 .45-1 1-1 1 .45 1 1zm0 8c0 .55-.45 1-1 1s-1-.45-1-1 .45-1 1-1 1 .45 1 1zm0 8c0 .55-.45 1-1 1s-1-.45-1-1 .45-1 1-1 1 .45 1 1zm0 8c0 .55-.45 1-1 1s-1-.45-1-1 .45-1 1-1 1 .45 1 1zm0 8c0 .55-.45 1-1 1s-1-.45-1-1 .45-1 1-1 1 .45 1 1zm0 8c0 .55-.45 1-1 1s-1-.45-1-1 .45-1 1-1 1 .45 1 1zm0 8c0 .55-.45 1-1 1s-1-.45-1-1 .45-1 1-1 1 .45 1 1zm0 8c0 .55-.45 1-1 1s-1-.45-1-1 .45-1 1-1 1 .45 1 1zm0 8c0 .55-.45 1-1 1s-1-.45-1-1 .45-1 1-1 1 .45 1 1zm0 8c0 .55-.45 1-1 1s-1-.45-1-1 .45-1 1-1 1 .45 1 1zm0 8c0 .55-.45 1-1 1s-1-.45-1-1 .45-1 1-1 1 .45 1 1zm0 8c0 .55-.45 1-1 1s-1-.45-1-1 .45-1 1-1 1 .45 1 1zm0 8c0 .55-.45 1-1 1s-1-.45-1-1 .45-1 1-1 1 .45 1 1zm0 8c0 .55-.45 1-1 1s-1-.45-1-1 .45-1 1-1 1 .45 1 1zm0 8c0 .55-.45 1-1 1s-1-.45-1-1 .45-1 1-1 1 .45 1 1zm0 8c0 .55-.45 1-1 1s-1-.45-1-1 .45-1 1-1 1 .45 1 1zm0 8c0 .55-.45 1-1 1s-1-.45-1-1 .45-1 1-1 1 .45 1 1zm0 8c0 .55-.45 1-1 1s-1-.45-1-1 .45-1 1-1 1 .45 1 1zm0 8c0 .55-.45 1-1 1s-1-.45-1-1 .45-1 1-1 1 .45 1 1zm0 8c0 .55-.45 1-1 1s-1-.45-1-1 .45-1 1-1 1 .45 1 1zm0 8c0 .55-.45 1-1 1s-1-.45-1-1 .45-1 1-1 1 .45 1 1zm8.03 0c0 .55-.45 1-1 1s-1-.45-1-1 .45-1 1-1 1 .45 1 1zm8.03 0c0 .55-.45 1-1 1s-1-.45-1-1 .45-1 1-1 1 .45 1 1zm8.03 0c0 .55-.46 1-1 1-.56 0-1-.45-1-1s.44-1 1-1c.54 0 1 .45 1 1zm8.02 0c0 .55-.45 1-1 1s-1-.45-1-1 .45-1 1-1 1 .45 1 1zm8.03 0c0 .55-.45 1-1 1s-1-.45-1-1 .45-1 1-1 1 .45 1 1zm8.03 0c0 .55-.45 1-1 1s-1-.45-1-1 .45-1 1-1 1 .45 1 1zm8.03 0c0 .55-.44 1-1 1-.54 0-1-.45-1-1s.46-1 1-1c.56 0 1 .45 1 1zm8.04 0c0 .55-.45 1-1 1s-1-.45-1-1 .45-1 1-1 1 .45 1 1zm8.03 0c0 .55-.44 1-1 1-.55 0-1-.45-1-1s.45-1 1-1c.56 0 1 .45 1 1zm8.03 0c0 .55-.44 1-1 1-.55 0-1-.45-1-1s.45-1 1-1c.56 0 1 .45 1 1zm8.03 0c0 .55-.44 1-1 1-.55 0-1-.45-1-1s.45-1 1-1c.56 0 1 .45 1 1zm8.03 0c0 .55-.44 1-1 1-.55 0-1-.45-1-1s.45-1 1-1c.56 0 1 .45 1 1zm8.03 0c0 .55-.45 1-1 1-.56 0-1-.45-1-1s.44-1 1-1c.55 0 1 .45 1 1zm8.02 0c0 .55-.44 1-1 1-.55 0-1-.45-1-1s.45-1 1-1c.56 0 1 .45 1 1zm8.03 0c0 .55-.44 1-1 1-.55 0-1-.45-1-1s.45-1 1-1c.56 0 1 .45 1 1zm8.03 0c0 .55-.44 1-1 1-.55 0-1-.45-1-1s.45-1 1-1c.56 0 1 .45 1 1zm8.04 0c0 .55-.45 1-1 1-.56 0-1-.45-1-1s.44-1 1-1c.55 0 1 .45 1 1zm8.03 0c0 .55-.45 1-1 1-.56 0-1-.45-1-1s.44-1 1-1c.55 0 1 .45 1 1zm8.03 0c0 .55-.45 1-1 1-.56 0-1-.45-1-1s.44-1 1-1c.55 0 1 .45 1 1zm8.03 0c0 .55-.44 1-1 1-.55 0-1-.45-1-1s.45-1 1-1c.56 0 1 .45 1 1zm8.04 0c0 .55-.45 1-1 1-.56 0-1-.45-1-1s.44-1 1-1c.55 0 1 .45 1 1zm8.03 0c0 .55-.45 1-1 1-.56 0-1-.45-1-1s.44-1 1-1c.55 0 1 .45 1 1zm8.03 0c0 .55-.45 1-1 1-.56 0-1-.45-1-1s.44-1 1-1c.55 0 1 .45 1 1zm8.03 0c0 .55-.45 1-1 1-.56 0-1-.45-1-1s.44-1 1-1c.55 0 1 .45 1 1zm8.03 0c0 .55-.45 1-1 1s-1-.45-1-1 .45-1 1-1 1 .45 1 1zm8.03 0c0 .55-.46 1-1 1-.56 0-1-.45-1-1s.44-1 1-1c.54 0 1 .45 1 1zm8.02 0c0 .55-.45 1-1 1s-1-.45-1-1 .45-1 1-1 1 .45 1 1zm8.03 0c0 .55-.45 1-1 1s-1-.45-1-1 .45-1 1-1 1 .45 1 1zm8.03 0c0 .55-.45 1-1 1s-1-.45-1-1 .45-1 1-1 1 .45 1 1zm8.03 0c0 .55-.44 1-1 1-.54 0-1-.45-1-1s.46-1 1-1c.56 0 1 .45 1 1zm8.04 0c0 .55-.45 1-1 1s-1-.45-1-1 .45-1 1-1 1 .45 1 1zm8.03 0c0 .55-.45 1-1 1s-1-.45-1-1 .45-1 1-1 1 .45 1 1zm8.03 0c0 .55-.45 1-1 1s-1-.45-1-1 .45-1 1-1 1 .45 1 1zm0 8c0 .55-.45 1-1 1s-1-.45-1-1 .45-1 1-1 1 .45 1 1zm0 8c0 .55-.45 1-1 1s-1-.45-1-1 .45-1 1-1 1 .45 1 1zm0 8c0 .55-.45 1-1 1s-1-.45-1-1 .45-1 1-1 1 .45 1 1zm0 8c0 .55-.45 1-1 1s-1-.45-1-1 .45-1 1-1 1 .45 1 1zm0 8c0 .55-.45 1-1 1s-1-.45-1-1 .45-1 1-1 1 .45 1 1zm0 8c0 .55-.45 1-1 1s-1-.45-1-1 .45-1 1-1 1 .45 1 1zm0 8c0 .55-.45 1-1 1s-1-.45-1-1 .45-1 1-1 1 .45 1 1zm0 8c0 .55-.45 1-1 1s-1-.45-1-1 .45-1 1-1 1 .45 1 1zm0 8c0 .55-.45 1-1 1s-1-.45-1-1 .45-1 1-1 1 .45 1 1zm0 8c0 .55-.45 1-1 1s-1-.45-1-1 .45-1 1-1 1 .45 1 1zm0 8c0 .55-.45 1-1 1s-1-.45-1-1 .45-1 1-1 1 .45 1 1zm0 8c0 .55-.45 1-1 1s-1-.45-1-1 .45-1 1-1 1 .45 1 1zm0 8c0 .55-.45 1-1 1s-1-.45-1-1 .45-1 1-1 1 .45 1 1zm0 8c0 .55-.45 1-1 1s-1-.45-1-1 .45-1 1-1 1 .45 1 1zm0 8c0 .55-.45 1-1 1s-1-.45-1-1 .45-1 1-1 1 .45 1 1zm0 8c0 .55-.45 1-1 1s-1-.45-1-1 .45-1 1-1 1 .45 1 1zm0 8c0 .55-.45 1-1 1s-1-.45-1-1 .45-1 1-1 1 .45 1 1zm0 8c0 .55-.45 1-1 1s-1-.45-1-1 .45-1 1-1 1 .45 1 1zm0 8c0 .55-.45 1-1 1s-1-.45-1-1 .45-1 1-1 1 .45 1 1zm0 8c0 .55-.45 1-1 1s-1-.45-1-1 .45-1 1-1 1 .45 1 1zm0 8c0 .55-.45 1-1 1s-1-.45-1-1 .45-1 1-1 1 .45 1 1zm0 8c0 .55-.45 1-1 1s-1-.45-1-1 .45-1 1-1 1 .45 1 1zm0 8c0 .55-.45 1-1 1s-1-.45-1-1 .45-1 1-1 1 .45 1 1zm0 8c0 .55-.45 1-1 1s-1-.45-1-1 .45-1 1-1 1 .45 1 1zm0 8c0 .55-.45 1-1 1s-1-.45-1-1 .45-1 1-1 1 .45 1 1zm0 8c0 .55-.45 1-1 1s-1-.45-1-1 .45-1 1-1 1 .45 1 1zm0 8c0 .55-.45 1-1 1s-1-.45-1-1 .45-1 1-1 1 .45 1 1zm0 8c0 .55-.45 1-1 1s-1-.45-1-1 .45-1 1-1 1 .45 1 1zm0 8c0 .55-.45 1-1 1s-1-.45-1-1 .45-1 1-1 1 .45 1 1zm0 8c0 .55-.45 1-1 1s-1-.45-1-1 .45-1 1-1 1 .45 1 1zm-8.1 0c0 .55-.45 1-1 1-.56 0-1-.45-1-1s.44-1 1-1c.55 0 1 .45 1 1zm-8.1 0c0 .55-.45 1-1 1-.56 0-1-.45-1-1s.44-1 1-1c.55 0 1 .45 1 1zm-8.1 0c0 .55-.46 1-1 1-.56 0-1-.45-1-1s.44-1 1-1c.54 0 1 .45 1 1zm-8.1 0c0 .55-.46 1-1 1-.56 0-1-.45-1-1s.44-1 1-1c.54 0 1 .45 1 1zm-8.1 0c0 .55-.46 1-1 1-.57 0-1-.45-1-1s.43-1 1-1c.54 0 1 .45 1 1zm-8.12 0c0 .55-.45 1-1 1s-1-.45-1-1 .45-1 1-1 1 .45 1 1zm-8.1 0c0 .55-.45 1-1 1s-1-.45-1-1 .45-1 1-1 1 .45 1 1zm-8.1 0c0 .55-.45 1-1 1-.56 0-1-.45-1-1s.44-1 1-1c.55 0 1 .45 1 1zm-8.1 0c0 .55-.45 1-1 1-.56 0-1-.45-1-1s.44-1 1-1c.55 0 1 .45 1 1zm-8.1 0c0 .55-.46 1-1 1-.56 0-1-.45-1-1s.44-1 1-1c.54 0 1 .45 1 1zm-8.1 0c0 .55-.46 1-1 1-.57 0-1-.45-1-1s.43-1 1-1c.54 0 1 .45 1 1zm-8.12 0c0 .55-.44 1-1 1-.55 0-1-.45-1-1s.45-1 1-1c.56 0 1 .45 1 1zm-8.1 0c0 .55-.45 1-1 1s-1-.45-1-1 .45-1 1-1 1 .45 1 1zm-8.1 0c0 .55-.45 1-1 1s-1-.45-1-1 .45-1 1-1 1 .45 1 1zm-8.1 0c0 .55-.45 1-1 1-.56 0-1-.45-1-1s.44-1 1-1c.55 0 1 .45 1 1zm-8.1 0c0 .55-.46 1-1 1-.56 0-1-.45-1-1s.44-1 1-1c.54 0 1 .45 1 1zm-8.1 0c0 .55-.46 1-1 1-.56 0-1-.45-1-1s.44-1 1-1c.54 0 1 .45 1 1zm-8.1 0c0 .55-.46 1-1 1-.57 0-1-.45-1-1s.43-1 1-1c.54 0 1 .45 1 1zm-8.12 0c0 .55-.44 1-1 1-.55 0-1-.45-1-1s.45-1 1-1c.56 0 1 .45 1 1zm-8.1 0c0 .55-.45 1-1 1s-1-.45-1-1 .45-1 1-1 1 .45 1 1zm-8.1 0c0 .55-.45 1-1 1-.56 0-1-.45-1-1s.44-1 1-1c.55 0 1 .45 1 1zm-8.1 0c0 .55-.45 1-1 1-.56 0-1-.45-1-1s.44-1 1-1c.55 0 1 .45 1 1zm-8.1 0c0 .55-.46 1-1 1-.56 0-1-.45-1-1s.44-1 1-1c.54 0 1 .45 1 1zm-8.1 0c0 .55-.46 1-1 1-.56 0-1-.45-1-1s.44-1 1-1c.54 0 1 .45 1 1zm-8.1 0c0 .55-.46 1-1 1-.57 0-1-.45-1-1s.43-1 1-1c.54 0 1 .45 1 1zm-8.12 0c0 .55-.45 1-1 1s-1-.45-1-1 .45-1 1-1 1 .45 1 1zm-8.1 0c0 .55-.45 1-1 1s-1-.45-1-1 .45-1 1-1 1 .45 1 1zm-8.1 0c0 .55-.45 1-1 1-.56 0-1-.45-1-1s.44-1 1-1c.55 0 1 .45 1 1zm-8.1 0c0 .55-.45 1-1 1-.56 0-1-.45-1-1s.44-1 1-1c.55 0 1 .45 1 1zm-8.1 0c0 .55-.46 1-1 1-.56 0-1-.45-1-1s.44-1 1-1c.54 0 1 .45 1 1zm-8.1 0c0 .55-.46 1-1 1-.56 0-1-.45-1-1s.44-1 1-1c.54 0 1 .45 1 1zm-8.12 0c0 .55-.44 1-1 1-.55 0-1-.45-1-1s.45-1 1-1c.56 0 1 .45 1 1zm-8.1 0c0 .55-.45 1-1 1s-1-.45-1-1 .45-1 1-1 1 .45 1 1zm-8.1 0c0 .55-.45 1-1 1s-1-.45-1-1 .45-1 1-1 1 .45 1 1zm-8.1 0c0 .55-.45 1-1 1-.56 0-1-.45-1-1s.44-1 1-1c.55 0 1 .45 1 1zm-7.9 0c0 .55-.44 1-1 1-.54 0-1-.45-1-1s.46-1 1-1c.56 0 1 .45 1 1zm-7.88 0c0 .55-.45 1-1 1s-1-.45-1-1 .45-1 1-1 1 .45 1 1zm-7.88 0c0 .55-.45 1-1 1-.56 0-1-.45-1-1s.44-1 1-1c.55 0 1 .45 1 1zm-7.9 0c0 .55-.44 1-1 1-.54 0-1-.45-1-1s.46-1 1-1c.56 0 1 .45 1 1zm-7.88 0c0 .55-.45 1-1 1s-1-.45-1-1 .45-1 1-1 1 .45 1 1zm-7.9 0c0 .55-.43 1-1 1-.54 0-1-.45-1-1s.46-1 1-1c.57 0 1 .45 1 1zm-7.87 0c0 .55-.46 1-1 1-.56 0-1-.45-1-1s.44-1 1-1c.54 0 1 .45 1 1zm-7.9 0c0 .55-.45 1-1 1s-1-.45-1-1 .45-1 1-1 1 .45 1 1zm-7.9 0c0 .55-.43 1-1 1-.54 0-1-.45-1-1s.46-1 1-1c.57 0 1 .45 1 1zm-7.87 0c0 .55-.45 1-1 1s-1-.45-1-1 .45-1 1-1 1 .45 1 1zm-7.9 0c0 .55-.44 1-1 1-.54 0-1-.45-1-1s.46-1 1-1c.56 0 1 .45 1 1zm-7.88 0c0 .55-.44 1-1 1-.55 0-1-.45-1-1s.45-1 1-1c.56 0 1 .45 1 1zm-7.88 0c0 .55-.45 1-1 1s-1-.45-1-1 .45-1 1-1 1 .45 1 1zm-7.9 0c0 .55-.44 1-1 1-.54 0-1-.45-1-1s.46-1 1-1c.56 0 1 .45 1 1zm-7.88 0c0 .55-.45 1-1 1-.56 0-1-.45-1-1s.44-1 1-1c.55 0 1 .45 1 1zm-7.9 0c0 .55-.44 1-1 1-.55 0-1-.45-1-1s.45-1 1-1c.56 0 1 .45 1 1zm-7.88 0c0 .55-.45 1-1 1s-1-.45-1-1 .45-1 1-1 1 .45 1 1zm-7.9 0c0 .55-.43 1-1 1-.54 0-1-.45-1-1s.46-1 1-1c.57 0 1 .45 1 1zm-7.87 0c0 .55-.45 1-1 1-.56 0-1-.45-1-1s.44-1 1-1c.55 0 1 .45 1 1zm-7.9 0c0 .55-.44 1-1 1-.54 0-1-.45-1-1s.46-1 1-1c.56 0 1 .45 1 1zm-7.88 0c0 .55-.44 1-1 1-.55 0-1-.45-1-1s.45-1 1-1c.56 0 1 .45 1 1zm-7.88 0c0 .55-.46 1-1 1-.57 0-1-.45-1-1s.43-1 1-1c.54 0 1 .45 1 1zm-7.9 0c0 .55-.45 1-1 1s-1-.45-1-1 .45-1 1-1 1 .45 1 1zm0-8c0 .55-.45 1-1 1s-1-.45-1-1 .45-1 1-1 1 .45 1 1zm0-8c0 .55-.45 1-1 1s-1-.45-1-1 .45-1 1-1 1 .45 1 1zm0-8c0 .55-.45 1-1 1s-1-.45-1-1 .45-1 1-1 1 .45 1 1zm0-8c0 .55-.45 1-1 1s-1-.45-1-1 .45-1 1-1 1 .45 1 1zm0-8c0 .55-.45 1-1 1s-1-.45-1-1 .45-1 1-1 1 .45 1 1zm0-8c0 .55-.45 1-1 1s-1-.45-1-1 .45-1 1-1 1 .45 1 1zm0-8c0 .55-.45 1-1 1s-1-.45-1-1 .45-1 1-1 1 .45 1 1zm0-8c0 .55-.45 1-1 1s-1-.45-1-1 .45-1 1-1 1 .45 1 1zm0-8c0 .55-.45 1-1 1s-1-.45-1-1 .45-1 1-1 1 .45 1 1zm0-8c0 .55-.45 1-1 1s-1-.45-1-1 .45-1 1-1 1 .45 1 1zm0-8c0 .55-.45 1-1 1s-1-.45-1-1 .45-1 1-1 1 .45 1 1zm0-8c0 .55-.45 1-1 1s-1-.45-1-1 .45-1 1-1 1 .45 1 1zm0-8c0 .55-.45 1-1 1s-1-.45-1-1 .45-1 1-1 1 .45 1 1zm0-8c0 .55-.45 1-1 1s-1-.45-1-1 .45-1 1-1 1 .45 1 1zm0-8c0 .55-.45 1-1 1s-1-.45-1-1 .45-1 1-1 1 .45 1 1zm0-8c0 .55-.45 1-1 1s-1-.45-1-1 .45-1 1-1 1 .45 1 1zm0-8c0 .55-.45 1-1 1s-1-.45-1-1 .45-1 1-1 1 .45 1 1zm0-8c0 .55-.45 1-1 1s-1-.45-1-1 .45-1 1-1 1 .45 1 1zm0-8c0 .55-.45 1-1 1s-1-.45-1-1 .45-1 1-1 1 .45 1 1zm0-8c0 .55-.45 1-1 1s-1-.45-1-1 .45-1 1-1 1 .45 1 1zm0-8c0 .55-.45 1-1 1s-1-.45-1-1 .45-1 1-1 1 .45 1 1zm0-8c0 .55-.45 1-1 1s-1-.45-1-1 .45-1 1-1 1 .45 1 1zm0-8c0 .55-.45 1-1 1s-1-.45-1-1 .45-1 1-1 1 .45 1 1zm0-8c0 .55-.45 1-1 1s-1-.45-1-1 .45-1 1-1 1 .45 1 1zm0-8c0 .55-.45 1-1 1s-1-.45-1-1 .45-1 1-1 1 .45 1 1zm0-8c0 .55-.45 1-1 1s-1-.45-1-1 .45-1 1-1 1 .45 1 1zm0-8c0 .55-.45 1-1 1s-1-.45-1-1 .45-1 1-1 1 .45 1 1zm0-8c0 .55-.45 1-1 1s-1-.45-1-1 .45-1 1-1 1 .45 1 1zm0-8c0 .55-.45 1-1 1s-1-.45-1-1 .45-1 1-1 1 .45 1 1zm0-8c0 .55-.45 1-1 1s-1-.45-1-1 .45-1 1-1 1 .45 1 1zm0-8c0 .55-.45 1-1 1s-1-.45-1-1 .45-1 1-1 1 .45 1 1zm0-8c0 .55-.45 1-1 1s-1-.45-1-1 .45-1 1-1 1 .45 1 1zm0-8c0 .55-.45 1-1 1s-1-.45-1-1 .45-1 1-1 1 .45 1 1zm0-8c0 .55-.45 1-1 1s-1-.45-1-1 .45-1 1-1 1 .45 1 1zm0-8c0 .55-.45 1-1 1s-1-.45-1-1 .45-1 1-1 1 .45 1 1zm0-8c0 .55-.45 1-1 1s-1-.45-1-1 .45-1 1-1 1 .45 1 1zm0-8c0 .55-.45 1-1 1s-1-.45-1-1 .45-1 1-1 1 .45 1 1zm0-8c0 .55-.45 1-1 1s-1-.45-1-1 .45-1 1-1 1 .45 1 1zm0-8c0 .55-.45 1-1 1s-1-.45-1-1 .45-1 1-1 1 .45 1 1zm0-8c0 .55-.45 1-1 1s-1-.45-1-1 .45-1 1-1 1 .45 1 1zm0-8c0 .55-.45 1-1 1s-1-.45-1-1 .45-1 1-1 1 .45 1 1zm0-8c0 .55-.45 1-1 1s-1-.45-1-1 .45-1 1-1 1 .45 1 1zm0-8c0 .55-.45 1-1 1s-1-.45-1-1 .45-1 1-1 1 .45 1 1zm0-8c0 .55-.45 1-1 1s-1-.45-1-1 .45-1 1-1 1 .45 1 1zm0-8c0 .55-.45 1-1 1s-1-.45-1-1 .45-1 1-1 1 .45 1 1zm0-8c0 .55-.45 1-1 1s-1-.45-1-1 .45-1 1-1 1 .45 1 1zm0-8c0 .55-.45 1-1 1s-1-.45-1-1 .45-1 1-1 1 .45 1 1zm0-8c0 .55-.45 1-1 1s-1-.45-1-1 .45-1 1-1 1 .45 1 1zm0-8c0 .55-.45 1-1 1s-1-.45-1-1 .45-1 1-1 1 .45 1 1zm0-8c0 .55-.45 1-1 1s-1-.45-1-1 .45-1 1-1 1 .45 1 1zm0-8c0 .55-.45 1-1 1s-1-.45-1-1 .45-1 1-1 1 .45 1 1zm0-8c0 .55-.45 1-1 1s-1-.45-1-1 .45-1 1-1 1 .45 1 1zm0-8c0 .55-.45 1-1 1s-1-.45-1-1 .45-1 1-1 1 .45 1 1zm0-8c0 .55-.45 1-1 1s-1-.45-1-1 .45-1 1-1 1 .45 1 1zm0-8c0 .55-.45 1-1 1s-1-.45-1-1 .45-1 1-1 1 .45 1 1zm0-8c0 .55-.45 1-1 1s-1-.45-1-1 .45-1 1-1 1 .45 1 1zm0-8c0 .55-.45 1-1 1s-1-.45-1-1 .45-1 1-1 1 .45 1 1zm0-8c0 .55-.45 1-1 1s-1-.45-1-1 .45-1 1-1 1 .45 1 1zm0-8c0 .55-.45 1-1 1s-1-.45-1-1 .45-1 1-1 1 .45 1 1zm0-8c0 .55-.45 1-1 1s-1-.45-1-1 .45-1 1-1 1 .45 1 1zm0-8c0 .55-.45 1-1 1s-1-.45-1-1 .45-1 1-1 1 .45 1 1zm0-8c0 .55-.45 1-1 1s-1-.45-1-1 .45-1 1-1 1 .45 1 1zm0-8c0 .55-.45 1-1 1s-1-.45-1-1 .45-1 1-1 1 .45 1 1zm0-8c0 .55-.45 1-1 1s-1-.45-1-1 .45-1 1-1 1 .45 1 1zm0-8c0 .55-.45 1-1 1s-1-.45-1-1 .45-1 1-1 1 .45 1 1zm0-8c0 .55-.45 1-1 1s-1-.45-1-1 .45-1 1-1 1 .45 1 1zm0-8c0 .55-.45 1-1 1s-1-.45-1-1 .45-1 1-1 1 .45 1 1zm0-8c0 .55-.45 1-1 1s-1-.45-1-1 .45-1 1-1 1 .45 1 1zm0-8c0 .55-.45 1-1 1s-1-.45-1-1 .45-1 1-1 1 .45 1 1zm0-8c0 .55-.45 1-1 1s-1-.45-1-1 .45-1 1-1 1 .45 1 1zm0-8c0 .55-.45 1-1 1s-1-.45-1-1 .45-1 1-1 1 .45 1 1zm0-8c0 .55-.45 1-1 1s-1-.45-1-1 .45-1 1-1 1 .45 1 1zm0-8c0 .55-.45 1-1 1s-1-.45-1-1 .45-1 1-1 1 .45 1 1zm0-8c0 .55-.45 1-1 1s-1-.45-1-1 .45-1 1-1 1 .45 1 1zm0-8c0 .55-.45 1-1 1s-1-.45-1-1 .45-1 1-1 1 .45 1 1zm0-8c0 .55-.45 1-1 1s-1-.45-1-1 .45-1 1-1 1 .45 1 1zm0-8c0 .55-.45 1-1 1s-1-.45-1-1 .45-1 1-1 1 .45 1 1zm0-8c0 .55-.45 1-1 1s-1-.45-1-1 .45-1 1-1 1 .45 1 1zm0-8c0 .55-.45 1-1 1s-1-.45-1-1 .45-1 1-1 1 .45 1 1zm0-8c0 .55-.45 1-1 1s-1-.45-1-1 .45-1 1-1 1 .45 1 1zm0-8c0 .55-.45 1-1 1s-1-.45-1-1 .45-1 1-1 1 .45 1 1zm0-8c0 .55-.45 1-1 1s-1-.45-1-1 .45-1 1-1 1 .45 1 1zm0-8c0 .55-.45 1-1 1s-1-.45-1-1 .45-1 1-1 1 .45 1 1zm0-8c0 .55-.45 1-1 1s-1-.45-1-1 .45-1 1-1 1 .45 1 1zm0-8c0 .55-.45 1-1 1s-1-.45-1-1 .45-1 1-1 1 .45 1 1zm0-8c0 .55-.45 1-1 1s-1-.45-1-1 .45-1 1-1 1 .45 1 1zm0-8c0 .55-.45 1-1 1s-1-.45-1-1 .45-1 1-1 1 .45 1 1zm0-8c0 .55-.45 1-1 1s-1-.45-1-1 .45-1 1-1 1 .45 1 1zm0-8c0 .55-.45 1-1 1s-1-.45-1-1 .45-1 1-1 1 .45 1 1zm0-8c0 .55-.45 1-1 1s-1-.45-1-1 .45-1 1-1 1 .45 1 1zm0-8c0 .55-.45 1-1 1s-1-.45-1-1 .45-1 1-1 1 .45 1 1zm0-8c0 .55-.45 1-1 1s-1-.45-1-1 .45-1 1-1 1 .45 1 1zm0-8c0 .55-.45 1-1 1s-1-.45-1-1 .45-1 1-1 1 .45 1 1zm0-8c0 .55-.45 1-1 1s-1-.45-1-1 .45-1 1-1 1 .45 1 1z"/><path d="M520 360h160v160H520z" stroke="#000" stroke-width="2" fill="#c7e8ac"/><use xlink:href="#b" transform="matrix(1,0,0,1,525,365) translate(1.8398148148148579 63.698611111111106)"/><use xlink:href="#c" transform="matrix(1,0,0,1,525,365) translate(39.96975308641977 95.96527777777776)"/><path d="M731 679h29.5v2H729V572.13h2zm0-131.13h-2V441h-47v-2h49z"/><path d="M682.03 441H681v-2h1.03zM775.76 680l-14.26 4.64v-9.28z"/><path d="M779 680l-18.5 6v-12zm-16.5 3.26l10.03-3.26-10.03-3.26z"/><use xlink:href="#d" transform="matrix(1,0,0,1,688.4601851851852,547.8666666666667) translate(0 16.17777777777777)"/><path d="M1260 810h420v210h-420z" stroke="#000" stroke-opacity="0" stroke-width="2" fill="#fff" fill-opacity="0"/><use xlink:href="#e" transform="matrix(1,0,0,1,1265,815) translate(9.398148148148266 44.44444444444443)"/><use xlink:href="#f" transform="matrix(1,0,0,1,1265,815) translate(144.89197530864203 44.44444444444443)"/><use xlink:href="#g" transform="matrix(1,0,0,1,1265,815) translate(141.7283950617284 111.11111111111107)"/><use xlink:href="#h" transform="matrix(1,0,0,1,1265,815) translate(114.02777777777781 177.77777777777771)"/><use xlink:href="#i" transform="matrix(1,0,0,1,1265,815) translate(234.24382716049382 177.77777777777771)"/><path d="M520 600h160v160H520z" stroke="#000" stroke-width="2" fill="#c7e8ac"/><use xlink:href="#j" transform="matrix(1,0,0,1,525,605) translate(9.34629629629633 63.698611111111106)"/><use xlink:href="#k" transform="matrix(1,0,0,1,525,605) translate(33.2101851851852 95.96527777777776)"/><path d="M782.5 860h160v160h-160z" stroke="#000" stroke-width="2" fill="#c7e8ac"/><use xlink:href="#l" transform="matrix(1,0,0,1,787.5,865) translate(23.50030864197533 63.698611111111106)"/><use xlink:href="#m" transform="matrix(1,0,0,1,787.5,865) translate(25.778395061728418 95.96527777777776)"/><path d="M601 598h-2v-18.3h2zm0-42.57h-2V539.5h2z"/><path d="M601 599h-2v-1.03h2zM604.64 538.5h-9.28l4.64-14.26z"/><path d="M606 539.5h-12l6-18.5zm-9.26-2h6.52L600 527.47z"/><use xlink:href="#n" transform="matrix(1,0,0,1,579.833950617284,555.4321520287621) translate(0 16.17777777777777)"/><path d="M520 860h160v160H520z" stroke="#000" stroke-width="2" fill="#c7e8ac"/><use xlink:href="#o" transform="matrix(1,0,0,1,525,865) translate(31.71635802469138 63.698611111111106)"/><use xlink:href="#p" transform="matrix(1,0,0,1,525,865) translate(6.395987654321033 95.96527777777776)"/><use xlink:href="#q" transform="matrix(1,0,0,1,525,865) translate(70.55586419753088 95.96527777777776)"/><path d="M601 858h-2v-35.87h2zm0-60.13h-2V779.5h2z"/><path d="M601 859h-2v-1.03h2zM604.64 778.5h-9.28l4.64-14.26z"/><path d="M606 779.5h-12l6-18.5zm-9.26-2h6.52L600 767.47z"/><use xlink:href="#r" transform="matrix(1,0,0,1,566.9422839506173,797.8666666666667) translate(0 16.17777777777777)"/><path d="M698.2 941H682v-2h16.2z"/><path d="M682.03 941H681v-2h1.03zM778.26 940l-13.95 4.53v-9.06z"/><path d="M781.5 940l-17.2 5.6v-11.2zm-16.5 3.26l10.03-3.26-10.03-3.26z"/><use xlink:href="#r" transform="matrix(1,0,0,1,698.1922839506173,927.8666666666667) translate(0 16.17777777777777)"/><path d="M1040 600h160v160h-160z" stroke="#000" stroke-width="2" fill="#f9d2de"/><use xlink:href="#s" transform="matrix(1,0,0,1,1045,605) translate(9.34629629629633 63.698611111111106)"/><use xlink:href="#t" transform="matrix(1,0,0,1,1045,605) translate(25.815740740740765 95.96527777777776)"/><path d="M377 680h123.5" stroke="#7ab648" stroke-width="2" fill="none"/><path d="M377.03 681H376v-2h1.03z" fill="#7ab648"/><path d="M515.76 680l-14.26 4.64v-9.28z" stroke="#7ab648" stroke-width="2" fill="#7ab648"/><path d="M215 600h160v160H215z" stroke="#000" stroke-width="2" fill="#ffdba9"/><use xlink:href="#u" transform="matrix(1,0,0,1,220,605) translate(22.043827160493855 63.698611111111106)"/><use xlink:href="#v" transform="matrix(1,0,0,1,220,605) translate(32.46327160493829 95.96527777777776)"/><path d="M215 400h160v160H215z" stroke="#000" stroke-width="2" fill="#fff"/><use xlink:href="#w" transform="matrix(1,0,0,1,220,405) translate(3.370987654321027 30.886111111111102)"/><use xlink:href="#x" transform="matrix(1,0,0,1,220,405) translate(6.283950617283978 63.15277777777776)"/><use xlink:href="#y" transform="matrix(1,0,0,1,220,405) translate(72.01234567901234 63.15277777777776)"/><use xlink:href="#z" transform="matrix(1,0,0,1,220,405) translate(7.105555555555583 95.41944444444441)"/><use xlink:href="#A" transform="matrix(1,0,0,1,220,405) translate(122.05555555555553 95.41944444444441)"/><use xlink:href="#B" transform="matrix(1,0,0,1,220,405) translate(29.550308641975334 127.68611111111106)"/><use xlink:href="#C" transform="matrix(1,0,0,1,220,405) translate(74.36512345679012 127.68611111111106)"/><path d="M215 800h160v160H215z" stroke="#000" stroke-width="2" fill="#fff"/><use xlink:href="#D" transform="matrix(1,0,0,1,220,805) translate(20.064506172839536 82.4486111111111)"/><path d="M448.5 617h52v2h-54v-57.87h2zm0-80.13h-2V481H377v-2h71.5z"/><path d="M377.03 481H376v-2h1.03zM515.76 618l-14.26 4.64v-9.28z"/><path d="M519 618l-18.5 6v-12zm-16.5 3.26l10.03-3.26-10.03-3.26z"/><use xlink:href="#E" transform="matrix(1,0,0,1,417.1947530864198,536.8666666666667) translate(0 16.17777777777777)"/><path d="M448.5 880H377v-2h69.5v-55.87h2zm52-138h-52v55.87h-2V740h54z"/><path d="M377.03 880H376v-2h1.03zM515.76 741l-14.26 4.64v-9.28z"/><path d="M519 741l-18.5 6v-12zm-16.5 3.26l10.03-3.26-10.03-3.26z"/><use xlink:href="#F" transform="matrix(1,0,0,1,411.5774691358025,797.8666666666667) translate(0 16.17777777777777)"/><path d="M1280 600h160v160h-160z" stroke="#000" stroke-width="2" fill="#fff"/><use xlink:href="#b" transform="matrix(1,0,0,1,1285,605) translate(1.8398148148148579 63.698611111111106)"/><use xlink:href="#G" transform="matrix(1,0,0,1,1285,605) translate(22.75339506172842 95.96527777777776)"/><path d="M1202 680h58.5" stroke="#000" stroke-width="2" fill="none"/><path d="M1202.03 681H1201v-2h1.03z"/><path d="M1275.76 680l-14.26 4.64v-9.28z" stroke="#000" stroke-width="2"/><path d="M1520 360h160v160h-160z" stroke="#000" stroke-width="2" fill="#f9d2de"/><use xlink:href="#H" transform="matrix(1,0,0,1,1525,365) translate(1.9145061728395376 31.9777777777778)"/><use xlink:href="#I" transform="matrix(1,0,0,1,1525,365) translate(65.99969135802469 31.9777777777778)"/><use xlink:href="#J" transform="matrix(1,0,0,1,1525,365) translate(16.06851851851856 64.24444444444445)"/><use xlink:href="#K" transform="matrix(1,0,0,1,1525,365) translate(-1.1104938271604539 96.5111111111111)"/><use xlink:href="#L" transform="matrix(1,0,0,1,1525,365) translate(46.65462962962964 128.77777777777774)"/><path d="M220 200h160v160H220z" stroke="#000" stroke-width="2" fill="#ffdba9"/><use xlink:href="#M" transform="matrix(1,0,0,1,225,205) translate(24.284567901234595 82.4486111111111)"/><path d="M382 280h218v60.5" stroke="#000" stroke-width="2" fill="none"/><path d="M382.03 281H381v-2h1.03z"/><path d="M600 355.76l-4.64-14.26h9.28z" stroke="#000" stroke-width="2"/><path d="M1280 200h160v160h-160z" stroke="#000" stroke-width="2" fill="#f9d2de"/><use xlink:href="#N" transform="matrix(1,0,0,1,1285,205) translate(25.068827160493854 82.4486111111111)"/><path d="M1520 600h160v160h-160z" stroke="#000" stroke-width="2" fill="#fff"/><use xlink:href="#O" transform="matrix(1,0,0,1,1525,605) translate(25.068827160493854 63.698611111111106)"/><use xlink:href="#G" transform="matrix(1,0,0,1,1525,605) translate(22.75339506172842 95.96527777777776)"/><path d="M1442 680h58.5" stroke="#000" stroke-width="2" fill="none"/><path d="M1442.03 681H1441v-2h1.03z"/><path d="M1515.76 680l-14.26 4.64v-9.28z" stroke="#000" stroke-width="2"/><path d="M1401.1 580.5h-2v-88.37h2zm0-112.63h-2V362h2z"/><path d="M1401.1 362.03h-2V361h2zM1400.1 595.76l-4.64-14.26h9.27z"/><path d="M1400.1 599l-6-18.5h12zm-3.26-16.5l3.26 10.03 3.26-10.03z"/><use xlink:href="#P" transform="matrix(1,0,0,1,1383.8074625729992,467.8666666666667) translate(0 16.17777777777777)"/><path d="M832.75 220.32H661.37V340.5h-2V218.32h173.38zm445.25 0h-210.67v-2H1278z"/><path d="M1279 220.32h-1.03v-2h1.03zM660.37 355.76l-4.63-14.26H665z"/><path d="M660.37 359l-6-18.5h12.02zm-3.25-16.5l3.25 10.03 3.26-10.03z"/><use xlink:href="#Q" transform="matrix(1,0,0,1,832.7542989739663,207.1855557605485) translate(0 16.17777777777777)"/><use xlink:href="#R" transform="matrix(1,0,0,1,832.7542989739663,207.1855557605485) translate(38.1975308641975 16.17777777777777)"/><use xlink:href="#S" transform="matrix(1,0,0,1,832.7542989739663,207.1855557605485) translate(181.8876543209875 16.17777777777777)"/><path d="M1321 598h-2V492.13h2zm0-130.13h-2V379.5h2z"/><path d="M1321 599h-2v-1.03h2zM1324.64 378.5h-9.28l4.64-14.26z"/><path d="M1326 379.5h-12l6-18.5zm-9.26-2h6.52l-3.26-10.03z"/><use xlink:href="#P" transform="matrix(1,0,0,1,1303.70987654321,467.8666666666667) translate(0 16.17777777777777)"/><path d="M956.9 681H942v-2h14.9z"/><path d="M942.03 681H941v-2h1.03zM1035.76 680l-12.65 4.1v-8.2z"/><path d="M1039 680l-15.9 5.16v-2.1l9.43-3.06-9.42-3.06v-2.1z"/><use xlink:href="#T" transform="matrix(1,0,0,1,956.8861111111112,655.7333333333333) translate(0 16.17777777777777)"/><use xlink:href="#U" transform="matrix(1,0,0,1,956.8861111111112,655.7333333333333) translate(0 40.44444444444443)"/><path d="M1033.64 253.08H861v87.42h-2v-89.42h174.64zm244.36 0h-165.77v-2H1278z"/><path d="M1279 253.08h-1.03v-2h1.03zM860 355.76l-4.64-14.26h9.28z"/><path d="M860 359l-6-18.5h12zm-3.26-16.5l3.26 10.03 3.26-10.03z"/><use xlink:href="#V" transform="matrix(1,0,0,1,1033.64058524546,239.94688359199972) translate(0 16.17777777777777)"/><path d="M805.82 879h17.88v2h-19.88V779.5h2zm119.73 2h-19.9v-2h17.9v-99.5h2zM809.46 778.5h-9.27l4.62-14.26z" fill="#7ab648"/><path d="M810.83 779.5H798.8l6.02-18.5zm-9.27-2h6.52l-3.26-10.03zM929.18 778.5h-9.27l4.65-14.26z" fill="#7ab648"/><path d="M930.56 779.5h-12.03l6.02-18.5zm-9.27-2h6.5l-3.25-10.03z" fill="#7ab648"/><use xlink:href="#W" transform="matrix(1,0,0,1,823.7049508751588,867.8666666666667) translate(0 16.17777777777777)"/><path d="M1172.3 281H1121v59.5h-2V279h53.3zm88.2 0h-55.63v-2h55.63zM1120 355.76l-4.64-14.26h9.28z"/><path d="M1120 359l-6-18.5h12zm-3.26-16.5l3.26 10.03 3.26-10.03zM1275.76 280l-14.26 4.64v-9.28z"/><path d="M1279 280l-18.5 6v-12zm-16.5 3.26l10.03-3.26-10.03-3.26z"/><use xlink:href="#P" transform="matrix(1,0,0,1,1172.2908085937809,267.8666666666667) translate(0 16.17777777777777)"/><path d="M74.48 980H400v80H74.48z" stroke="#000" stroke-opacity="0" stroke-width="2" fill="#fff" fill-opacity="0"/><use xlink:href="#X" transform="matrix(1,0,0,1,79.48189741039334,985) translate(56.0679012345679 42.63888888888889)"/><use xlink:href="#Y" transform="matrix(1,0,0,1,79.48189741039334,985) translate(137.30246913580248 42.63888888888889)"/><use xlink:href="#Z" transform="matrix(1,0,0,1,79.48189741039334,985) translate(171.87037037037038 42.63888888888889)"/><path d="M120 770.14v-177.3h73.26v177.3z" stroke="#000" stroke-opacity="0" stroke-width="2" fill="#fff" fill-opacity="0"/><use xlink:href="#aa" transform="matrix(6.123233995736766e-17,-1,1,6.123233995736766e-17,125,765.135941165895) translate(13.07407407407409 21.33333333333333)"/><use xlink:href="#ab" transform="matrix(6.123233995736766e-17,-1,1,6.123233995736766e-17,125,765.135941165895) translate(48.44444444444445 53.33333333333332)"/><path d="M780 360h160v160H780z" stroke="#000" stroke-width="2" fill="#ffdba9"/><use xlink:href="#ac" transform="matrix(1,0,0,1,785,365) translate(4.155246913580299 82.4486111111111)"/><path d="M682 440h78.5M681 440" stroke="#000" stroke-width="2" fill="none"/><path d="M775.76 440l-14.26 4.64v-9.28z" stroke="#000" stroke-width="2"/><path d="M861 580.5h-2v-17.9h2zm0-39.5h-2v-19h2z" fill="#7ab648"/><path d="M861 522.03h-2V521h2zM860 595.76l-4.64-14.26h9.28z" fill="#7ab648"/><path d="M860 599l-6-18.5h12zm-3.26-16.5l3.26 10.03 3.26-10.03z" fill="#7ab648"/><use xlink:href="#ad" transform="matrix(1,0,0,1,828.025,541.0115361842945) translate(0 14.4)"/><path d="M1040 360h160v160h-160z" stroke="#000" stroke-width="2" fill="#ffdba9"/><use xlink:href="#ae" transform="matrix(1,0,0,1,1045,365) translate(-1.1104938271604539 64.24444444444445)"/><use xlink:href="#af" transform="matrix(1,0,0,1,1045,365) translate(-0.32623456790119576 96.5111111111111)"/><path d="M973.5 441H942v-2h31.5zm47 0h-14v-2h14z" fill="#7ab648"/><path d="M942.03 441H941v-2h1.03zM1035.76 440l-14.26 4.64v-9.28z" fill="#7ab648"/><path d="M1039 440l-18.5 6v-12zm-16.5 3.26l10.03-3.26-10.03-3.26z" fill="#7ab648"/><use xlink:href="#ag" transform="matrix(1,0,0,1,973.5,429.2) translate(0 14.4)"/><path d="M1500.5 441H1202v-2h298.5z"/><path d="M1202.03 441H1201v-2h1.03zM1515.76 440l-14.26 4.64v-9.28z"/><path d="M1519 440l-18.5 6v-12zm-16.5 3.26l10.03-3.26-10.03-3.26z"/><path d="M958.38 561H899.2v19.5h-2V559h61.18zm162.62 0h-93.67v-2H1119v-37h2z" fill="#7ab648"/><path d="M1121 522.03h-2V521h2zM898.2 595.76l-4.63-14.26h9.27z" fill="#7ab648"/><path d="M898.2 599l-6-18.5h12.02zm-3.25-16.5l3.26 10.03 3.27-10.03z" fill="#7ab648"/><g><use xlink:href="#ah" transform="matrix(1,0,0,1,958.3752406698136,549.2) translate(0 14.4)"/></g><path d="M560 1000c0 11.05-8.95 20-20 20s-20-8.95-20-20 8.95-20 20-20 20 8.95 20 20z" stroke="#000" stroke-width="2" fill="#fff"/><g><use xlink:href="#ai" transform="matrix(1,0,0,1,525,985) translate(8.770432098765435 19.830555555555552)"/></g><path d="M822.5 1000c0 11.05-8.95 20-20 20s-20-8.95-20-20 8.95-20 20-20 20 8.95 20 20z" stroke="#000" stroke-width="2" fill="#fff"/><g><use xlink:href="#aj" transform="matrix(1,0,0,1,787.5,985) translate(8.770432098765435 19.830555555555552)"/></g><path d="M1010 520c0 11.05-8.95 20-20 20s-20-8.95-20-20 8.95-20 20-20 20 8.95 20 20z" stroke="#000" stroke-width="2" fill="#fff"/><g><use xlink:href="#ak" transform="matrix(1,0,0,1,975,505) translate(8.770432098765435 19.830555555555552)"/></g><path d="M1010 400c0 11.05-8.95 20-20 20s-20-8.95-20-20 8.95-20 20-20 20 8.95 20 20z" stroke="#000" stroke-width="2" fill="#fff"/><g><use xlink:href="#al" transform="matrix(1,0,0,1,975,385) translate(8.770432098765435 19.830555555555552)"/></g><path d="M820 560c0 11.05-8.95 20-20 20s-20-8.95-20-20 8.95-20 20-20 20 8.95 20 20z" stroke="#000" stroke-width="2" fill="#fff"/><g><use xlink:href="#am" transform="matrix(1,0,0,1,785,545) translate(8.770432098765435 19.830555555555552)"/></g><path d="M560 738.12c0 11.05-8.95 20-20 20s-20-8.95-20-20c0-11.04 8.95-20 20-20s20 8.96 20 20z" stroke="#000" stroke-width="2" fill="#fff"/><g><use xlink:href="#an" transform="matrix(1,0,0,1,525,723.1247052761103) translate(8.770432098765435 19.830555555555552)"/></g><path d="M1040 860h160v160h-160z" stroke="#000" stroke-width="2" fill="#c7e8ac"/><g><use xlink:href="#b" transform="matrix(1,0,0,1,1045,865) translate(1.8398148148148579 49.636111111111106)"/><use xlink:href="#ao" transform="matrix(1,0,0,1,1045,865) translate(22.043827160493855 81.90277777777776)"/><use xlink:href="#c" transform="matrix(1,0,0,1,1045,865) translate(39.96975308641977 114.16944444444441)"/></g><path d="M1080 1000c0 11.05-8.95 20-20 20s-20-8.95-20-20 8.95-20 20-20 20 8.95 20 20z" stroke="#000" stroke-width="2" fill="#fff"/><g><use xlink:href="#ap" transform="matrix(1,0,0,1,1045,985) translate(8.770432098765435 19.830555555555552)"/></g><path d="M560 500c0 11.05-8.95 20-20 20s-20-8.95-20-20 8.95-20 20-20 20 8.95 20 20z" stroke="#000" stroke-width="2" fill="#fff"/><g><use xlink:href="#an" transform="matrix(1,0,0,1,525,485) translate(8.770432098765435 19.830555555555552)"/></g><path d="M482.5 681.5c0 11.04-8.95 20-20 20s-20-8.96-20-20c0-11.05 8.95-20 20-20s20 8.95 20 20z" stroke="#000" stroke-width="2" fill="#fff"/><g><use xlink:href="#aq" transform="matrix(1,0,0,1,447.5,666.492578782084) translate(8.770432098765435 19.830555555555552)"/></g><defs><path d="M205 0l-28-72H64L36 0H1l101-248h38L239 0h-34zm-38-99l-47-123c-12 45-31 82-46 123h93" id="ar"/><path d="M177-190C167-65 218 103 67 71c-23-6-38-20-44-43l32-5c15 47 100 32 89-28v-30C133-14 115 1 83 1 29 1 15-40 15-95c0-56 16-97 71-98 29-1 48 16 59 35 1-10 0-23 2-32h30zM94-22c36 0 50-32 50-73 0-42-14-75-50-75-39 0-46 34-46 75s6 73 46 73" id="as"/><path d="M114-163C36-179 61-72 57 0H25l-1-190h30c1 12-1 29 2 39 6-27 23-49 58-41v29" id="at"/><path d="M100-194c63 0 86 42 84 106H49c0 40 14 67 53 68 26 1 43-12 49-29l28 8c-11 28-37 45-77 45C44 4 14-33 15-96c1-61 26-98 85-98zm52 81c6-60-76-77-97-28-3 7-6 17-6 28h103" id="au"/><path d="M210-169c-67 3-38 105-44 169h-31v-121c0-29-5-50-35-48C34-165 62-65 56 0H25l-1-190h30c1 10-1 24 2 32 10-44 99-50 107 0 11-21 27-35 58-36 85-2 47 119 55 194h-31v-121c0-29-5-49-35-48" id="av"/><path d="M117-194c89-4 53 116 60 194h-32v-121c0-31-8-49-39-48C34-167 62-67 57 0H25l-1-190h30c1 10-1 24 2 32 11-22 29-35 61-36" id="aw"/><path d="M59-47c-2 24 18 29 38 22v24C64 9 27 4 27-40v-127H5v-23h24l9-43h21v43h35v23H59v120" id="ax"/><g id="a"><use transform="matrix(0.07469135802469132,0,0,0.07469135802469132,0,0)" xlink:href="#ar"/><use transform="matrix(0.07469135802469132,0,0,0.07469135802469132,17.925925925925917,0)" xlink:href="#as"/><use transform="matrix(0.07469135802469132,0,0,0.07469135802469132,32.86419753086418,0)" xlink:href="#at"/><use transform="matrix(0.07469135802469132,0,0,0.07469135802469132,41.75246913580245,0)" xlink:href="#au"/><use transform="matrix(0.07469135802469132,0,0,0.07469135802469132,56.69074074074072,0)" xlink:href="#au"/><use transform="matrix(0.07469135802469132,0,0,0.07469135802469132,71.62901234567897,0)" xlink:href="#av"/><use transform="matrix(0.07469135802469132,0,0,0.07469135802469132,93.96172839506168,0)" xlink:href="#au"/><use transform="matrix(0.07469135802469132,0,0,0.07469135802469132,108.89999999999993,0)" xlink:href="#aw"/><use transform="matrix(0.07469135802469132,0,0,0.07469135802469132,123.8382716049382,0)" xlink:href="#ax"/></g><path d="M143 4C61 4 22-44 18-125c-5-107 100-154 193-111 17 8 29 25 37 43l-32 9c-13-25-37-40-76-40-61 0-88 39-88 99 0 61 29 100 91 101 35 0 62-11 79-27v-45h-74v-28h105v86C228-13 192 4 143 4" id="ay"/><path d="M100-194c62-1 85 37 85 99 1 63-27 99-86 99S16-35 15-95c0-66 28-99 85-99zM99-20c44 1 53-31 53-75 0-43-8-75-51-75s-53 32-53 75 10 74 51 75" id="az"/><path d="M108 0H70L1-190h34L89-25l56-165h34" id="aA"/><path d="M141-36C126-15 110 5 73 4 37 3 15-17 15-53c-1-64 63-63 125-63 3-35-9-54-41-54-24 1-41 7-42 31l-33-3c5-37 33-52 76-52 45 0 72 20 72 64v82c-1 20 7 32 28 27v20c-31 9-61-2-59-35zM48-53c0 20 12 33 32 33 41-3 63-29 60-74-43 2-92-5-92 41" id="aB"/><path d="M96-169c-40 0-48 33-48 73s9 75 48 75c24 0 41-14 43-38l32 2c-6 37-31 61-74 61-59 0-76-41-82-99-10-93 101-131 147-64 4 7 5 14 7 22l-32 3c-4-21-16-35-41-35" id="aC"/><g id="b"><use transform="matrix(0.07469135802469132,0,0,0.07469135802469132,0,0)" xlink:href="#ay"/><use transform="matrix(0.07469135802469132,0,0,0.07469135802469132,20.91358024691357,0)" xlink:href="#az"/><use transform="matrix(0.07469135802469132,0,0,0.07469135802469132,35.85185185185183,0)" xlink:href="#aA"/><use transform="matrix(0.07469135802469132,0,0,0.07469135802469132,49.29629629629627,0)" xlink:href="#au"/><use transform="matrix(0.07469135802469132,0,0,0.07469135802469132,64.23456790123453,0)" xlink:href="#at"/><use transform="matrix(0.07469135802469132,0,0,0.07469135802469132,73.1228395061728,0)" xlink:href="#aw"/><use transform="matrix(0.07469135802469132,0,0,0.07469135802469132,88.06111111111106,0)" xlink:href="#aB"/><use transform="matrix(0.07469135802469132,0,0,0.07469135802469132,102.99938271604933,0)" xlink:href="#aw"/><use transform="matrix(0.07469135802469132,0,0,0.07469135802469132,117.93765432098759,0)" xlink:href="#aC"/><use transform="matrix(0.07469135802469132,0,0,0.07469135802469132,131.38209876543203,0)" xlink:href="#au"/></g><path d="M30 0v-248h187v28H63v79h144v27H63v87h162V0H30" id="aD"/><path d="M85-194c31 0 48 13 60 33l-1-100h32l1 261h-30c-2-10 0-23-3-31C134-8 116 4 85 4 32 4 16-35 15-94c0-66 23-100 70-100zm9 24c-40 0-46 34-46 75 0 40 6 74 45 74 42 0 51-32 51-76 0-42-9-74-50-73" id="aE"/><path d="M24-231v-30h32v30H24zM24 0v-190h32V0H24" id="aF"/><g id="c"><use transform="matrix(0.07469135802469132,0,0,0.07469135802469132,0,0)" xlink:href="#aD"/><use transform="matrix(0.07469135802469132,0,0,0.07469135802469132,17.925925925925917,0)" xlink:href="#aE"/><use transform="matrix(0.07469135802469132,0,0,0.07469135802469132,32.86419753086418,0)" xlink:href="#aF"/><use transform="matrix(0.07469135802469132,0,0,0.07469135802469132,38.764814814814805,0)" xlink:href="#ax"/><use transform="matrix(0.07469135802469132,0,0,0.07469135802469132,46.23395061728393,0)" xlink:href="#az"/><use transform="matrix(0.07469135802469132,0,0,0.07469135802469132,61.172222222222196,0)" xlink:href="#at"/></g><path d="M115-194c55 1 70 41 70 98S169 2 115 4C84 4 66-9 55-30l1 105H24l-1-265h31l2 30c10-21 28-34 59-34zm-8 174c40 0 45-34 45-75s-6-73-45-74c-42 0-51 32-51 76 0 43 10 73 51 73" id="aG"/><path d="M84 4C-5 8 30-112 23-190h32v120c0 31 7 50 39 49 72-2 45-101 50-169h31l1 190h-30c-1-10 1-25-2-33-11 22-28 36-60 37" id="aH"/><path d="M135-143c-3-34-86-38-87 0 15 53 115 12 119 90S17 21 10-45l28-5c4 36 97 45 98 0-10-56-113-15-118-90-4-57 82-63 122-42 12 7 21 19 24 35" id="aI"/><g id="d"><use transform="matrix(0.05617283950617281,0,0,0.05617283950617281,0,0)" xlink:href="#aG"/><use transform="matrix(0.05617283950617281,0,0,0.05617283950617281,11.234567901234561,0)" xlink:href="#at"/><use transform="matrix(0.05617283950617281,0,0,0.05617283950617281,17.919135802469125,0)" xlink:href="#az"/><use transform="matrix(0.05617283950617281,0,0,0.05617283950617281,29.153703703703687,0)" xlink:href="#aE"/><use transform="matrix(0.05617283950617281,0,0,0.05617283950617281,40.38827160493825,0)" xlink:href="#aH"/><use transform="matrix(0.05617283950617281,0,0,0.05617283950617281,51.62283950617281,0)" xlink:href="#aC"/><use transform="matrix(0.05617283950617281,0,0,0.05617283950617281,61.73395061728392,0)" xlink:href="#au"/><use transform="matrix(0.05617283950617281,0,0,0.05617283950617281,72.96851851851848,0)" xlink:href="#aI"/></g><path d="M30-248c118-7 216 8 213 122C240-48 200 0 122 0H30v-248zM63-27c89 8 146-16 146-99s-60-101-146-95v194" id="aJ"/><path d="M101-234c-31-9-42 10-38 44h38v23H63V0H32v-167H5v-23h27c-7-52 17-82 69-68v24" id="aK"/><g id="e"><use transform="matrix(0.15432098765432092,0,0,0.15432098765432092,0,0)" xlink:href="#aJ"/><use transform="matrix(0.15432098765432092,0,0,0.15432098765432092,39.96913580246912,0)" xlink:href="#at"/><use transform="matrix(0.15432098765432092,0,0,0.15432098765432092,58.33333333333331,0)" xlink:href="#aB"/><use transform="matrix(0.15432098765432092,0,0,0.15432098765432092,89.19753086419749,0)" xlink:href="#aK"/><use transform="matrix(0.15432098765432092,0,0,0.15432098765432092,104.62962962962956,0)" xlink:href="#ax"/></g><path d="M63-220v92h138v28H63V0H30v-248h175v28H63" id="aL"/><path d="M24 0v-261h32V0H24" id="aM"/><g id="f"><use transform="matrix(0.15432098765432092,0,0,0.15432098765432092,0,0)" xlink:href="#aL"/><use transform="matrix(0.15432098765432092,0,0,0.15432098765432092,33.79629629629628,0)" xlink:href="#aH"/><use transform="matrix(0.15432098765432092,0,0,0.15432098765432092,64.66049382716047,0)" xlink:href="#aw"/><use transform="matrix(0.15432098765432092,0,0,0.15432098765432092,95.52469135802465,0)" xlink:href="#aC"/><use transform="matrix(0.15432098765432092,0,0,0.15432098765432092,123.30246913580241,0)" xlink:href="#ax"/><use transform="matrix(0.15432098765432092,0,0,0.15432098765432092,138.73456790123453,0)" xlink:href="#aF"/><use transform="matrix(0.15432098765432092,0,0,0.15432098765432092,150.92592592592587,0)" xlink:href="#az"/><use transform="matrix(0.15432098765432092,0,0,0.15432098765432092,181.79012345679004,0)" xlink:href="#aw"/><use transform="matrix(0.15432098765432092,0,0,0.15432098765432092,212.65432098765424,0)" xlink:href="#aB"/><use transform="matrix(0.15432098765432092,0,0,0.15432098765432092,243.5185185185184,0)" xlink:href="#aM"/></g><path d="M185-189c-5-48-123-54-124 2 14 75 158 14 163 119 3 78-121 87-175 55-17-10-28-26-33-46l33-7c5 56 141 63 141-1 0-78-155-14-162-118-5-82 145-84 179-34 5 7 8 16 11 25" id="aN"/><g id="g"><use transform="matrix(0.15432098765432092,0,0,0.15432098765432092,0,0)" xlink:href="#aN"/><use transform="matrix(0.15432098765432092,0,0,0.15432098765432092,37.037037037037024,0)" xlink:href="#aG"/><use transform="matrix(0.15432098765432092,0,0,0.15432098765432092,67.90123456790121,0)" xlink:href="#au"/><use transform="matrix(0.15432098765432092,0,0,0.15432098765432092,98.7654320987654,0)" xlink:href="#aC"/></g><path d="M240 0l2-218c-23 76-54 145-80 218h-23L58-218 59 0H30v-248h44l77 211c21-75 51-140 76-211h43V0h-30" id="aO"/><path d="M179-190L93 31C79 59 56 82 12 73V49c39 6 53-20 64-50L1-190h34L92-34l54-156h33" id="aP"/><g id="h"><use transform="matrix(0.15432098765432092,0,0,0.15432098765432092,0,0)" xlink:href="#aO"/><use transform="matrix(0.15432098765432092,0,0,0.15432098765432092,46.14197530864195,0)" xlink:href="#aB"/><use transform="matrix(0.15432098765432092,0,0,0.15432098765432092,77.00617283950614,0)" xlink:href="#aP"/></g><path d="M101-251c82-7 93 87 43 132L82-64C71-53 59-42 53-27h129V0H18c2-99 128-94 128-182 0-28-16-43-45-43s-46 15-49 41l-32-3c6-41 34-60 81-64" id="aQ"/><path d="M99-251c64 0 84 50 84 122C183-37 130 33 47-8c-14-7-20-23-25-40l30-5c6 39 69 39 84 7 9-19 16-44 16-74-10 22-31 35-62 35-49 0-73-33-73-83 0-54 28-83 82-83zm-1 141c31-1 51-18 51-49 0-36-14-67-51-67-34 0-49 23-49 58 0 34 15 58 49 58" id="aR"/><g id="i"><use transform="matrix(0.15432098765432092,0,0,0.15432098765432092,0,0)" xlink:href="#aQ"/><use transform="matrix(0.15432098765432092,0,0,0.15432098765432092,30.864197530864185,0)" xlink:href="#aR"/></g><g id="j"><use transform="matrix(0.07469135802469132,0,0,0.07469135802469132,0,0)" xlink:href="#ar"/><use transform="matrix(0.07469135802469132,0,0,0.07469135802469132,17.925925925925917,0)" xlink:href="#as"/><use transform="matrix(0.07469135802469132,0,0,0.07469135802469132,32.86419753086418,0)" xlink:href="#at"/><use transform="matrix(0.07469135802469132,0,0,0.07469135802469132,41.75246913580245,0)" xlink:href="#au"/><use transform="matrix(0.07469135802469132,0,0,0.07469135802469132,56.69074074074072,0)" xlink:href="#au"/><use transform="matrix(0.07469135802469132,0,0,0.07469135802469132,71.62901234567897,0)" xlink:href="#av"/><use transform="matrix(0.07469135802469132,0,0,0.07469135802469132,93.96172839506168,0)" xlink:href="#au"/><use transform="matrix(0.07469135802469132,0,0,0.07469135802469132,108.89999999999993,0)" xlink:href="#aw"/><use transform="matrix(0.07469135802469132,0,0,0.07469135802469132,123.8382716049382,0)" xlink:href="#ax"/></g><g id="k"><use transform="matrix(0.07469135802469132,0,0,0.07469135802469132,0,0)" xlink:href="#aD"/><use transform="matrix(0.07469135802469132,0,0,0.07469135802469132,17.925925925925917,0)" xlink:href="#aw"/><use transform="matrix(0.07469135802469132,0,0,0.07469135802469132,32.86419753086418,0)" xlink:href="#as"/><use transform="matrix(0.07469135802469132,0,0,0.07469135802469132,47.80246913580244,0)" xlink:href="#aF"/><use transform="matrix(0.07469135802469132,0,0,0.07469135802469132,53.70308641975306,0)" xlink:href="#aw"/><use transform="matrix(0.07469135802469132,0,0,0.07469135802469132,68.64135802469133,0)" xlink:href="#au"/></g><g id="l"><use transform="matrix(0.07469135802469132,0,0,0.07469135802469132,0,0)" xlink:href="#aO"/><use transform="matrix(0.07469135802469132,0,0,0.07469135802469132,22.332716049382704,0)" xlink:href="#au"/><use transform="matrix(0.07469135802469132,0,0,0.07469135802469132,37.27098765432097,0)" xlink:href="#ax"/><use transform="matrix(0.07469135802469132,0,0,0.07469135802469132,44.7401234567901,0)" xlink:href="#aB"/><use transform="matrix(0.07469135802469132,0,0,0.07469135802469132,59.67839506172836,0)" xlink:href="#as"/><use transform="matrix(0.07469135802469132,0,0,0.07469135802469132,74.61666666666663,0)" xlink:href="#az"/><use transform="matrix(0.07469135802469132,0,0,0.07469135802469132,89.5549382716049,0)" xlink:href="#aA"/></g><path d="M30-248c87 1 191-15 191 75 0 78-77 80-158 76V0H30v-248zm33 125c57 0 124 11 124-50 0-59-68-47-124-48v98" id="aS"/><g id="m"><use transform="matrix(0.07469135802469132,0,0,0.07469135802469132,0,0)" xlink:href="#aS"/><use transform="matrix(0.07469135802469132,0,0,0.07469135802469132,17.925925925925917,0)" xlink:href="#at"/><use transform="matrix(0.07469135802469132,0,0,0.07469135802469132,26.814197530864185,0)" xlink:href="#az"/><use transform="matrix(0.07469135802469132,0,0,0.07469135802469132,41.75246913580245,0)" xlink:href="#ax"/><use transform="matrix(0.07469135802469132,0,0,0.07469135802469132,49.221604938271575,0)" xlink:href="#az"/><use transform="matrix(0.07469135802469132,0,0,0.07469135802469132,64.15987654320985,0)" xlink:href="#aC"/><use transform="matrix(0.07469135802469132,0,0,0.07469135802469132,77.60432098765429,0)" xlink:href="#az"/><use transform="matrix(0.07469135802469132,0,0,0.07469135802469132,92.54259259259256,0)" xlink:href="#aM"/></g><g id="n"><use transform="matrix(0.05617283950617281,0,0,0.05617283950617281,0,0)" xlink:href="#aC"/><use transform="matrix(0.05617283950617281,0,0,0.05617283950617281,10.111111111111105,0)" xlink:href="#aB"/><use transform="matrix(0.05617283950617281,0,0,0.05617283950617281,21.345679012345666,0)" xlink:href="#aM"/><use transform="matrix(0.05617283950617281,0,0,0.05617283950617281,25.783333333333317,0)" xlink:href="#aM"/><use transform="matrix(0.05617283950617281,0,0,0.05617283950617281,30.22098765432097,0)" xlink:href="#aI"/></g><path d="M106-169C34-169 62-67 57 0H25v-261h32l-1 103c12-21 28-36 61-36 89 0 53 116 60 194h-32v-121c2-32-8-49-39-48" id="aT"/><g id="o"><use transform="matrix(0.07469135802469132,0,0,0.07469135802469132,0,0)" xlink:href="#aN"/><use transform="matrix(0.07469135802469132,0,0,0.07469135802469132,17.925925925925917,0)" xlink:href="#aT"/><use transform="matrix(0.07469135802469132,0,0,0.07469135802469132,32.86419753086418,0)" xlink:href="#aB"/><use transform="matrix(0.07469135802469132,0,0,0.07469135802469132,47.80246913580244,0)" xlink:href="#at"/><use transform="matrix(0.07469135802469132,0,0,0.07469135802469132,56.69074074074072,0)" xlink:href="#au"/><use transform="matrix(0.07469135802469132,0,0,0.07469135802469132,71.62901234567897,0)" xlink:href="#aE"/></g><g id="p"><use transform="matrix(0.07469135802469132,0,0,0.07469135802469132,0,0)" xlink:href="#aJ"/><use transform="matrix(0.07469135802469132,0,0,0.07469135802469132,19.345061728395052,0)" xlink:href="#aB"/><use transform="matrix(0.07469135802469132,0,0,0.07469135802469132,34.28333333333332,0)" xlink:href="#ax"/><use transform="matrix(0.07469135802469132,0,0,0.07469135802469132,41.75246913580245,0)" xlink:href="#aB"/></g><g id="q"><use transform="matrix(0.07469135802469132,0,0,0.07469135802469132,0,0)" xlink:href="#aO"/><use transform="matrix(0.07469135802469132,0,0,0.07469135802469132,22.332716049382704,0)" xlink:href="#az"/><use transform="matrix(0.07469135802469132,0,0,0.07469135802469132,37.27098765432097,0)" xlink:href="#aE"/><use transform="matrix(0.07469135802469132,0,0,0.07469135802469132,52.209259259259234,0)" xlink:href="#au"/><use transform="matrix(0.07469135802469132,0,0,0.07469135802469132,67.14753086419749,0)" xlink:href="#aM"/></g><g id="r"><use transform="matrix(0.05617283950617281,0,0,0.05617283950617281,0,0)" xlink:href="#aF"/><use transform="matrix(0.05617283950617281,0,0,0.05617283950617281,4.437654320987652,0)" xlink:href="#aw"/><use transform="matrix(0.05617283950617281,0,0,0.05617283950617281,15.672222222222214,0)" xlink:href="#aK"/><use transform="matrix(0.05617283950617281,0,0,0.05617283950617281,21.289506172839495,0)" xlink:href="#az"/><use transform="matrix(0.05617283950617281,0,0,0.05617283950617281,32.52407407407406,0)" xlink:href="#at"/><use transform="matrix(0.05617283950617281,0,0,0.05617283950617281,39.20864197530862,0)" xlink:href="#av"/><use transform="matrix(0.05617283950617281,0,0,0.05617283950617281,56.004320987654296,0)" xlink:href="#aI"/></g><g id="s"><use transform="matrix(0.07469135802469132,0,0,0.07469135802469132,0,0)" xlink:href="#ar"/><use transform="matrix(0.07469135802469132,0,0,0.07469135802469132,17.925925925925917,0)" xlink:href="#as"/><use transform="matrix(0.07469135802469132,0,0,0.07469135802469132,32.86419753086418,0)" xlink:href="#at"/><use transform="matrix(0.07469135802469132,0,0,0.07469135802469132,41.75246913580245,0)" xlink:href="#au"/><use transform="matrix(0.07469135802469132,0,0,0.07469135802469132,56.69074074074072,0)" xlink:href="#au"/><use transform="matrix(0.07469135802469132,0,0,0.07469135802469132,71.62901234567897,0)" xlink:href="#av"/><use transform="matrix(0.07469135802469132,0,0,0.07469135802469132,93.96172839506168,0)" xlink:href="#au"/><use transform="matrix(0.07469135802469132,0,0,0.07469135802469132,108.89999999999993,0)" xlink:href="#aw"/><use transform="matrix(0.07469135802469132,0,0,0.07469135802469132,123.8382716049382,0)" xlink:href="#ax"/></g><path d="M233-177c-1 41-23 64-60 70L243 0h-38l-65-103H63V0H30v-248c88 3 205-21 203 71zM63-129c60-2 137 13 137-47 0-61-80-42-137-45v92" id="aU"/><g id="t"><use transform="matrix(0.07469135802469132,0,0,0.07469135802469132,0,0)" xlink:href="#aU"/><use transform="matrix(0.07469135802469132,0,0,0.07469135802469132,19.345061728395052,0)" xlink:href="#au"/><use transform="matrix(0.07469135802469132,0,0,0.07469135802469132,34.28333333333332,0)" xlink:href="#as"/><use transform="matrix(0.07469135802469132,0,0,0.07469135802469132,49.221604938271575,0)" xlink:href="#aF"/><use transform="matrix(0.07469135802469132,0,0,0.07469135802469132,55.1222222222222,0)" xlink:href="#aI"/><use transform="matrix(0.07469135802469132,0,0,0.07469135802469132,68.56666666666663,0)" xlink:href="#ax"/><use transform="matrix(0.07469135802469132,0,0,0.07469135802469132,76.03580246913576,0)" xlink:href="#at"/><use transform="matrix(0.07469135802469132,0,0,0.07469135802469132,84.92407407407403,0)" xlink:href="#aP"/></g><g id="u"><use transform="matrix(0.07469135802469132,0,0,0.07469135802469132,0,0)" xlink:href="#aS"/><use transform="matrix(0.07469135802469132,0,0,0.07469135802469132,17.925925925925917,0)" xlink:href="#at"/><use transform="matrix(0.07469135802469132,0,0,0.07469135802469132,26.814197530864185,0)" xlink:href="#az"/><use transform="matrix(0.07469135802469132,0,0,0.07469135802469132,41.75246913580245,0)" xlink:href="#aG"/><use transform="matrix(0.07469135802469132,0,0,0.07469135802469132,56.69074074074072,0)" xlink:href="#az"/><use transform="matrix(0.07469135802469132,0,0,0.07469135802469132,71.62901234567897,0)" xlink:href="#aI"/><use transform="matrix(0.07469135802469132,0,0,0.07469135802469132,85.07345679012342,0)" xlink:href="#aB"/><use transform="matrix(0.07469135802469132,0,0,0.07469135802469132,100.01172839506168,0)" xlink:href="#aM"/></g><g id="v"><use transform="matrix(0.07469135802469132,0,0,0.07469135802469132,0,0)" xlink:href="#aI"/><use transform="matrix(0.07469135802469132,0,0,0.07469135802469132,13.444444444444438,0)" xlink:href="#aP"/><use transform="matrix(0.07469135802469132,0,0,0.07469135802469132,26.888888888888875,0)" xlink:href="#aI"/><use transform="matrix(0.07469135802469132,0,0,0.07469135802469132,40.333333333333314,0)" xlink:href="#ax"/><use transform="matrix(0.07469135802469132,0,0,0.07469135802469132,47.80246913580244,0)" xlink:href="#au"/><use transform="matrix(0.07469135802469132,0,0,0.07469135802469132,62.74074074074071,0)" xlink:href="#av"/></g><path d="M68-38c1 34 0 65-14 84H32c9-13 17-26 17-46H33v-38h35" id="aV"/><g id="w"><use transform="matrix(0.07469135802469132,0,0,0.07469135802469132,0,0)" xlink:href="#aJ"/><use transform="matrix(0.07469135802469132,0,0,0.07469135802469132,19.345061728395052,0)" xlink:href="#az"/><use transform="matrix(0.07469135802469132,0,0,0.07469135802469132,34.28333333333332,0)" xlink:href="#aC"/><use transform="matrix(0.07469135802469132,0,0,0.07469135802469132,47.72777777777775,0)" xlink:href="#aH"/><use transform="matrix(0.07469135802469132,0,0,0.07469135802469132,62.66604938271602,0)" xlink:href="#av"/><use transform="matrix(0.07469135802469132,0,0,0.07469135802469132,84.99876543209872,0)" xlink:href="#au"/><use transform="matrix(0.07469135802469132,0,0,0.07469135802469132,99.93703703703699,0)" xlink:href="#aw"/><use transform="matrix(0.07469135802469132,0,0,0.07469135802469132,114.87530864197525,0)" xlink:href="#ax"/><use transform="matrix(0.07469135802469132,0,0,0.07469135802469132,122.34444444444438,0)" xlink:href="#aI"/><use transform="matrix(0.07469135802469132,0,0,0.07469135802469132,135.7888888888888,0)" xlink:href="#aV"/></g><g id="x"><use transform="matrix(0.07469135802469132,0,0,0.07469135802469132,0,0)" xlink:href="#aC"/><use transform="matrix(0.07469135802469132,0,0,0.07469135802469132,13.444444444444438,0)" xlink:href="#aT"/><use transform="matrix(0.07469135802469132,0,0,0.07469135802469132,28.3827160493827,0)" xlink:href="#aB"/><use transform="matrix(0.07469135802469132,0,0,0.07469135802469132,43.320987654320966,0)" xlink:href="#ax"/><use transform="matrix(0.07469135802469132,0,0,0.07469135802469132,50.7901234567901,0)" xlink:href="#aV"/></g><g id="y"><use transform="matrix(0.07469135802469132,0,0,0.07469135802469132,0,0)" xlink:href="#aG"/><use transform="matrix(0.07469135802469132,0,0,0.07469135802469132,14.938271604938263,0)" xlink:href="#az"/><use transform="matrix(0.07469135802469132,0,0,0.07469135802469132,29.876543209876527,0)" xlink:href="#aI"/><use transform="matrix(0.07469135802469132,0,0,0.07469135802469132,43.320987654320966,0)" xlink:href="#ax"/><use transform="matrix(0.07469135802469132,0,0,0.07469135802469132,50.7901234567901,0)" xlink:href="#aI"/><use transform="matrix(0.07469135802469132,0,0,0.07469135802469132,64.23456790123454,0)" xlink:href="#aV"/></g><g id="z"><use transform="matrix(0.07469135802469132,0,0,0.07469135802469132,0,0)" xlink:href="#au"/><use transform="matrix(0.07469135802469132,0,0,0.07469135802469132,14.938271604938263,0)" xlink:href="#aA"/><use transform="matrix(0.07469135802469132,0,0,0.07469135802469132,28.3827160493827,0)" xlink:href="#aF"/><use transform="matrix(0.07469135802469132,0,0,0.07469135802469132,34.28333333333332,0)" xlink:href="#aE"/><use transform="matrix(0.07469135802469132,0,0,0.07469135802469132,49.221604938271575,0)" xlink:href="#au"/><use transform="matrix(0.07469135802469132,0,0,0.07469135802469132,64.15987654320985,0)" xlink:href="#aw"/><use transform="matrix(0.07469135802469132,0,0,0.07469135802469132,79.09814814814811,0)" xlink:href="#aC"/><use transform="matrix(0.07469135802469132,0,0,0.07469135802469132,92.54259259259256,0)" xlink:href="#au"/></g><g id="A"><use transform="matrix(0.07469135802469132,0,0,0.07469135802469132,0,0)" xlink:href="#aF"/><use transform="matrix(0.07469135802469132,0,0,0.07469135802469132,5.900617283950614,0)" xlink:href="#aw"/></g><g id="B"><use transform="matrix(0.07469135802469132,0,0,0.07469135802469132,0,0)" xlink:href="#ax"/><use transform="matrix(0.07469135802469132,0,0,0.07469135802469132,7.469135802469132,0)" xlink:href="#aT"/><use transform="matrix(0.07469135802469132,0,0,0.07469135802469132,22.407407407407394,0)" xlink:href="#au"/></g><path d="M206 0h-36l-40-164L89 0H53L-1-190h32L70-26l43-164h34l41 164 42-164h31" id="aW"/><g id="C"><use transform="matrix(0.07469135802469132,0,0,0.07469135802469132,0,0)" xlink:href="#aW"/><use transform="matrix(0.07469135802469132,0,0,0.07469135802469132,19.345061728395052,0)" xlink:href="#aF"/><use transform="matrix(0.07469135802469132,0,0,0.07469135802469132,25.245679012345665,0)" xlink:href="#aM"/><use transform="matrix(0.07469135802469132,0,0,0.07469135802469132,31.14629629629628,0)" xlink:href="#aE"/></g><path d="M266 0h-40l-56-210L115 0H75L2-248h35L96-30l15-64 43-154h32l59 218 59-218h35" id="aX"/><path d="M115-194c53 0 69 39 70 98 0 66-23 100-70 100C84 3 66-7 56-30L54 0H23l1-261h32v101c10-23 28-34 59-34zm-8 174c40 0 45-34 45-75 0-40-5-75-45-74-42 0-51 32-51 76 0 43 10 73 51 73" id="aY"/><g id="D"><use transform="matrix(0.07469135802469132,0,0,0.07469135802469132,0,0)" xlink:href="#aX"/><use transform="matrix(0.07469135802469132,0,0,0.07469135802469132,24.79753086419752,0)" xlink:href="#au"/><use transform="matrix(0.07469135802469132,0,0,0.07469135802469132,39.735802469135784,0)" xlink:href="#aY"/><use transform="matrix(0.07469135802469132,0,0,0.07469135802469132,54.67407407407404,0)" xlink:href="#aI"/><use transform="matrix(0.07469135802469132,0,0,0.07469135802469132,68.11851851851848,0)" xlink:href="#aF"/><use transform="matrix(0.07469135802469132,0,0,0.07469135802469132,74.0191358024691,0)" xlink:href="#ax"/><use transform="matrix(0.07469135802469132,0,0,0.07469135802469132,81.48827160493823,0)" xlink:href="#au"/><use transform="matrix(0.07469135802469132,0,0,0.07469135802469132,96.42654320987648,0)" xlink:href="#aI"/></g><g id="E"><use transform="matrix(0.05617283950617281,0,0,0.05617283950617281,0,0)" xlink:href="#aH"/><use transform="matrix(0.05617283950617281,0,0,0.05617283950617281,11.234567901234561,0)" xlink:href="#aG"/><use transform="matrix(0.05617283950617281,0,0,0.05617283950617281,22.469135802469122,0)" xlink:href="#aM"/><use transform="matrix(0.05617283950617281,0,0,0.05617283950617281,26.906790123456773,0)" xlink:href="#az"/><use transform="matrix(0.05617283950617281,0,0,0.05617283950617281,38.141358024691336,0)" xlink:href="#aB"/><use transform="matrix(0.05617283950617281,0,0,0.05617283950617281,49.3759259259259,0)" xlink:href="#aE"/></g><g id="F"><use transform="matrix(0.05617283950617281,0,0,0.05617283950617281,0,0)" xlink:href="#aB"/><use transform="matrix(0.05617283950617281,0,0,0.05617283950617281,11.234567901234561,0)" xlink:href="#aE"/><use transform="matrix(0.05617283950617281,0,0,0.05617283950617281,22.469135802469122,0)" xlink:href="#aE"/><use transform="matrix(0.05617283950617281,0,0,0.05617283950617281,33.70370370370368,0)" xlink:href="#at"/><use transform="matrix(0.05617283950617281,0,0,0.05617283950617281,40.38827160493825,0)" xlink:href="#au"/><use transform="matrix(0.05617283950617281,0,0,0.05617283950617281,51.62283950617281,0)" xlink:href="#aI"/><use transform="matrix(0.05617283950617281,0,0,0.05617283950617281,61.73395061728392,0)" xlink:href="#aI"/></g><path d="M33 0v-248h34V0H33" id="aZ"/><g id="G"><use transform="matrix(0.07469135802469132,0,0,0.07469135802469132,0,0)" xlink:href="#aZ"/><use transform="matrix(0.07469135802469132,0,0,0.07469135802469132,7.469135802469132,0)" xlink:href="#aw"/><use transform="matrix(0.07469135802469132,0,0,0.07469135802469132,22.407407407407394,0)" xlink:href="#ax"/><use transform="matrix(0.07469135802469132,0,0,0.07469135802469132,29.876543209876527,0)" xlink:href="#au"/><use transform="matrix(0.07469135802469132,0,0,0.07469135802469132,44.81481481481479,0)" xlink:href="#at"/><use transform="matrix(0.07469135802469132,0,0,0.07469135802469132,53.703086419753056,0)" xlink:href="#aK"/><use transform="matrix(0.07469135802469132,0,0,0.07469135802469132,61.17222222222219,0)" xlink:href="#aB"/><use transform="matrix(0.07469135802469132,0,0,0.07469135802469132,76.11049382716045,0)" xlink:href="#aC"/><use transform="matrix(0.07469135802469132,0,0,0.07469135802469132,89.5549382716049,0)" xlink:href="#au"/></g><path d="M232-93c-1 65-40 97-104 97C67 4 28-28 28-90v-158h33c8 89-33 224 67 224 102 0 64-133 71-224h33v155" id="ba"/><g id="H"><use transform="matrix(0.07469135802469132,0,0,0.07469135802469132,0,0)" xlink:href="#ba"/><use transform="matrix(0.07469135802469132,0,0,0.07469135802469132,19.345061728395052,0)" xlink:href="#aI"/><use transform="matrix(0.07469135802469132,0,0,0.07469135802469132,32.78950617283949,0)" xlink:href="#au"/><use transform="matrix(0.07469135802469132,0,0,0.07469135802469132,47.72777777777775,0)" xlink:href="#at"/></g><g id="I"><use transform="matrix(0.07469135802469132,0,0,0.07469135802469132,0,0)" xlink:href="#ar"/><use transform="matrix(0.07469135802469132,0,0,0.07469135802469132,17.925925925925917,0)" xlink:href="#aC"/><use transform="matrix(0.07469135802469132,0,0,0.07469135802469132,31.370370370370352,0)" xlink:href="#ax"/><use transform="matrix(0.07469135802469132,0,0,0.07469135802469132,38.839506172839485,0)" xlink:href="#aF"/><use transform="matrix(0.07469135802469132,0,0,0.07469135802469132,44.7401234567901,0)" xlink:href="#az"/><use transform="matrix(0.07469135802469132,0,0,0.07469135802469132,59.67839506172836,0)" xlink:href="#aw"/><use transform="matrix(0.07469135802469132,0,0,0.07469135802469132,74.61666666666663,0)" xlink:href="#aV"/></g><g id="J"><use transform="matrix(0.07469135802469132,0,0,0.07469135802469132,0,0)" xlink:href="#aZ"/><use transform="matrix(0.07469135802469132,0,0,0.07469135802469132,7.469135802469132,0)" xlink:href="#aw"/><use transform="matrix(0.07469135802469132,0,0,0.07469135802469132,22.407407407407394,0)" xlink:href="#aK"/><use transform="matrix(0.07469135802469132,0,0,0.07469135802469132,29.876543209876527,0)" xlink:href="#at"/><use transform="matrix(0.07469135802469132,0,0,0.07469135802469132,38.76481481481479,0)" xlink:href="#aB"/><use transform="matrix(0.07469135802469132,0,0,0.07469135802469132,53.703086419753056,0)" xlink:href="#aC"/><use transform="matrix(0.07469135802469132,0,0,0.07469135802469132,67.14753086419749,0)" xlink:href="#ax"/><use transform="matrix(0.07469135802469132,0,0,0.07469135802469132,74.61666666666662,0)" xlink:href="#aF"/><use transform="matrix(0.07469135802469132,0,0,0.07469135802469132,80.51728395061723,0)" xlink:href="#az"/><use transform="matrix(0.07469135802469132,0,0,0.07469135802469132,95.45555555555549,0)" xlink:href="#aw"/><use transform="matrix(0.07469135802469132,0,0,0.07469135802469132,110.39382716049376,0)" xlink:href="#aV"/></g><g id="K"><use transform="matrix(0.07469135802469132,0,0,0.07469135802469132,0,0)" xlink:href="#aD"/><use transform="matrix(0.07469135802469132,0,0,0.07469135802469132,17.925925925925917,0)" xlink:href="#aw"/><use transform="matrix(0.07469135802469132,0,0,0.07469135802469132,32.86419753086418,0)" xlink:href="#aK"/><use transform="matrix(0.07469135802469132,0,0,0.07469135802469132,40.333333333333314,0)" xlink:href="#az"/><use transform="matrix(0.07469135802469132,0,0,0.07469135802469132,55.27160493827159,0)" xlink:href="#at"/><use transform="matrix(0.07469135802469132,0,0,0.07469135802469132,64.15987654320985,0)" xlink:href="#aC"/><use transform="matrix(0.07469135802469132,0,0,0.07469135802469132,77.60432098765429,0)" xlink:href="#au"/><use transform="matrix(0.07469135802469132,0,0,0.07469135802469132,92.54259259259256,0)" xlink:href="#av"/><use transform="matrix(0.07469135802469132,0,0,0.07469135802469132,114.87530864197527,0)" xlink:href="#au"/><use transform="matrix(0.07469135802469132,0,0,0.07469135802469132,129.81358024691352,0)" xlink:href="#aw"/><use transform="matrix(0.07469135802469132,0,0,0.07469135802469132,144.75185185185177,0)" xlink:href="#ax"/></g><g id="L"><use transform="matrix(0.07469135802469132,0,0,0.07469135802469132,0,0)" xlink:href="#aJ"/><use transform="matrix(0.07469135802469132,0,0,0.07469135802469132,19.345061728395052,0)" xlink:href="#aB"/><use transform="matrix(0.07469135802469132,0,0,0.07469135802469132,34.28333333333332,0)" xlink:href="#ax"/><use transform="matrix(0.07469135802469132,0,0,0.07469135802469132,41.75246913580245,0)" xlink:href="#aB"/></g><g id="M"><use transform="matrix(0.07469135802469132,0,0,0.07469135802469132,0,0)" xlink:href="#aO"/><use transform="matrix(0.07469135802469132,0,0,0.07469135802469132,22.332716049382704,0)" xlink:href="#az"/><use transform="matrix(0.07469135802469132,0,0,0.07469135802469132,37.27098765432097,0)" xlink:href="#aE"/><use transform="matrix(0.07469135802469132,0,0,0.07469135802469132,52.209259259259234,0)" xlink:href="#aH"/><use transform="matrix(0.07469135802469132,0,0,0.07469135802469132,67.14753086419749,0)" xlink:href="#aM"/><use transform="matrix(0.07469135802469132,0,0,0.07469135802469132,73.0481481481481,0)" xlink:href="#au"/><use transform="matrix(0.07469135802469132,0,0,0.07469135802469132,87.98641975308637,0)" xlink:href="#aI"/></g><g id="N"><use transform="matrix(0.07469135802469132,0,0,0.07469135802469132,0,0)" xlink:href="#aS"/><use transform="matrix(0.07469135802469132,0,0,0.07469135802469132,17.925925925925917,0)" xlink:href="#aM"/><use transform="matrix(0.07469135802469132,0,0,0.07469135802469132,23.82654320987653,0)" xlink:href="#aB"/><use transform="matrix(0.07469135802469132,0,0,0.07469135802469132,38.76481481481479,0)" xlink:href="#ax"/><use transform="matrix(0.07469135802469132,0,0,0.07469135802469132,46.233950617283924,0)" xlink:href="#aK"/><use transform="matrix(0.07469135802469132,0,0,0.07469135802469132,53.703086419753056,0)" xlink:href="#az"/><use transform="matrix(0.07469135802469132,0,0,0.07469135802469132,68.64135802469131,0)" xlink:href="#at"/><use transform="matrix(0.07469135802469132,0,0,0.07469135802469132,77.52962962962958,0)" xlink:href="#av"/></g><g id="O"><use transform="matrix(0.07469135802469132,0,0,0.07469135802469132,0,0)" xlink:href="#aS"/><use transform="matrix(0.07469135802469132,0,0,0.07469135802469132,17.925925925925917,0)" xlink:href="#aM"/><use transform="matrix(0.07469135802469132,0,0,0.07469135802469132,23.82654320987653,0)" xlink:href="#aB"/><use transform="matrix(0.07469135802469132,0,0,0.07469135802469132,38.76481481481479,0)" xlink:href="#ax"/><use transform="matrix(0.07469135802469132,0,0,0.07469135802469132,46.233950617283924,0)" xlink:href="#aK"/><use transform="matrix(0.07469135802469132,0,0,0.07469135802469132,53.703086419753056,0)" xlink:href="#az"/><use transform="matrix(0.07469135802469132,0,0,0.07469135802469132,68.64135802469131,0)" xlink:href="#at"/><use transform="matrix(0.07469135802469132,0,0,0.07469135802469132,77.52962962962958,0)" xlink:href="#av"/></g><g id="P"><use transform="matrix(0.05617283950617281,0,0,0.05617283950617281,0,0)" xlink:href="#ar"/><use transform="matrix(0.05617283950617281,0,0,0.05617283950617281,13.481481481481474,0)" xlink:href="#aS"/><use transform="matrix(0.05617283950617281,0,0,0.05617283950617281,26.962962962962948,0)" xlink:href="#aZ"/></g><g id="Q"><use transform="matrix(0.05617283950617281,0,0,0.05617283950617281,0,0)" xlink:href="#ar"/><use transform="matrix(0.05617283950617281,0,0,0.05617283950617281,13.481481481481474,0)" xlink:href="#aS"/><use transform="matrix(0.05617283950617281,0,0,0.05617283950617281,26.962962962962948,0)" xlink:href="#aZ"/></g><g id="R"><use transform="matrix(0.05617283950617281,0,0,0.05617283950617281,0,0)" xlink:href="#aE"/><use transform="matrix(0.05617283950617281,0,0,0.05617283950617281,11.234567901234561,0)" xlink:href="#az"/><use transform="matrix(0.05617283950617281,0,0,0.05617283950617281,22.469135802469122,0)" xlink:href="#aC"/><use transform="matrix(0.05617283950617281,0,0,0.05617283950617281,32.580246913580226,0)" xlink:href="#aH"/><use transform="matrix(0.05617283950617281,0,0,0.05617283950617281,43.81481481481479,0)" xlink:href="#av"/><use transform="matrix(0.05617283950617281,0,0,0.05617283950617281,60.61049382716046,0)" xlink:href="#au"/><use transform="matrix(0.05617283950617281,0,0,0.05617283950617281,71.84506172839501,0)" xlink:href="#aw"/><use transform="matrix(0.05617283950617281,0,0,0.05617283950617281,83.07962962962957,0)" xlink:href="#ax"/><use transform="matrix(0.05617283950617281,0,0,0.05617283950617281,88.69691358024684,0)" xlink:href="#aB"/><use transform="matrix(0.05617283950617281,0,0,0.05617283950617281,99.9314814814814,0)" xlink:href="#ax"/><use transform="matrix(0.05617283950617281,0,0,0.05617283950617281,105.54876543209868,0)" xlink:href="#aF"/><use transform="matrix(0.05617283950617281,0,0,0.05617283950617281,109.98641975308632,0)" xlink:href="#az"/><use transform="matrix(0.05617283950617281,0,0,0.05617283950617281,121.22098765432087,0)" xlink:href="#aw"/><use transform="matrix(0.05617283950617281,0,0,0.05617283950617281,132.45555555555543,0)" xlink:href="#aV"/></g><g id="S"><use transform="matrix(0.05617283950617281,0,0,0.05617283950617281,0,0)" xlink:href="#ba"/><use transform="matrix(0.05617283950617281,0,0,0.05617283950617281,14.548765432098756,0)" xlink:href="#aI"/><use transform="matrix(0.05617283950617281,0,0,0.05617283950617281,24.65987654320986,0)" xlink:href="#au"/><use transform="matrix(0.05617283950617281,0,0,0.05617283950617281,35.894444444444424,0)" xlink:href="#at"/><use transform="matrix(0.05617283950617281,0,0,0.05617283950617281,42.57901234567899,0)" xlink:href="#aI"/></g><path d="M141 0L90-78 38 0H4l68-98-65-92h35l48 74 47-74h35l-64 92 68 98h-35" id="bb"/><g id="T"><use transform="matrix(0.05617283950617281,0,0,0.05617283950617281,0,0)" xlink:href="#au"/><use transform="matrix(0.05617283950617281,0,0,0.05617283950617281,11.234567901234561,0)" xlink:href="#bb"/><use transform="matrix(0.05617283950617281,0,0,0.05617283950617281,21.345679012345666,0)" xlink:href="#aG"/><use transform="matrix(0.05617283950617281,0,0,0.05617283950617281,32.580246913580226,0)" xlink:href="#az"/><use transform="matrix(0.05617283950617281,0,0,0.05617283950617281,43.81481481481479,0)" xlink:href="#at"/><use transform="matrix(0.05617283950617281,0,0,0.05617283950617281,50.499382716049354,0)" xlink:href="#ax"/><use transform="matrix(0.05617283950617281,0,0,0.05617283950617281,56.11666666666663,0)" xlink:href="#aI"/></g><g id="U"><use transform="matrix(0.05617283950617281,0,0,0.05617283950617281,0,0)" xlink:href="#ax"/><use transform="matrix(0.05617283950617281,0,0,0.05617283950617281,5.6172839506172805,0)" xlink:href="#az"/></g><g id="V"><use transform="matrix(0.05617283950617281,0,0,0.05617283950617281,0,0)" xlink:href="#az"/><use transform="matrix(0.05617283950617281,0,0,0.05617283950617281,11.234567901234561,0)" xlink:href="#aG"/><use transform="matrix(0.05617283950617281,0,0,0.05617283950617281,22.469135802469122,0)" xlink:href="#au"/><use transform="matrix(0.05617283950617281,0,0,0.05617283950617281,33.70370370370368,0)" xlink:href="#at"/><use transform="matrix(0.05617283950617281,0,0,0.05617283950617281,40.38827160493825,0)" xlink:href="#aB"/><use transform="matrix(0.05617283950617281,0,0,0.05617283950617281,51.62283950617281,0)" xlink:href="#ax"/><use transform="matrix(0.05617283950617281,0,0,0.05617283950617281,57.24012345679009,0)" xlink:href="#au"/><use transform="matrix(0.05617283950617281,0,0,0.05617283950617281,68.47469135802464,0)" xlink:href="#aI"/></g><g id="W"><use transform="matrix(0.05617283950617281,0,0,0.05617283950617281,0,0)" xlink:href="#av"/><use transform="matrix(0.05617283950617281,0,0,0.05617283950617281,16.79567901234567,0)" xlink:href="#au"/><use transform="matrix(0.05617283950617281,0,0,0.05617283950617281,28.03024691358023,0)" xlink:href="#aI"/><use transform="matrix(0.05617283950617281,0,0,0.05617283950617281,38.141358024691336,0)" xlink:href="#aI"/><use transform="matrix(0.05617283950617281,0,0,0.05617283950617281,48.25246913580244,0)" xlink:href="#aB"/><use transform="matrix(0.05617283950617281,0,0,0.05617283950617281,59.487037037037005,0)" xlink:href="#as"/><use transform="matrix(0.05617283950617281,0,0,0.05617283950617281,70.72160493827157,0)" xlink:href="#au"/></g><g id="X"><use transform="matrix(0.08641975308641976,0,0,0.08641975308641976,0,0)" xlink:href="#aN"/><use transform="matrix(0.08641975308641976,0,0,0.08641975308641976,20.740740740740744,0)" xlink:href="#ax"/><use transform="matrix(0.08641975308641976,0,0,0.08641975308641976,29.382716049382726,0)" xlink:href="#aB"/><use transform="matrix(0.08641975308641976,0,0,0.08641975308641976,46.66666666666667,0)" xlink:href="#ax"/><use transform="matrix(0.08641975308641976,0,0,0.08641975308641976,55.308641975308646,0)" xlink:href="#au"/></g><g id="Y"><use transform="matrix(0.08641975308641976,0,0,0.08641975308641976,0,0)" xlink:href="#az"/><use transform="matrix(0.08641975308641976,0,0,0.08641975308641976,17.283950617283953,0)" xlink:href="#aK"/></g><g id="Z"><use transform="matrix(0.08641975308641976,0,0,0.08641975308641976,0,0)" xlink:href="#aw"/><use transform="matrix(0.08641975308641976,0,0,0.08641975308641976,17.283950617283953,0)" xlink:href="#aB"/><use transform="matrix(0.08641975308641976,0,0,0.08641975308641976,34.567901234567906,0)" xlink:href="#ax"/><use transform="matrix(0.08641975308641976,0,0,0.08641975308641976,43.20987654320988,0)" xlink:href="#aH"/><use transform="matrix(0.08641975308641976,0,0,0.08641975308641976,60.49382716049384,0)" xlink:href="#at"/><use transform="matrix(0.08641975308641976,0,0,0.08641975308641976,70.77777777777779,0)" xlink:href="#au"/></g><g id="aa"><use transform="matrix(0.07407407407407406,0,0,0.07407407407407406,0,0)" xlink:href="#aJ"/><use transform="matrix(0.07407407407407406,0,0,0.07407407407407406,19.18518518518518,0)" xlink:href="#au"/><use transform="matrix(0.07407407407407406,0,0,0.07407407407407406,33.99999999999999,0)" xlink:href="#aM"/><use transform="matrix(0.07407407407407406,0,0,0.07407407407407406,39.85185185185184,0)" xlink:href="#aF"/><use transform="matrix(0.07407407407407406,0,0,0.07407407407407406,45.70370370370368,0)" xlink:href="#aY"/><use transform="matrix(0.07407407407407406,0,0,0.07407407407407406,60.5185185185185,0)" xlink:href="#au"/><use transform="matrix(0.07407407407407406,0,0,0.07407407407407406,75.33333333333331,0)" xlink:href="#at"/><use transform="matrix(0.07407407407407406,0,0,0.07407407407407406,84.14814814814812,0)" xlink:href="#aB"/><use transform="matrix(0.07407407407407406,0,0,0.07407407407407406,98.96296296296293,0)" xlink:href="#ax"/><use transform="matrix(0.07407407407407406,0,0,0.07407407407407406,106.37037037037034,0)" xlink:href="#aF"/><use transform="matrix(0.07407407407407406,0,0,0.07407407407407406,112.22222222222217,0)" xlink:href="#az"/><use transform="matrix(0.07407407407407406,0,0,0.07407407407407406,127.037037037037,0)" xlink:href="#aw"/></g><g id="ab"><use transform="matrix(0.07407407407407406,0,0,0.07407407407407406,0,0)" xlink:href="#aI"/><use transform="matrix(0.07407407407407406,0,0,0.07407407407407406,13.33333333333333,0)" xlink:href="#aG"/><use transform="matrix(0.07407407407407406,0,0,0.07407407407407406,28.14814814814814,0)" xlink:href="#aB"/><use transform="matrix(0.07407407407407406,0,0,0.07407407407407406,42.962962962962955,0)" xlink:href="#aC"/><use transform="matrix(0.07407407407407406,0,0,0.07407407407407406,56.29629629629628,0)" xlink:href="#au"/></g><path d="M212-179c-10-28-35-45-73-45-59 0-87 40-87 99 0 60 29 101 89 101 43 0 62-24 78-52l27 14C228-24 195 4 139 4 59 4 22-46 18-125c-6-104 99-153 187-111 19 9 31 26 39 46" id="bc"/><g id="ac"><use transform="matrix(0.07469135802469132,0,0,0.07469135802469132,0,0)" xlink:href="#bc"/><use transform="matrix(0.07469135802469132,0,0,0.07469135802469132,19.345061728395052,0)" xlink:href="#az"/><use transform="matrix(0.07469135802469132,0,0,0.07469135802469132,34.28333333333332,0)" xlink:href="#aw"/><use transform="matrix(0.07469135802469132,0,0,0.07469135802469132,49.221604938271575,0)" xlink:href="#aI"/><use transform="matrix(0.07469135802469132,0,0,0.07469135802469132,62.66604938271602,0)" xlink:href="#ax"/><use transform="matrix(0.07469135802469132,0,0,0.07469135802469132,70.13518518518515,0)" xlink:href="#aF"/><use transform="matrix(0.07469135802469132,0,0,0.07469135802469132,76.03580246913576,0)" xlink:href="#ax"/><use transform="matrix(0.07469135802469132,0,0,0.07469135802469132,83.5049382716049,0)" xlink:href="#aH"/><use transform="matrix(0.07469135802469132,0,0,0.07469135802469132,98.44320987654315,0)" xlink:href="#ax"/><use transform="matrix(0.07469135802469132,0,0,0.07469135802469132,105.91234567901228,0)" xlink:href="#aF"/><use transform="matrix(0.07469135802469132,0,0,0.07469135802469132,111.81296296296289,0)" xlink:href="#az"/><use transform="matrix(0.07469135802469132,0,0,0.07469135802469132,126.75123456790115,0)" xlink:href="#aw"/></g><g id="ad"><use transform="matrix(0.05,0,0,0.05,0,0)" xlink:href="#as"/><use transform="matrix(0.05,0,0,0.05,10,0)" xlink:href="#az"/><use transform="matrix(0.05,0,0,0.05,20,0)" xlink:href="#aA"/><use transform="matrix(0.05,0,0,0.05,29,0)" xlink:href="#au"/><use transform="matrix(0.05,0,0,0.05,39,0)" xlink:href="#at"/><use transform="matrix(0.05,0,0,0.05,44.95,0)" xlink:href="#aw"/><use transform="matrix(0.05,0,0,0.05,54.95,0)" xlink:href="#aI"/></g><g id="ae"><use transform="matrix(0.07469135802469132,0,0,0.07469135802469132,0,0)" xlink:href="#aD"/><use transform="matrix(0.07469135802469132,0,0,0.07469135802469132,17.925925925925917,0)" xlink:href="#aw"/><use transform="matrix(0.07469135802469132,0,0,0.07469135802469132,32.86419753086418,0)" xlink:href="#aK"/><use transform="matrix(0.07469135802469132,0,0,0.07469135802469132,40.333333333333314,0)" xlink:href="#az"/><use transform="matrix(0.07469135802469132,0,0,0.07469135802469132,55.27160493827159,0)" xlink:href="#at"/><use transform="matrix(0.07469135802469132,0,0,0.07469135802469132,64.15987654320985,0)" xlink:href="#aC"/><use transform="matrix(0.07469135802469132,0,0,0.07469135802469132,77.60432098765429,0)" xlink:href="#au"/><use transform="matrix(0.07469135802469132,0,0,0.07469135802469132,92.54259259259256,0)" xlink:href="#av"/><use transform="matrix(0.07469135802469132,0,0,0.07469135802469132,114.87530864197527,0)" xlink:href="#au"/><use transform="matrix(0.07469135802469132,0,0,0.07469135802469132,129.81358024691352,0)" xlink:href="#aw"/><use transform="matrix(0.07469135802469132,0,0,0.07469135802469132,144.75185185185177,0)" xlink:href="#ax"/></g><g id="af"><use transform="matrix(0.07469135802469132,0,0,0.07469135802469132,0,0)" xlink:href="#aO"/><use transform="matrix(0.07469135802469132,0,0,0.07469135802469132,22.332716049382704,0)" xlink:href="#au"/><use transform="matrix(0.07469135802469132,0,0,0.07469135802469132,37.27098765432097,0)" xlink:href="#aC"/><use transform="matrix(0.07469135802469132,0,0,0.07469135802469132,50.715432098765405,0)" xlink:href="#aT"/><use transform="matrix(0.07469135802469132,0,0,0.07469135802469132,65.65370370370367,0)" xlink:href="#aB"/><use transform="matrix(0.07469135802469132,0,0,0.07469135802469132,80.59197530864193,0)" xlink:href="#aw"/><use transform="matrix(0.07469135802469132,0,0,0.07469135802469132,95.5302469135802,0)" xlink:href="#aF"/><use transform="matrix(0.07469135802469132,0,0,0.07469135802469132,101.43086419753081,0)" xlink:href="#aI"/><use transform="matrix(0.07469135802469132,0,0,0.07469135802469132,114.87530864197525,0)" xlink:href="#av"/><use transform="matrix(0.07469135802469132,0,0,0.07469135802469132,137.20802469135796,0)" xlink:href="#aI"/></g><g id="ag"><use transform="matrix(0.05,0,0,0.05,0,0)" xlink:href="#aI"/><use transform="matrix(0.05,0,0,0.05,9,0)" xlink:href="#au"/><use transform="matrix(0.05,0,0,0.05,19,0)" xlink:href="#ax"/><use transform="matrix(0.05,0,0,0.05,24,0)" xlink:href="#aI"/></g><g id="ah"><use transform="matrix(0.05,0,0,0.05,0,0)" xlink:href="#au"/><use transform="matrix(0.05,0,0,0.05,10,0)" xlink:href="#aw"/><use transform="matrix(0.05,0,0,0.05,20,0)" xlink:href="#aK"/><use transform="matrix(0.05,0,0,0.05,25,0)" xlink:href="#az"/><use transform="matrix(0.05,0,0,0.05,35,0)" xlink:href="#at"/><use transform="matrix(0.05,0,0,0.05,40.95,0)" xlink:href="#aC"/><use transform="matrix(0.05,0,0,0.05,49.95,0)" xlink:href="#au"/><use transform="matrix(0.05,0,0,0.05,59.95,0)" xlink:href="#aI"/></g><path d="M27 0v-27h64v-190l-56 39v-29l58-41h29v221h61V0H27" id="bd"/><use transform="matrix(0.06234567901234567,0,0,0.06234567901234567,0,0)" xlink:href="#bd" id="ai"/><use transform="matrix(0.06234567901234567,0,0,0.06234567901234567,0,0)" xlink:href="#aQ" id="aj"/><path d="M155-56V0h-30v-56H8v-25l114-167h33v167h35v25h-35zm-30-156c-27 46-58 90-88 131h88v-131" id="be"/><use transform="matrix(0.06234567901234567,0,0,0.06234567901234567,0,0)" xlink:href="#be" id="ak"/><path d="M126-127c33 6 58 20 58 59 0 88-139 92-164 29-3-8-5-16-6-25l32-3c6 27 21 44 54 44 32 0 52-15 52-46 0-38-36-46-79-43v-28c39 1 72-4 72-42 0-27-17-43-46-43-28 0-47 15-49 41l-32-3c6-42 35-63 81-64 48-1 79 21 79 65 0 36-21 52-52 59" id="bf"/><use transform="matrix(0.06234567901234567,0,0,0.06234567901234567,0,0)" xlink:href="#bf" id="al"/><path d="M110-160c48 1 74 30 74 79 0 53-28 85-80 85-65 0-83-55-86-122-5-90 50-162 133-122 14 7 22 21 27 39l-31 6c-5-40-67-38-82-6-9 19-15 44-15 74 11-20 30-34 60-33zm-7 138c34 0 49-23 49-58s-16-56-50-56c-29 0-50 16-49 49 1 36 15 65 50 65" id="bg"/><use transform="matrix(0.06234567901234567,0,0,0.06234567901234567,0,0)" xlink:href="#bg" id="am"/><path d="M64 0c3-98 48-159 88-221H18v-27h164v26C143-157 98-101 97 0H64" id="bh"/><use transform="matrix(0.06234567901234567,0,0,0.06234567901234567,0,0)" xlink:href="#bh" id="an"/><g id="ao"><use transform="matrix(0.07469135802469132,0,0,0.07469135802469132,0,0)" xlink:href="#aN"/><use transform="matrix(0.07469135802469132,0,0,0.07469135802469132,17.925925925925917,0)" xlink:href="#aC"/><use transform="matrix(0.07469135802469132,0,0,0.07469135802469132,31.370370370370352,0)" xlink:href="#au"/><use transform="matrix(0.07469135802469132,0,0,0.07469135802469132,46.30864197530862,0)" xlink:href="#aw"/><use transform="matrix(0.07469135802469132,0,0,0.07469135802469132,61.24691358024688,0)" xlink:href="#aB"/><use transform="matrix(0.07469135802469132,0,0,0.07469135802469132,76.18518518518515,0)" xlink:href="#at"/><use transform="matrix(0.07469135802469132,0,0,0.07469135802469132,85.07345679012342,0)" xlink:href="#aF"/><use transform="matrix(0.07469135802469132,0,0,0.07469135802469132,90.97407407407403,0)" xlink:href="#az"/></g><path d="M54-142c48-35 137-8 131 61C196 18 31 33 14-55l32-4c7 23 22 37 52 37 35-1 51-22 54-58 4-55-73-65-99-34H22l8-134h141v27H59" id="bi"/><use transform="matrix(0.06234567901234567,0,0,0.06234567901234567,0,0)" xlink:href="#bi" id="ap"/><path d="M134-131c28 9 52 24 51 62-1 50-34 73-85 73S17-19 16-69c0-36 21-54 49-61-75-25-45-126 34-121 46 3 78 18 79 63 0 33-17 51-44 57zm-34-11c31 1 46-15 46-44 0-28-17-43-47-42-29 0-46 13-45 42 1 28 16 44 46 44zm1 122c35 0 51-18 51-52 0-30-18-46-53-46-33 0-51 17-51 47 0 34 19 51 53 51" id="bj"/><use transform="matrix(0.06234567901234567,0,0,0.06234567901234567,0,0)" xlink:href="#bj" id="aq"/></defs></g></svg>