<svg width="136" height="150" viewBox="0 0 136 150" fill="none" xmlns="http://www.w3.org/2000/svg">
<path fill-rule="evenodd" clip-rule="evenodd" d="M15.9385 49.7552C18.3392 49.7536 20.6855 49.0402 22.6808 47.7052C24.676 46.3702 26.2306 44.4734 27.1479 42.2549C28.0652 40.0363 28.304 37.5956 27.8341 35.2413C27.3643 32.887 26.2068 30.725 24.5082 29.0285C22.8095 27.3321 20.6459 26.1774 18.2911 25.7105C15.9362 25.2437 13.4958 25.4856 11.2784 26.4057C9.06107 27.3259 7.16635 28.8829 5.83387 30.8799C4.50138 32.8768 3.79095 35.2241 3.79248 37.6248C3.79248 39.2191 4.10678 40.7977 4.71737 42.2704C5.32795 43.7432 6.22281 45.0811 7.35087 46.2077C8.47892 47.3343 9.81801 48.2276 11.2915 48.8362C12.7651 49.4449 14.3442 49.7572 15.9385 49.7552V49.7552Z" fill="#A1BFEB"/>
<path fill-rule="evenodd" clip-rule="evenodd" d="M15.9386 26.559C13.7463 26.5574 11.6027 27.2062 9.77917 28.4232C7.95566 29.6403 6.53419 31.3709 5.69451 33.396C4.85482 35.4212 4.63465 37.6499 5.06198 39.8002C5.48931 41.9505 6.54481 43.9257 8.09503 45.476C9.64525 47.0262 11.6206 48.0817 13.7709 48.5091C15.9212 48.9364 18.1499 48.7163 20.1751 47.8766C22.2002 47.0369 23.9308 45.6154 25.1478 43.7919C26.3648 41.9684 27.0137 39.8249 27.0122 37.6325C27.0122 34.6956 25.8454 31.879 23.7687 29.8023C21.692 27.7256 18.8755 26.559 15.9386 26.559V26.559ZM15.9386 50.8275C13.3258 50.8275 10.7716 50.0527 8.59911 48.6011C6.42665 47.1495 4.73344 45.0863 3.73356 42.6724C2.73369 40.2585 2.47216 37.6023 2.98189 35.0397C3.49163 32.4771 4.74966 30.1232 6.59719 28.2757C8.44472 26.4282 10.7987 25.17 13.3613 24.6602C15.9239 24.1505 18.5802 24.4121 20.9941 25.412C23.408 26.4119 25.4712 28.1051 26.9228 30.2776C28.3744 32.45 29.1492 35.0042 29.1492 37.617C29.1492 41.1206 27.7573 44.4808 25.2798 46.9582C22.8024 49.4357 19.4423 50.8275 15.9386 50.8275Z" fill="#3464C3"/>
<path fill-rule="evenodd" clip-rule="evenodd" d="M68.0118 135.119C79.9096 135.12 91.5405 131.594 101.434 124.985C111.327 118.376 119.039 108.981 123.593 97.9896C128.147 86.9979 129.339 74.9026 127.019 63.2332C124.699 51.5638 118.97 40.8446 110.558 32.431C102.145 24.0175 91.427 18.2875 79.7579 15.9658C68.0888 13.6441 55.9933 14.8349 45.0011 19.3876C34.0088 23.9403 24.6134 31.6505 18.0032 41.5431C11.393 51.4356 7.86475 63.0663 7.86475 74.9641C7.86681 90.9161 14.2042 106.214 25.4833 117.495C36.7623 128.775 52.0597 135.115 68.0118 135.119Z" fill="white"/>
<path fill-rule="evenodd" clip-rule="evenodd" d="M68.0111 15.8816C56.3303 15.8816 44.9118 19.3454 35.1996 25.8349C25.4874 32.3244 17.9177 41.5481 13.4477 52.3397C8.97767 63.1314 7.80801 75.0062 10.0868 86.4625C12.3656 97.9188 17.9904 108.442 26.25 116.702C34.5095 124.961 45.0329 130.586 56.4892 132.865C67.9455 135.144 79.8202 133.974 90.6118 129.504C101.403 125.034 110.627 117.464 117.117 107.752C123.606 98.0398 127.07 86.6214 127.07 74.9406C127.047 59.2842 120.818 44.2754 109.747 33.2046C98.6761 22.1338 83.6676 15.9043 68.0111 15.8816V15.8816ZM68.0111 136.175C55.9068 136.174 44.0748 132.583 34.011 125.858C23.9473 119.132 16.1037 109.573 11.4723 98.3898C6.84093 87.2066 5.62955 74.9012 7.99136 63.0296C10.3532 51.1579 16.1821 40.2532 24.7411 31.6942C33.3002 23.1351 44.2049 17.3062 56.0766 14.9444C67.9482 12.5826 80.2537 13.794 91.4369 18.4254C102.62 23.0568 112.179 30.9002 118.905 40.9639C125.63 51.0276 129.221 62.8597 129.223 74.964C129.206 91.1932 122.752 106.753 111.276 118.229C99.8001 129.705 84.2403 136.159 68.0111 136.175V136.175Z" fill="#3464C3"/>
<path fill-rule="evenodd" clip-rule="evenodd" d="M94.3626 48.2009C106.594 46.7244 116.331 47.3384 122.897 49.5841C126.658 50.8819 129.456 52.7391 131.158 55.0238C132.07 56.2395 132.7 57.6424 133.004 59.1314C133.308 60.6204 133.277 62.1582 132.914 63.6339C132.347 66.4936 130.738 69.6331 128.026 72.959C128.026 71.2883 127.84 69.6098 127.669 67.9235C128.658 66.4074 129.366 64.7253 129.759 62.9579C130.01 61.928 130.036 60.8562 129.835 59.8155C129.633 58.7748 129.21 57.7897 128.594 56.9276C127.249 55.1481 124.98 53.6794 121.817 52.5992C115.702 50.4933 106.477 49.9493 94.79 51.3481C79.0306 53.2442 61.8413 58.3419 46.7735 65.0016C31.7056 71.6613 18.9225 79.8441 11.8043 88.0191C8.8436 91.3839 7.14182 94.4379 6.6134 97.0956C6.35887 98.1265 6.33342 99.2007 6.53884 100.243C6.74425 101.284 7.17557 102.269 7.80237 103.126C9.14674 104.913 11.4158 106.382 14.5475 107.454C15.6745 107.83 16.8211 108.143 17.9822 108.394C18.8447 109.692 19.7773 110.943 20.7253 112.156C18.2706 111.849 15.8524 111.3 13.5061 110.516C9.74498 109.234 6.93974 107.408 5.21459 105.076C4.3149 103.854 3.6912 102.452 3.38664 100.965C3.08208 99.4784 3.10391 97.9434 3.45058 96.4661C4.10334 93.2722 6.03837 89.7287 9.35655 85.9287C16.7856 77.3807 30.0349 68.8948 45.4369 62.072C60.8388 55.2491 78.3078 50.1048 94.3626 48.2009Z" fill="#A1BFEB"/>
<path fill-rule="evenodd" clip-rule="evenodd" d="M94.4789 49.2267C79.0536 51.0839 61.779 55.9874 45.8719 63.0356C29.9649 70.0838 17.2903 78.4764 10.18 86.6281C7.07159 90.2027 5.14437 93.5831 4.51492 96.6837C4.19222 98.014 4.16413 99.3987 4.43259 100.741C4.70105 102.083 5.25957 103.351 6.06911 104.455C7.67769 106.615 10.2654 108.34 13.84 109.552C15.2853 110.04 16.7629 110.427 18.2618 110.71C17.9277 110.267 17.6245 109.824 17.3292 109.374C16.2785 109.129 15.241 108.83 14.2208 108.48C10.8871 107.338 8.43936 105.752 6.97066 103.817C6.25285 102.843 5.75812 101.722 5.52177 100.535C5.28541 99.3477 5.3132 98.1231 5.60297 96.9479C6.20133 94.0415 8.02749 90.8322 11.0426 87.3897C18.0364 79.3701 30.5631 71.0707 46.3458 64.0769C62.1286 57.0831 79.3256 52.1952 94.6576 50.3535C106.174 48.9625 115.694 49.4209 122.198 51.6512C125.539 52.7935 127.987 54.371 129.448 56.3138C130.17 57.2865 130.667 58.4069 130.905 59.5945C131.143 60.7821 131.115 62.0077 130.823 63.1833C130.416 64.9531 129.721 66.6438 128.764 68.1877C128.855 68.7852 128.914 69.3869 128.943 69.9906C130.35 68.0098 131.365 65.7784 131.935 63.4164C132.256 62.086 132.284 60.7015 132.015 59.3593C131.747 58.0172 131.189 56.7498 130.381 55.6455C128.78 53.4851 126.177 51.76 122.61 50.5477C115.95 48.2709 106.252 47.8046 94.5489 49.2189L94.4789 49.2267ZM20.7251 113.243C20.6763 113.253 20.6263 113.253 20.5775 113.243C18.0595 112.931 15.5787 112.368 13.1718 111.565C9.20866 110.205 6.25566 108.239 4.3751 105.729C3.37324 104.394 2.67948 102.853 2.34358 101.218C2.00769 99.583 2.038 97.8938 2.43237 96.2718C3.13952 92.8293 5.21445 89.1226 8.54817 85.2604C15.8606 76.8756 28.7525 68.3043 45.017 61.1706C61.0951 54.0369 78.5797 49.0713 94.2148 47.1829C106.213 45.7298 116.245 46.2349 123.2 48.6205C127.164 49.9882 130.124 51.9465 132.005 54.4565C133.003 55.7936 133.694 57.3344 134.028 58.9691C134.363 60.6037 134.332 62.292 133.94 63.9137C133.318 67.0221 131.608 70.2859 128.834 73.6973C128.699 73.8658 128.515 73.9889 128.308 74.0498C128.1 74.1107 127.879 74.1066 127.675 74.038C127.47 73.9694 127.291 73.8396 127.162 73.6661C127.033 73.4927 126.96 73.2839 126.954 73.0679C126.891 71.5137 126.775 69.8274 126.596 68.1333C126.575 67.8997 126.63 67.6654 126.752 67.465C127.664 66.0322 128.329 64.456 128.718 62.8025C128.932 61.9162 128.952 60.9941 128.776 60.0994C128.601 59.2047 128.233 58.3586 127.7 57.6193C126.511 55.9951 124.397 54.6586 121.483 53.6561C115.266 51.5269 106.089 51.1072 94.8985 52.4594C79.7685 54.2855 62.8202 59.1035 47.1774 66.0196C31.6355 72.9047 19.4041 80.9786 12.5968 88.7806C9.85366 91.9279 8.20616 94.8109 7.67774 97.3675C7.45152 98.2524 7.42486 99.1764 7.59958 100.073C7.77429 100.969 8.14605 101.816 8.688 102.551C9.87695 104.167 11.9673 105.504 14.9047 106.506C15.9808 106.876 17.0785 107.18 18.1918 107.415C18.4578 107.475 18.6912 107.633 18.8446 107.858C19.7072 109.125 20.6086 110.368 21.5645 111.557C21.6865 111.714 21.762 111.903 21.7825 112.101C21.8029 112.299 21.7672 112.499 21.6798 112.677C21.5924 112.856 21.4566 113.007 21.2879 113.113C21.1191 113.218 20.9242 113.274 20.7251 113.275V113.243Z" fill="#3464C3"/>
<path fill-rule="evenodd" clip-rule="evenodd" d="M66.6438 11.5377C69.5968 6.53326 72.5263 3.37827 75.2461 1.96396C76.2255 1.38737 77.3352 1.06853 78.4713 1.03727C79.6075 1.00601 80.733 1.26338 81.7427 1.78524C83.5611 2.74106 85.1697 4.62162 86.483 7.36476C88.1026 11.0316 89.2087 14.9044 89.7701 18.8735C88.6122 18.4228 87.4388 18.0187 86.281 17.6457C85.7514 14.5895 84.8509 11.6094 83.5998 8.77129C82.5818 6.66537 81.4397 5.28216 80.2507 4.65271C79.6936 4.38776 79.0791 4.26603 78.463 4.2986C77.8469 4.33117 77.2488 4.51699 76.7227 4.83921C74.5235 5.9893 72.0602 8.72466 69.387 13.1852C63.5433 22.9998 58.2357 38.8292 54.3735 56.6013C50.5114 74.3734 48.1101 93.9405 48.1101 111.114C48.1101 125.304 49.7265 135.531 52.4386 141.172C53.4566 143.263 54.5911 144.654 55.7801 145.283C56.3361 145.548 56.9499 145.669 57.565 145.635C58.1801 145.602 58.7767 145.414 59.3002 145.089C61.5071 143.954 63.9629 141.203 66.6438 136.751C66.9391 136.23 67.2732 135.686 67.5685 135.119H68.0115C69.1228 135.119 70.1951 135.119 71.2675 135.025C70.6691 136.214 70.0397 137.357 69.387 138.398C66.434 143.41 63.5121 146.557 60.769 147.972C59.793 148.545 58.6879 148.863 57.5563 148.896C56.4246 148.929 55.3031 148.675 54.2957 148.158C52.4696 147.195 50.8533 145.314 49.5478 142.571C46.6182 136.51 44.8853 125.786 44.8853 111.114C44.8853 93.7152 47.333 73.8994 51.2496 55.9408C55.1661 37.9822 60.5903 21.6788 66.6438 11.5377Z" fill="#A1BFEB"/>
<path fill-rule="evenodd" clip-rule="evenodd" d="M78.7582 2.0883C77.7011 2.11309 76.6661 2.39586 75.7432 2.91201C73.1166 4.26415 70.3035 7.34924 67.537 12.074C61.7477 21.7954 56.3159 37.446 52.2595 56.1428C48.2031 74.8396 45.9338 94.3602 45.9338 111.114C45.9338 125.016 47.5503 135.981 50.4955 142.112C51.7233 144.654 53.1609 146.371 54.7928 147.218C55.6481 147.659 56.6021 147.874 57.564 147.841C58.5259 147.809 59.4634 147.53 60.2867 147.032C62.9133 145.679 65.7264 142.594 68.4928 137.862C68.8192 137.31 69.1534 136.743 69.472 136.16H68.1899C67.9801 136.541 67.7469 136.937 67.537 137.279C64.825 141.817 62.2295 144.762 59.7661 146.021C59.0966 146.429 58.3344 146.659 57.5513 146.69C56.7682 146.721 55.99 146.553 55.2901 146.2C53.8835 145.423 52.6014 143.923 51.4746 141.615C48.5761 135.585 47.0528 125.032 47.0528 111.099C47.0528 94.399 49.2598 74.9562 53.3162 56.3604C57.3726 37.7646 62.7812 22.215 68.4773 12.6257C71.1583 8.10299 73.7848 5.15782 76.2482 3.89116C76.9186 3.48675 77.6802 3.25769 78.4624 3.2251C79.2447 3.1925 80.0225 3.35743 80.7243 3.70466C82.1308 4.48175 83.4209 5.98933 84.5399 8.28952C85.758 11.0254 86.6525 13.8942 87.2053 16.8375C87.5938 16.9774 87.9824 17.1095 88.3943 17.2571C87.8445 13.9941 86.8835 10.8137 85.5344 7.79217C84.3066 5.25108 82.8769 3.5337 81.2295 2.68667C80.4706 2.27557 79.6213 2.05929 78.7582 2.05723V2.0883ZM57.2483 150C56.0406 150 54.852 149.698 53.7903 149.122C51.731 148.065 49.9981 146.013 48.5683 143.061C45.4599 136.595 43.7891 125.56 43.7891 111.145C43.7891 94.2359 46.0583 74.5599 50.1458 55.7232C54.2333 36.8865 59.7818 20.9405 65.6877 11.0249C68.695 5.96599 71.7489 2.60899 74.7251 1.06258C75.8519 0.401284 77.1279 0.0365889 78.434 0.00261286C79.74 -0.0313632 81.0335 0.26649 82.1931 0.868304C84.2524 1.94069 85.9775 3.97667 87.4073 6.93739C89.0789 10.692 90.214 14.6629 90.7798 18.7336C90.8074 18.9177 90.7866 19.1058 90.7195 19.2794C90.6523 19.453 90.5412 19.606 90.3969 19.7236C90.2527 19.8412 90.0802 19.9193 89.8966 19.9501C89.7131 19.9809 89.5248 19.9634 89.3501 19.8993C88.2155 19.4563 87.0808 19.0522 85.923 18.6792C85.7451 18.6242 85.5848 18.5235 85.458 18.3872C85.3312 18.2508 85.2423 18.0836 85.2003 17.9021C84.6924 14.9363 83.8206 12.0444 82.6048 9.29195C81.7111 7.42693 80.6931 6.18359 79.7062 5.65517C79.3027 5.46948 78.8586 5.3892 78.4156 5.42181C77.9725 5.45443 77.5449 5.59888 77.1729 5.84166C75.1136 6.91405 72.728 9.65721 70.2802 13.7836C64.6774 23.1942 59.401 38.4951 55.3834 56.8888C51.3658 75.2826 49.1667 94.6322 49.1667 111.177C49.1667 124.597 50.682 135.119 53.4018 140.776C54.3032 142.633 55.3134 143.884 56.3003 144.405C56.7035 144.592 57.1478 144.673 57.5912 144.641C58.0345 144.608 58.4622 144.463 58.8336 144.218C60.8619 143.154 63.2785 140.403 65.7264 136.277C66.0217 135.764 66.3559 135.22 66.6512 134.668C66.7422 134.502 66.8759 134.365 67.0386 134.269C67.2014 134.173 67.3871 134.123 67.5759 134.124H68.0189C69.0991 134.124 70.1791 134.124 71.2204 134.039C71.4074 134.032 71.5931 134.073 71.7602 134.157C71.9273 134.241 72.0704 134.366 72.1763 134.52C72.2706 134.68 72.3248 134.861 72.3343 135.046C72.3438 135.231 72.3082 135.416 72.2307 135.585C71.609 136.789 70.9485 137.916 70.3191 139.004C67.304 144.071 64.2654 147.428 61.2814 148.967C60.0409 149.633 58.6567 149.988 57.2483 150Z" fill="#3464C3"/>
<path fill-rule="evenodd" clip-rule="evenodd" d="M67.2111 21.3291C76.9714 15.703 86.1642 13.022 94.0984 13.022C98.8529 12.9435 103.552 14.0547 107.767 16.2547C111.786 18.4632 115.112 21.7456 117.372 25.7352C120.263 30.7475 121.879 37.1507 121.879 44.8051C121.879 45.8619 121.879 46.9187 121.794 47.9833C120.799 46.0562 119.727 44.1756 118.561 42.3805C118.266 36.3736 116.898 31.3303 114.567 27.3516C112.619 23.8653 109.719 21.0055 106.206 19.1066C102.47 17.1556 98.3041 16.1749 94.0906 16.2547C86.6849 16.2547 78.0591 18.7958 68.8118 24.1267C54.6454 32.325 41.7458 45.52 32.4362 60.2225C23.1267 74.9251 17.3994 91.011 17.3994 105.131C17.3994 112.218 18.8292 118.069 21.4247 122.592C23.379 126.073 26.2741 128.933 29.7784 130.845C33.5151 132.791 37.6812 133.766 41.8934 133.681C44.8597 133.664 47.8142 133.304 50.6979 132.609C52.7582 133.232 54.8485 133.751 56.9611 134.163C52.1334 135.943 47.0382 136.889 41.8934 136.96C37.1398 137.044 32.4417 135.93 28.232 133.72C24.2023 131.534 20.8707 128.256 18.6195 124.263V124.263C15.7287 119.243 14.1201 112.839 14.1201 105.185C14.1201 90.4203 20.0571 73.6974 29.662 58.5596C39.2668 43.4219 52.5162 29.8616 67.1722 21.3991L67.2111 21.3291Z" fill="#A1BFEB"/>
<path fill-rule="evenodd" clip-rule="evenodd" d="M19.6144 123.75C21.7657 127.548 24.9401 130.666 28.7763 132.749C35.2495 136.277 43.6576 136.805 52.8662 134.303C52.1513 134.116 51.3974 133.907 50.6903 133.697C42.5153 135.562 35.0785 134.909 29.2891 131.77C25.6204 129.758 22.5829 126.766 20.5157 123.128C17.7415 118.303 16.3117 112.249 16.3117 105.139C16.3117 91.283 21.7513 75.135 31.5271 59.6631C41.3029 44.1912 54.3891 31.2293 68.268 23.2175C82.854 14.8016 97.0592 12.9521 106.703 18.182C110.388 20.1871 113.444 23.1759 115.531 26.8154C117.94 30.9884 119.323 36.1406 119.642 42.0387C120.069 42.6837 120.419 43.3287 120.838 43.9892C120.753 37.042 119.284 31.0817 116.487 26.2715C114.342 22.4381 111.154 19.291 107.294 17.195C97.3235 11.7554 82.7686 13.6049 67.7863 22.2461H67.7007C53.7131 30.3512 40.5026 43.3986 30.6335 59.0181C20.7644 74.6377 15.2704 91.0265 15.2704 105.092C15.2704 112.389 16.7314 118.629 19.6222 123.633C19.616 123.645 19.6127 123.659 19.6127 123.672C19.6127 123.686 19.616 123.699 19.6222 123.711L19.6144 123.75ZM41.9324 137.978C37.0005 138.062 32.1267 136.904 27.7583 134.614C23.5605 132.324 20.0898 128.902 17.7415 124.737C17.7415 124.737 17.7415 124.69 17.7415 124.667C14.6953 119.352 13.1489 112.77 13.1489 105.131C13.1489 90.6691 18.7206 73.9072 28.8306 57.9225C38.9406 41.9377 52.3842 28.6805 66.6983 20.4122C66.7371 20.4122 66.7605 20.4122 66.7605 20.4122C82.3956 11.4213 97.681 9.60287 108.304 15.3689C112.504 17.6583 115.977 21.0803 118.328 25.2457C121.437 30.5766 122.991 37.1819 122.991 44.844C122.991 45.9164 122.991 46.9965 122.905 48.0844C122.892 48.316 122.802 48.5366 122.65 48.7122C122.499 48.8877 122.293 49.0085 122.066 49.0558C121.838 49.1071 121.6 49.0797 121.39 48.9781C121.179 48.8765 121.01 48.7067 120.908 48.4963C119.953 46.603 118.895 44.7637 117.738 42.9867C117.646 42.8282 117.595 42.6492 117.59 42.4661C117.295 36.7467 116.036 31.8588 113.705 27.9112C111.841 24.6045 109.083 21.8898 105.747 20.0781C96.7873 15.2057 83.3047 17.0552 69.3948 25.0825C55.7879 32.9312 43.0204 45.6289 33.3844 60.8288C23.7485 76.0287 18.4876 91.7105 18.4876 105.17C18.4876 111.907 19.8009 117.603 22.3731 122.102C24.2345 125.414 26.9962 128.13 30.3383 129.936C35.708 132.857 42.7173 133.44 50.5038 131.614C50.6811 131.56 50.8704 131.56 51.0477 131.614C53.0791 132.218 55.1413 132.714 57.2256 133.098C57.4557 133.138 57.6658 133.254 57.8222 133.427C57.9787 133.6 58.0724 133.821 58.0882 134.054C58.0992 134.289 58.0351 134.521 57.9051 134.717C57.7752 134.912 57.586 135.061 57.3654 135.142C52.4175 136.95 47.1998 137.909 41.9324 137.978V137.978Z" fill="#3464C3"/>
<path fill-rule="evenodd" clip-rule="evenodd" d="M109.376 31.7732C111.837 31.7824 114.245 31.0611 116.296 29.7005C118.347 28.3399 119.948 26.4013 120.896 24.1302C121.844 21.8591 122.097 19.3577 121.623 16.9428C121.148 14.5279 119.968 12.3081 118.231 10.5646C116.494 8.82106 114.278 7.63226 111.865 7.14872C109.452 6.66519 106.95 6.90864 104.675 7.84832C102.4 8.78799 100.456 10.3816 99.0876 12.4272C97.7194 14.4729 96.9888 16.8786 96.9888 19.3397C96.9887 22.6292 98.2925 25.7847 100.614 28.1151C102.936 30.4455 106.086 31.7609 109.376 31.7732Z" fill="#A1BFEB"/>
<path fill-rule="evenodd" clip-rule="evenodd" d="M109.376 8.02526C107.132 8.02373 104.937 8.68783 103.07 9.93356C101.204 11.1793 99.7482 12.9507 98.8883 15.0237C98.0284 17.0967 97.8026 19.3781 98.2395 21.5795C98.6764 23.7808 99.7563 25.8031 101.343 27.3906C102.929 28.9781 104.951 30.0594 107.152 30.4978C109.353 30.9362 111.634 30.712 113.708 29.8535C115.781 28.995 117.554 27.5408 118.801 25.6749C120.048 23.809 120.713 21.6151 120.713 19.3708C120.709 16.3644 119.514 13.4822 117.389 11.3556C115.264 9.22902 112.382 8.03143 109.376 8.02526ZM109.376 32.8223C106.714 32.8223 104.111 32.0327 101.897 30.5534C99.6839 29.0742 97.9587 26.9717 96.9403 24.5119C95.9218 22.0521 95.6557 19.3455 96.1757 16.7344C96.6957 14.1234 97.9783 11.7252 99.8614 9.84321C101.744 7.96121 104.144 6.67991 106.755 6.16146C109.366 5.64301 112.073 5.91069 114.532 6.93058C116.991 7.95047 119.092 9.67675 120.57 11.8911C122.048 14.1055 122.836 16.7085 122.835 19.3708C122.825 22.9366 121.403 26.3532 118.881 28.8738C116.359 31.3945 112.942 32.8141 109.376 32.8223V32.8223Z" fill="#3464C3"/>
<path fill-rule="evenodd" clip-rule="evenodd" d="M68.8193 21.3291C59.0668 15.703 49.8739 13.022 41.9321 13.022C37.18 12.9434 32.4836 14.0548 28.2707 16.2547C24.2414 18.4516 20.9107 21.7367 18.6582 25.7353V25.7896C19.7431 26.0292 20.7893 26.419 21.7666 26.9475C23.7154 23.651 26.5183 20.9419 29.8794 19.1066C33.6148 17.1556 37.7808 16.1749 41.9943 16.2547C49.4 16.2547 58.0255 18.7958 67.2729 24.1267C81.4471 32.325 94.3391 45.52 103.649 60.2226C112.958 74.9251 118.685 91.011 118.685 105.131C118.685 112.218 117.256 118.069 114.629 122.592C112.67 126.069 109.776 128.928 106.275 130.845C102.539 132.791 98.3726 133.766 94.1604 133.681C91.1966 133.664 88.2446 133.305 85.3637 132.609C83.291 133.235 81.1876 133.753 79.0615 134.163C83.9009 135.94 89.0057 136.886 94.1604 136.96C98.8962 137.02 103.571 135.893 107.759 133.681C111.784 131.49 115.112 128.214 117.364 124.224V124.224C120.255 119.204 121.871 112.801 121.871 105.146C121.871 90.3815 115.934 73.6585 106.33 58.5208C96.7247 43.383 83.4753 29.8228 68.8193 21.3602V21.3291Z" fill="#A1BFEB"/>
<path fill-rule="evenodd" clip-rule="evenodd" d="M83.1106 134.295C92.3658 136.813 100.751 136.277 107.255 132.741C111.096 130.658 114.272 127.534 116.417 123.727C116.417 123.727 116.417 123.727 116.417 123.664C119.315 118.66 120.768 112.412 120.768 105.123C120.768 91.0732 115.329 74.6998 105.405 59.0492C95.4819 43.3986 82.3335 30.3823 68.3147 22.2772C68.3147 22.2772 68.3147 22.2772 68.2603 22.2772C53.3013 13.636 38.7309 11.802 28.7453 17.2261C25.2669 19.1104 22.3253 21.8488 20.1973 25.1835C20.5625 25.3079 20.9199 25.4477 21.2773 25.5954C23.2801 22.4998 26.0301 19.9583 29.2736 18.2053C38.9096 12.9754 53.1226 14.8249 67.7086 23.2408C81.5797 31.2526 94.6193 44.2223 104.442 59.6864C114.264 75.1506 119.665 91.3141 119.665 105.162C119.665 112.272 118.227 118.326 115.453 123.151C113.39 126.789 110.355 129.782 106.688 131.793C100.891 134.901 93.477 135.601 85.2865 133.72C84.5638 133.93 83.8177 134.14 83.0717 134.326L83.1106 134.295ZM94.0986 137.978C88.8302 137.899 83.6129 136.932 78.6657 135.119C78.4471 135.038 78.26 134.89 78.1314 134.696C78.0028 134.501 77.9395 134.271 77.9506 134.039C77.9678 133.804 78.0627 133.582 78.2204 133.407C78.378 133.233 78.5894 133.116 78.821 133.075C80.9027 132.69 82.9623 132.195 84.9911 131.591C85.1689 131.54 85.3572 131.54 85.535 131.591C93.3059 133.417 100.3 132.834 105.739 129.912C109.078 128.104 111.836 125.388 113.697 122.079C116.3 117.58 117.582 111.891 117.582 105.146C117.582 91.6871 112.298 75.9432 102.693 60.8054C93.0884 45.6677 80.251 32.9078 66.6674 25.0592C52.773 17.0318 39.2827 15.1824 30.3306 20.0548C27.1128 21.7853 24.4265 24.3587 22.5596 27.4993C22.4188 27.731 22.1948 27.9002 21.9334 27.9724C21.672 28.0446 21.3929 28.0144 21.1531 27.8878C20.2761 27.405 19.3337 27.0516 18.3555 26.8387C18.1956 26.8049 18.0463 26.7328 17.9204 26.6285C17.7946 26.5243 17.6959 26.3911 17.6328 26.2404C17.5546 26.096 17.5137 25.9344 17.5137 25.7702C17.5137 25.6061 17.5546 25.4445 17.6328 25.3001C19.9742 21.0992 23.458 17.6477 27.6806 15.3455C38.3267 9.57951 53.5888 11.3979 69.2161 20.3889C69.2161 20.3889 69.255 20.3889 69.2783 20.3889C83.6001 28.6649 97.0283 41.9842 107.154 57.8991C117.279 73.8139 122.843 90.6457 122.843 105.107C122.843 112.746 121.289 119.328 118.251 124.651C118.251 124.651 118.251 124.651 118.251 124.713C115.896 128.876 112.423 132.297 108.226 134.59C103.874 136.882 99.0168 138.046 94.0986 137.978V137.978Z" fill="#3464C3"/>
<path fill-rule="evenodd" clip-rule="evenodd" d="M125.128 56.0341C127.446 58.1041 129.465 60.4867 131.127 63.1134V63.1134C133.462 66.6258 134.708 70.7499 134.708 74.9679C134.708 79.186 133.462 83.3101 131.127 86.8225V86.8225C127.91 92.029 122.47 96.9246 114.808 101.012C101.861 108.006 84.9441 111.441 68.0191 111.441C51.094 111.441 34.1845 107.967 21.1993 101.012C13.5605 96.9013 8.1286 92.029 4.88036 86.8225C2.56337 83.3015 1.32861 79.179 1.32861 74.964C1.32861 70.7491 2.56337 66.6266 4.88036 63.1056V63.1056C6.54907 60.4752 8.57898 58.0921 10.9106 56.0263C10.1538 58.3182 9.5361 60.6538 9.06102 63.0201C8.64139 63.5874 8.28393 64.1547 7.89538 64.7298C5.87359 67.7644 4.79479 71.3293 4.79479 74.9757C4.79479 78.6221 5.87359 82.1871 7.89538 85.2217C10.8483 89.9619 15.8683 94.4224 22.9631 98.238C35.3966 104.89 51.7155 108.224 68.0344 108.224C84.3534 108.224 100.672 104.89 113.106 98.238C120.208 94.4224 125.221 89.9619 128.174 85.2217C130.181 82.1831 131.252 78.6215 131.252 74.9796C131.252 71.3377 130.181 67.7761 128.174 64.7375V64.7375C127.808 64.1625 127.397 63.5952 127.008 63.0279C126.522 60.661 125.894 58.3255 125.128 56.0341Z" fill="#A1BFEB"/>
<path fill-rule="evenodd" clip-rule="evenodd" d="M5.82857 63.6029C5.82857 63.6029 5.8285 63.6495 5.76634 63.6729C3.55097 67.0247 2.36979 70.954 2.36979 74.9718C2.36979 78.9896 3.55097 82.9188 5.76634 86.2707C9.02235 91.5083 14.3921 96.1631 21.7045 100.087C34.0913 106.739 50.5347 110.399 68.0115 110.399C85.4883 110.399 101.947 106.739 114.326 100.087C121.607 96.202 126.954 91.5394 130.202 86.3407C130.208 86.3286 130.211 86.3153 130.211 86.3018C130.211 86.2883 130.208 86.275 130.202 86.2629C132.437 82.9169 133.629 78.9837 133.629 74.9601C133.629 70.9366 132.437 67.0033 130.202 63.6573C129.346 62.2776 128.368 60.9772 127.28 59.7719C127.513 60.7044 127.723 61.6602 127.933 62.6005C128.321 63.1289 128.71 63.6574 129.005 64.1547C129.005 64.1547 129.005 64.2091 129.005 64.2402C131.075 67.4339 132.194 71.1506 132.23 74.9562C132.184 78.7941 131.056 82.5409 128.974 85.7656C125.812 90.8323 120.62 95.3317 113.518 99.1472H113.432C101.287 105.644 85.1385 109.249 67.9492 109.249C50.76 109.249 34.5886 105.659 22.4427 99.1472C22.4427 99.1472 22.4426 99.1472 22.3882 99.1472C15.2856 95.3317 10.0947 90.8245 6.9242 85.7656C4.81026 82.5598 3.6834 78.8041 3.6834 74.964C3.6834 71.124 4.81026 67.3683 6.9242 64.1624C7.25835 63.6262 7.6235 63.1056 8.00427 62.6082C8.183 61.668 8.42398 60.7122 8.66487 59.7719C7.58751 60.9803 6.61766 62.2803 5.76634 63.6573L5.82857 63.6029ZM67.9959 112.513C50.185 112.513 33.3842 108.76 20.702 101.952C13.0399 97.8416 7.42149 92.9459 3.96343 87.3897C1.5358 83.7147 0.241699 79.4073 0.241699 75.0029C0.241699 70.5984 1.5358 66.291 3.96343 62.616C3.96343 62.616 3.96343 62.5694 3.96343 62.5538C5.69148 59.8435 7.78323 57.3831 10.1802 55.2414C10.353 55.0889 10.5707 54.9965 10.8005 54.9783C11.0304 54.9601 11.26 55.017 11.4547 55.1404C11.6467 55.2735 11.7915 55.4641 11.8683 55.6847C11.9451 55.9054 11.9501 56.1447 11.8821 56.3682C11.1284 58.6144 10.5184 60.9063 10.0559 63.23C10.0242 63.3801 9.96346 63.5226 9.87718 63.6496C9.45755 64.1935 9.10012 64.7375 8.74266 65.2892C6.83765 68.1591 5.82155 71.5272 5.82155 74.9718C5.82155 78.4164 6.83765 81.7845 8.74266 84.6543C11.7034 89.3868 16.5913 93.6298 23.3365 97.2588H23.4296C35.2725 103.623 51.0864 107.12 67.9726 107.12C84.8588 107.12 100.688 103.623 112.531 97.2588C112.56 97.2412 112.591 97.2281 112.624 97.2199C119.362 93.5909 124.281 89.3558 127.21 84.6233C129.115 81.7534 130.131 78.3853 130.131 74.9407C130.131 71.4961 129.115 68.128 127.21 65.2582C127.21 65.2582 127.148 65.2038 127.148 65.1727C126.822 64.6546 126.464 64.1366 126.076 63.6185C125.991 63.4936 125.93 63.3539 125.897 63.2066C125.434 60.8839 124.826 58.5923 124.079 56.3449C124.008 56.1234 124.011 55.8851 124.086 55.6654C124.162 55.4456 124.306 55.256 124.498 55.1248C124.694 54.9995 124.925 54.9416 125.156 54.9599C125.388 54.9781 125.607 55.0715 125.78 55.2259C128.183 57.3586 130.276 59.8174 131.997 62.5306C134.411 66.2317 135.716 70.5457 135.758 74.964C135.703 79.3471 134.421 83.6272 132.059 87.3198C132.059 87.3198 132.059 87.3198 132.059 87.3897C128.601 92.9459 122.96 97.8416 115.321 101.952C102.631 108.76 85.8302 112.513 68.0115 112.513H67.9959Z" fill="#3464C3"/>
<path fill-rule="evenodd" clip-rule="evenodd" d="M80.484 122.864C83.2025 122.862 85.8596 122.055 88.1192 120.543C90.3789 119.032 92.1396 116.884 93.1789 114.372C94.2182 111.86 94.4892 109.097 93.9579 106.431C93.4266 103.764 92.1168 101.316 90.194 99.394C88.2712 97.4723 85.8216 96.1638 83.1552 95.634C80.4888 95.1042 77.7252 95.3768 75.2138 96.4175C72.7023 97.4582 70.556 99.2202 69.0458 101.481C67.5356 103.741 66.7295 106.399 66.7295 109.117C66.7285 110.923 67.0837 112.712 67.7747 114.381C68.4656 116.05 69.4788 117.566 70.7563 118.843C72.0338 120.119 73.5506 121.132 75.2198 121.822C76.889 122.512 78.6778 122.866 80.484 122.864V122.864Z" fill="#A1BFEB"/>
<path fill-rule="evenodd" clip-rule="evenodd" d="M80.4837 96.4273C77.9736 96.4258 75.5193 97.1687 73.4315 98.5621C71.3436 99.9556 69.716 101.937 68.7543 104.256C67.7926 106.574 67.5402 109.126 68.029 111.588C68.5178 114.05 69.7257 116.312 71.5001 118.088C73.2745 119.863 75.5356 121.072 77.9975 121.563C80.4593 122.053 83.0113 121.802 85.3305 120.842C87.6497 119.882 89.6321 118.255 91.0268 116.168C92.4216 114.081 93.1659 111.627 93.1659 109.117C93.1598 105.755 91.8219 102.532 89.4451 100.154C87.0683 97.7753 83.8461 96.4355 80.4837 96.4273ZM80.4837 123.921C77.5545 123.919 74.6917 123.049 72.2575 121.419C69.8232 119.79 67.927 117.475 66.8089 114.768C65.6908 112.061 65.401 109.082 65.9762 106.21C66.5515 103.338 67.9659 100.701 70.0404 98.633C72.1149 96.565 74.7564 95.1589 77.6303 94.5927C80.5043 94.0266 83.4815 94.3257 86.1854 95.4524C88.8892 96.579 91.1981 98.4825 92.8197 100.922C94.4413 103.361 95.3028 106.227 95.2951 109.156C95.2828 113.076 93.7168 116.832 90.9405 119.599C88.1642 122.367 84.4039 123.921 80.4837 123.921Z" fill="#3464C3"/>
</svg>
