<svg width="60" height="60" viewBox="0 0 60 60" fill="none" xmlns="http://www.w3.org/2000/svg">
<path fill-rule="evenodd" clip-rule="evenodd" d="M57.8799 2.12014H2.12014V57.8799H57.8799V2.12014ZM0 0V60H60V0H0Z" fill="#05162F"/>
<path fill-rule="evenodd" clip-rule="evenodd" d="M13.4435 16.9599C13.0983 17.6722 12.8856 18.4607 12.8372 19.2933H15.9398C15.9559 18.474 16.0263 17.6879 16.1431 16.9599H13.4435ZM17.2178 16.9599C17.0944 17.6719 17.0175 18.4592 17.0001 19.2933H17.5843C17.5707 19.313 17.5581 19.333 17.5464 19.3529C17.5218 19.3949 17.4333 19.5465 17.4322 19.7464C17.4316 19.8383 17.4521 19.9119 17.4533 19.9162C17.4586 19.9373 17.4641 19.9543 17.467 19.9631C17.4731 19.9819 17.4795 19.999 17.4837 20.0102C17.4929 20.0344 17.5043 20.0627 17.5163 20.0918C17.5409 20.1514 17.5757 20.2331 17.6182 20.3317L17.6276 20.3533H17.0102C17.0367 21.0137 17.1006 21.6414 17.1952 22.2215L18.4523 22.2215C18.6037 22.5611 18.7638 22.9196 18.9258 23.2816H17.4149C17.5023 23.6228 17.6014 23.9388 17.7102 24.2251C17.928 24.7984 18.1746 25.2257 18.4213 25.5004C18.6683 25.7753 18.8722 25.8531 19.0218 25.8531C19.1714 25.8531 19.3753 25.7753 19.6222 25.5004C19.6862 25.4293 19.7501 25.3479 19.8135 25.2564C19.9215 25.4956 20.0233 25.7207 20.1162 25.9253C20.2652 26.2538 20.3914 26.5305 20.4827 26.728L20.4987 26.7627C20.0218 26.8614 19.5279 26.9132 19.0218 26.9132C15.0149 26.9132 11.7666 23.6649 11.7666 19.658C11.7666 15.6511 15.0149 12.4028 19.0218 12.4028C23.0287 12.4028 26.277 15.6511 26.277 19.658C26.277 20.7742 26.0249 21.8315 25.5746 22.7761C25.5289 22.7008 25.4686 22.6294 25.3912 22.566C25.3633 22.5431 25.3387 22.527 25.3332 22.5233L25.3332 22.5233L25.3331 22.5233L25.3326 22.5229C25.3231 22.5167 25.3148 22.5116 25.3095 22.5083C25.2985 22.5016 25.2874 22.495 25.2781 22.4897C25.259 22.4786 25.2349 22.4651 25.2079 22.45C25.1533 22.4195 25.0772 22.3777 24.9839 22.3268C24.8997 22.2809 24.8004 22.2269 24.6881 22.1662C24.9385 21.6013 25.107 20.992 25.1783 20.3533H22.0943C22.089 20.4914 22.0822 20.6285 22.074 20.7644L21.9518 20.6992C21.1279 20.2601 20.3032 19.8226 19.6789 19.4946C19.5405 19.4218 19.4116 19.3543 19.2945 19.2933H21.0435C21.026 18.4592 20.9492 17.6719 20.8257 16.9599L17.2178 16.9599ZM19.6457 23.2816C19.4853 22.9235 19.325 22.5652 19.1717 22.2215H19.1717C19.325 22.5652 19.4853 22.9235 19.6457 23.2816H19.6457ZM20.2078 24.5326C20.2078 24.5326 20.2078 24.5326 20.2078 24.5326C20.627 25.4633 20.987 26.2565 21.1462 26.5972C21.1462 26.5972 21.1462 26.5972 21.1462 26.5972C20.987 26.2565 20.627 25.4633 20.2078 24.5326ZM21.8349 26.3476C21.8349 26.3476 21.8349 26.3476 21.835 26.3476C21.8986 26.2402 21.9693 26.1191 22.0388 25.9983L22.0474 25.9833L22.3778 25.4074L22.8127 25.8452C22.8127 25.8452 22.8127 25.8452 22.8128 25.8452L22.3778 25.4073L22.0473 25.9833C21.9752 26.1091 21.9012 26.2358 21.8349 26.3476ZM23.5944 24.2048L24.1741 23.881L24.1891 23.8726C24.3415 23.7874 24.4943 23.7001 24.6199 23.6269C24.7531 23.5493 24.856 23.4874 24.8955 23.4604C25.0033 23.3867 25.0541 23.2674 25.0338 23.1721C25.0541 23.2674 25.0032 23.3866 24.8955 23.4603C24.8175 23.5136 24.4929 23.7029 24.174 23.881L23.5943 24.2047L23.5944 24.2048ZM18.2821 20.2114L18.2716 20.1873C18.1565 19.9223 18.0891 19.7619 18.0891 19.7502C18.0893 19.7178 18.126 19.6553 18.1706 19.6112C18.2152 19.5671 18.2773 19.5312 18.3087 19.5313C18.3209 19.5314 18.4818 19.6119 18.7461 19.7486L18.8126 19.7831C19.0913 19.9276 19.4682 20.1256 19.8992 20.3533H18.344C18.5434 20.8094 18.8415 21.4816 19.1717 22.2215M18.2821 20.2114C18.2854 20.219 18.2888 20.2267 18.2922 20.2345L18.2821 20.2114ZM17.4503 15.8998C17.5288 15.6098 17.6158 15.3392 17.7102 15.0909C17.928 14.5176 18.1746 14.0903 18.4213 13.8156C18.6683 13.5407 18.8722 13.4629 19.0218 13.4629C19.1714 13.4629 19.3753 13.5407 19.6222 13.8156C19.869 14.0903 20.1155 14.5176 20.3334 15.0909C20.4277 15.3392 20.5148 15.6098 20.5933 15.8998L17.4503 15.8998ZM21.9004 16.9599C22.0172 17.6879 22.0876 18.474 22.1038 19.2933H25.2063C25.158 18.4607 24.9452 17.6722 24.6001 16.9599H21.9004ZM20.8671 13.7424C22.1057 14.1283 23.1774 14.8925 23.9472 15.8998H21.6878C21.5835 15.4732 21.4617 15.0759 21.3243 14.7143C21.1899 14.3607 21.0376 14.0331 20.8671 13.7424ZM17.1764 13.7424C15.9379 14.1283 14.8661 14.8925 14.0964 15.8998H16.3558C16.46 15.4732 16.5819 15.0759 16.7193 14.7143C16.8536 14.3607 17.006 14.0331 17.1764 13.7424ZM17.1764 25.5736C17.006 25.2829 16.8536 24.9553 16.7193 24.6017C16.5675 24.2024 16.4347 23.7594 16.3237 23.2816H13.9964C14.772 24.3554 15.8833 25.1707 17.1764 25.5736ZM16.1222 22.2215C16.0329 21.631 15.9739 21.004 15.9493 20.3533H12.8653C12.9389 21.0129 13.1161 21.6412 13.3803 22.2215H16.1222Z" fill="#05162F"/>
<path fill-rule="evenodd" clip-rule="evenodd" d="M18.171 19.6111C18.1264 19.6553 18.0897 19.7178 18.0896 19.7501C18.0891 19.8297 21.1693 26.6932 21.2329 26.7746C21.3205 26.8868 21.5141 26.8493 21.6188 26.6998C21.673 26.6225 21.866 26.3001 22.0478 25.9833L22.3782 25.4073L23.3274 26.3628C23.8859 26.9248 24.3165 27.3184 24.3735 27.3188C24.5001 27.3195 25.4823 26.3486 25.4831 26.2219C25.4834 26.165 25.0948 25.7298 24.5392 25.1649L23.5947 24.2047L24.1745 23.881C24.4933 23.7029 24.8179 23.5136 24.8959 23.4603C25.0467 23.3572 25.086 23.165 24.9751 23.074C24.8975 23.0104 18.3895 19.5318 18.3091 19.5313C18.2777 19.5311 18.2156 19.567 18.171 19.6111Z" fill="#05162F"/>
<path fill-rule="evenodd" clip-rule="evenodd" d="M46.219 16.113L16.9611 45.371L15.4619 43.8718L44.7199 14.6139L46.219 16.113Z" fill="#05162F"/>
<path d="M46.0918 41.7669V38.0184H45.9561L43.4628 44.1075L40.9695 38.0184H40.8338V41.7669V47.7033H39.5278V35.8644H41.3596L43.4459 41.0884H43.5476L45.6338 35.8644H47.3978V47.7033H46.0918V41.7669Z" fill="#05162F"/>
</svg>
