<svg width="144" height="150" viewBox="0 0 144 150" fill="none" xmlns="http://www.w3.org/2000/svg">
<path fill-rule="evenodd" clip-rule="evenodd" d="M28.6104 95.4311L18.6309 89.6673C21.0133 89.6066 23.2856 88.6512 24.9957 86.9913C26.8554 85.1222 28.1264 82.7492 28.6516 80.1654C29.1045 77.1435 28.4293 70.9021 28.207 67.6332C27.8941 62.7505 27.4824 57.9007 27.0131 53.0427C26.7002 50.0784 27.3424 48.3163 28.9233 45.805C30.1357 43.9786 31.6472 42.3697 33.3944 41.0458C36.6111 38.6195 39.8663 36.2673 43.1599 33.9892C45.8112 32.1503 48.49 30.3471 51.1962 28.5796C52.703 27.5833 54.2757 26.6528 56.079 27.5503L66.0668 33.3141C65.5129 33.0568 64.9045 32.9388 64.2946 32.9704C63.6846 33.0019 63.0917 33.1821 62.5673 33.4952C60.4677 34.615 58.0222 36.4183 55.9802 37.7851C53.0818 39.7695 50.2164 41.7786 47.3674 43.8453C45.2786 45.251 43.2921 46.8029 41.4225 48.4893C39.6374 50.2096 38.2516 52.3009 37.3631 54.6154C36.3421 57.7278 37.3631 62.7176 37.6266 66.0689C37.9642 70.1858 38.2442 74.2286 38.45 78.3209L38.4994 79.1443C38.6229 81.5404 38.9852 84.34 38.4418 86.6866C37.7642 89.2331 36.3525 91.5239 34.3824 93.2738C32.7528 94.6163 30.7211 95.3757 28.6104 95.4311V95.4311Z" fill="#A1BFEB"/>
<path fill-rule="evenodd" clip-rule="evenodd" d="M21.8344 90.2191L28.9073 94.3361C30.6678 94.2168 32.3466 93.5487 33.7077 92.4257C35.4954 90.8232 36.7773 88.7345 37.3966 86.415C37.6933 84.5297 37.732 82.6128 37.5118 80.7171L37.3719 78.4116C37.1468 74.3276 36.8723 70.2517 36.5485 66.1841C36.4826 65.4266 36.3755 64.5867 36.285 63.7139C35.898 60.5356 35.4616 56.9374 36.3262 54.2943C37.2712 51.8084 38.7495 49.56 40.6572 47.7071C42.2143 46.2594 43.8797 44.9325 45.6388 43.7383L46.7503 42.9149C49.6075 40.8399 52.473 38.798 55.3796 36.8301L56.837 35.8337C58.5072 34.6222 60.2446 33.5061 62.0408 32.4907L62.2714 32.3837L55.5113 28.4973C54.4573 27.9703 53.4775 28.3984 51.7978 29.4853C49.1135 31.2529 46.4484 33.0533 43.8026 34.8867C40.5666 37.1264 37.2977 39.4896 34.07 41.9104C32.4273 43.1653 31.0077 44.6879 29.8707 46.4143C28.4792 48.6045 27.8534 50.1525 28.1333 52.9027C28.6109 57.7772 29.0226 62.6929 29.3355 67.5345C29.3849 68.2261 29.4508 69.0413 29.5166 69.9306C29.7884 73.4383 30.1424 77.8105 29.7637 80.3136C29.195 83.1192 27.815 85.696 25.7949 87.7242C24.6679 88.819 23.3205 89.6611 21.8426 90.1944L21.8344 90.2191ZM28.6109 96.5592C28.4178 96.5549 28.2286 96.5041 28.0592 96.4111L18.0714 90.6473C17.8546 90.5269 17.6843 90.3374 17.5875 90.109C17.4908 89.8807 17.4732 89.6265 17.5376 89.387C17.602 89.1474 17.7446 88.9363 17.9428 88.7872C18.141 88.6381 18.3834 88.5595 18.6313 88.5641C20.7309 88.5049 22.7307 87.655 24.2305 86.1844C25.9124 84.4787 27.0575 82.3174 27.524 79.9677C27.8616 77.7528 27.524 73.3806 27.2605 70.1447C27.1947 69.2472 27.1206 68.4155 27.0794 67.6745C26.7583 62.8658 26.3548 57.9666 25.8772 53.1333C25.5314 49.7573 26.3466 47.74 27.9687 45.1792C29.2532 43.2439 30.8504 41.5355 32.695 40.1236C35.9886 37.6946 39.2822 35.3067 42.5016 33.0506C45.1612 31.1979 47.8372 29.3865 50.5545 27.6162C51.9625 26.694 54.0951 25.3025 56.5488 26.5211L66.6025 32.2849C66.839 32.4373 67.0095 32.6731 67.0801 32.9456C67.1506 33.218 67.1161 33.5069 66.9832 33.755C66.8504 34.003 66.629 34.1919 66.3631 34.2842C66.0973 34.3764 65.8065 34.3653 65.5485 34.2528C64.7828 33.8823 64.1734 33.9317 63.0124 34.4587C61.311 35.4307 59.662 36.4916 58.0721 37.637L56.5982 38.6497C53.7081 40.6259 50.8344 42.6349 48.0184 44.6934L46.9068 45.5168C45.246 46.644 43.6717 47.8936 42.197 49.2551C40.5344 50.8638 39.2395 52.8132 38.4011 54.9694C37.7095 57.1102 38.1047 60.4451 38.4588 63.3846C38.5658 64.3068 38.6728 65.1631 38.7387 65.9454C39.0681 70.0294 39.3425 74.1244 39.5621 78.2304L39.6938 80.503C39.9424 82.6331 39.8814 84.7881 39.5127 86.9008C38.7804 89.6787 37.2453 92.1791 35.0993 94.089C33.2736 95.6148 30.9891 96.4846 28.6109 96.5592V96.5592Z" fill="#3464C3"/>
<path fill-rule="evenodd" clip-rule="evenodd" d="M68.0108 57.8513L58.0312 52.0875C67.4015 57.0279 82.6591 36.6406 76.4177 25.3271C74.6556 22.1241 74.9685 19.3575 76.5412 16.1874L86.529 21.9512C81.6628 31.832 93.2562 32.1283 84.8822 47.6494C81.9345 53.0509 74.4498 61.2107 68.0108 57.8513Z" fill="#A1BFEB"/>
<path fill-rule="evenodd" clip-rule="evenodd" d="M68.5535 56.8715C73.9138 59.6381 80.9044 52.6968 83.8851 47.1142C88.3479 38.8802 86.8988 35.3314 85.5319 31.9307C84.4533 29.3206 83.3582 26.6281 85.112 22.4123L77.0756 17.7766C76.5562 18.8842 76.3169 20.1024 76.3786 21.3243C76.4403 22.5461 76.8013 23.7341 77.4297 24.7837C81.4726 32.1202 77.265 42.602 71.2542 48.7445C68.5946 51.4617 65.7869 53.1579 63.1438 53.6849L68.5782 56.8302L68.5535 56.8715ZM71.1472 59.7451C69.8765 59.7463 68.6246 59.4383 67.4995 58.8476H67.4584L57.4706 53.0838C57.2118 52.9408 57.0204 52.7008 56.9386 52.4166C56.8567 52.1325 56.8911 51.8275 57.0342 51.5687C57.1772 51.3099 57.4172 51.1187 57.7013 51.0368C57.9854 50.955 58.2904 50.9894 58.5492 51.1324C61.5381 52.7051 65.6881 51.2312 69.6321 47.213C75.1489 41.5728 78.8377 32.0625 75.4371 25.9035C73.6338 22.6099 73.675 19.5057 75.5441 15.7263C75.6097 15.5872 75.7036 15.4632 75.8199 15.3626C75.9362 15.2619 76.0722 15.1866 76.2193 15.1416C76.3658 15.0995 76.5193 15.0873 76.6707 15.1057C76.8221 15.1241 76.9682 15.1726 77.1003 15.2487L87.0881 21.0125C87.3345 21.1547 87.5181 21.3847 87.602 21.6565C87.686 21.9282 87.6642 22.2218 87.541 22.4781C85.6225 26.3481 86.4871 28.456 87.541 31.1156C89.0725 34.8209 90.7934 39.0284 85.8284 48.2175C82.9382 53.5943 76.9192 59.7451 71.1554 59.7451H71.1472Z" fill="#3464C3"/>
<path fill-rule="evenodd" clip-rule="evenodd" d="M86.5283 21.9512L76.5405 16.1874C78.5414 12.4327 80.0647 11.7328 83.7288 9.90486C86.6601 8.4502 89.6133 7.03668 92.5885 5.66435C95.3057 4.41279 98.0559 3.19422 100.822 2.025C102.659 1.2016 104.264 0.691104 106.224 1.41569L116.204 7.17947C115.314 6.82784 114.341 6.74199 113.404 6.93241C112.072 7.26416 110.778 7.73323 109.542 8.33215C106.364 9.70448 103.202 11.1318 100.057 12.6139C97.076 14.0136 94.1255 15.4573 91.2052 16.9449C90.8429 17.1426 90.53 17.3319 90.1842 17.5625C88.6318 18.7116 87.378 20.2167 86.5283 21.9512V21.9512Z" fill="#A1BFEB"/>
<path fill-rule="evenodd" clip-rule="evenodd" d="M78.0637 15.7674L86.1166 20.4196C86.9711 18.9414 88.1269 17.6594 89.509 16.6568C89.9207 16.3768 90.2583 16.1709 90.6453 15.9568C93.6259 14.45 96.5737 13.0009 99.5709 11.5928C102.724 10.119 105.886 8.68619 109.081 7.30288L109.583 7.08065C110.389 6.71263 111.213 6.38824 112.054 6.109L105.615 2.38723C104.207 1.87672 102.889 2.33787 101.209 3.05423C98.4648 4.22345 95.7201 5.43377 92.9755 6.68534C90.0112 8.04394 87.0799 9.46019 84.1569 10.9094C80.8633 12.5562 79.5294 13.2231 77.9896 15.7674H78.0637ZM86.5283 23.071C86.332 23.0707 86.139 23.0197 85.9683 22.9228L75.9888 17.159C75.7351 17.0153 75.5482 16.7777 75.4681 16.4973C75.388 16.217 75.4212 15.9164 75.5606 15.6604C77.6767 11.6751 79.447 10.7941 82.9712 9.07321C86.1577 7.47582 89.1137 6.06784 92.0944 4.68454C94.8363 3.42474 97.5782 2.2143 100.328 1.03684C102.272 0.213448 104.198 -0.461653 106.553 0.402913L116.714 6.25725C116.967 6.39055 117.16 6.61648 117.251 6.88807C117.342 7.15965 117.324 7.45591 117.202 7.71498C117.08 7.97406 116.863 8.17604 116.595 8.27876C116.328 8.38147 116.031 8.37697 115.767 8.26629C115.038 7.98216 114.242 7.91918 113.478 8.08517C112.43 8.35248 111.41 8.71915 110.431 9.18025L109.921 9.40259C106.759 10.7749 103.611 12.1967 100.477 13.6678C97.5124 15.0621 94.5701 16.5003 91.6498 17.9824C91.3451 18.1553 91.0652 18.3282 90.7523 18.5258C89.3524 19.576 88.2233 20.9452 87.4587 22.5193C87.3878 22.6526 87.2908 22.7701 87.1733 22.8649C87.0559 22.9597 86.9205 23.0298 86.7753 23.071C86.6932 23.0796 86.6104 23.0796 86.5283 23.071V23.071Z" fill="#3464C3"/>
<path fill-rule="evenodd" clip-rule="evenodd" d="M116.83 41.8032L106.833 36.0395C109.304 37.3487 111.823 35.356 113.421 33.5693C116.237 30.1851 117.752 27.9619 121.885 25.9446C124.15 24.973 126.183 24.5366 128.522 25.5329L138.51 31.2967C135.957 30.218 133.668 30.8192 131.272 31.9966C129.439 32.9863 127.773 34.2558 126.332 35.7595C124.759 37.4063 123.639 39.3248 121.885 40.7822C120.403 41.9267 118.633 42.7666 116.83 41.8032Z" fill="#A1BFEB"/>
<path fill-rule="evenodd" clip-rule="evenodd" d="M117.365 40.8317C118.435 41.3834 119.629 41.0952 121.235 39.9095C122.176 39.0632 123.031 38.1254 123.787 37.1099C124.347 36.41 124.907 35.6937 125.549 35.0267C127.06 33.4363 128.811 32.0918 130.737 31.0415C131.706 30.5509 132.724 30.1645 133.775 29.8887L127.97 26.5375C126.06 25.7141 124.331 26.134 122.33 27.0068C118.921 28.6536 117.439 30.4816 115.183 33.2235L114.293 34.3103C113.332 35.4483 112.146 36.3761 110.81 37.0358L117.398 40.8317H117.365ZM118.468 43.3512C117.709 43.3504 116.962 43.1609 116.294 42.7996C116.294 42.7996 116.294 42.7996 116.294 42.7996L106.307 37.0358C106.178 36.9645 106.064 36.8684 105.973 36.7532C105.881 36.638 105.813 36.506 105.773 36.3645C105.732 36.2231 105.72 36.0751 105.737 35.9289C105.753 35.7827 105.799 35.6412 105.87 35.5125C105.941 35.3838 106.037 35.2704 106.153 35.1789C106.268 35.0873 106.4 35.0194 106.541 34.9789C106.683 34.9383 106.831 34.9261 106.977 34.9428C107.123 34.9595 107.265 35.0048 107.393 35.0762C109.287 36.0889 111.51 34.1292 112.622 32.8694L113.445 31.8319C115.8 28.9747 117.496 26.8916 121.391 24.9895C123.516 24.0756 126.043 23.3427 128.958 24.5531L139.069 30.3827C139.316 30.5255 139.499 30.7568 139.581 31.0295C139.663 31.3023 139.637 31.596 139.511 31.8509C139.384 32.1058 139.164 32.3028 138.897 32.4017C138.63 32.5007 138.336 32.4942 138.073 32.3836C136.204 31.5602 134.36 31.7825 131.774 33.0588C130.058 33.9866 128.497 35.1755 127.147 36.5829C126.579 37.1922 126.052 37.8509 125.5 38.5097C124.637 39.6592 123.661 40.7186 122.585 41.6716C121.423 42.6491 119.983 43.2366 118.468 43.3512V43.3512Z" fill="#3464C3"/>
<path fill-rule="evenodd" clip-rule="evenodd" d="M90.0936 121.903L80.1141 116.14C78.7637 115.242 78.4673 113.933 78.4096 112.393C78.5414 109.396 80.0564 106.629 80.1882 103.039C80.2705 99.7457 79.7271 96.5345 76.7793 94.6654L86.7671 100.429C87.8643 101.098 88.7273 102.09 89.2373 103.27C90.4477 106.111 90.2995 109.264 89.7396 112.237C89.1797 114.913 87.8046 117.301 88.6527 120.092C88.9089 120.844 89.4181 121.485 90.0936 121.903V121.903Z" fill="#A1BFEB"/>
<path fill-rule="evenodd" clip-rule="evenodd" d="M80.7889 98.2637C81.2306 99.8262 81.4114 101.451 81.3241 103.072C81.196 104.893 80.8645 106.694 80.3361 108.441C79.9291 109.739 79.6668 111.078 79.5538 112.434C79.5538 113.875 79.9079 114.641 80.7478 115.201L87.3349 119.013C87.2467 117.331 87.5103 115.648 88.1089 114.073C88.3148 113.389 88.5206 112.706 88.6688 111.99C89.3193 108.564 89.1711 105.913 88.2324 103.69C87.8023 102.715 87.0764 101.9 86.1575 101.36L80.7642 98.2472L80.7889 98.2637ZM90.0933 123.04C89.9002 123.035 89.7109 122.984 89.5416 122.891L79.5538 117.128C78.8013 116.607 78.1969 115.901 77.8 115.076C77.403 114.252 77.2271 113.339 77.2895 112.426C77.3898 110.885 77.6661 109.36 78.1129 107.881C78.6029 106.294 78.9095 104.655 79.0269 102.998C79.1257 99.2353 78.2035 96.9545 76.1532 95.5877C76.0287 95.511 75.9206 95.4106 75.835 95.292C75.7494 95.1735 75.688 95.0393 75.6544 94.897C75.6207 94.7548 75.6155 94.6072 75.6389 94.4629C75.6623 94.3186 75.714 94.1804 75.7909 94.0561C75.9445 93.8084 76.1881 93.6297 76.4705 93.5575C76.7529 93.4854 77.0524 93.5253 77.306 93.6691L87.2938 99.4329C88.5882 100.203 89.6144 101.353 90.2333 102.726C91.3861 105.435 91.5672 108.49 90.8344 112.41C90.6615 113.233 90.4391 113.958 90.2168 114.69C89.6734 116.485 89.204 117.984 89.7228 119.73C89.8854 120.23 90.225 120.655 90.6779 120.924C90.8814 121.056 91.0364 121.251 91.1195 121.479C91.2027 121.707 91.2095 121.956 91.1388 122.188C91.0682 122.42 90.9241 122.623 90.7281 122.766C90.5321 122.91 90.2949 122.985 90.0522 122.982L90.0933 123.04Z" fill="#3464C3"/>
<path fill-rule="evenodd" clip-rule="evenodd" d="M38.2201 148.293L28.2405 142.53C25.9597 140.685 27.2195 135.72 27.4583 132.953C27.8123 128.836 28.1088 124.72 28.3476 120.603C28.5205 117.679 29.8379 110.277 27.1289 108.531L37.1167 114.295C37.5584 114.583 37.9288 114.968 38.1999 115.42C38.4709 115.872 38.6355 116.38 38.6812 116.905V117.342C38.78 119.145 38.5741 121.294 38.4836 123.106C38.242 127.761 37.9291 132.402 37.5449 137.029C37.3967 139.911 35.8734 146.367 38.2201 148.293Z" fill="#A1BFEB"/>
<path fill-rule="evenodd" clip-rule="evenodd" d="M29.7633 111.347C30.028 113.863 29.9838 116.401 29.6316 118.906C29.5657 119.598 29.4998 120.199 29.4751 120.685C29.2281 124.802 28.9317 128.919 28.5858 133.036C28.5364 133.571 28.4623 134.18 28.3635 134.822C28.0424 137.243 27.5895 140.586 28.9564 141.648L35.8894 145.65C35.7393 143.385 35.8581 141.11 36.2434 138.873C36.3422 138.149 36.4328 137.482 36.474 136.963C36.8527 132.27 37.1656 127.593 37.4044 123.064L37.4867 121.648C37.6024 120.235 37.6463 118.817 37.6185 117.399L37.5691 117.053C37.5503 116.689 37.4449 116.335 37.2616 116.02C37.0783 115.705 36.8224 115.438 36.5151 115.242L29.7633 111.347V111.347ZM38.2196 149.388C38.0254 149.392 37.8341 149.34 37.6679 149.24L27.6801 143.476C25.2099 141.467 25.7122 137.614 26.1321 134.518C26.2227 133.892 26.2968 133.324 26.3462 132.871C26.692 128.776 26.9857 124.675 27.2272 120.569C27.2272 120.067 27.326 119.433 27.3919 118.717C27.6472 116.074 28.2153 110.582 26.5273 109.511C26.2729 109.357 26.0901 109.108 26.0191 108.82C25.948 108.531 25.9946 108.226 26.1486 107.971C26.3025 107.717 26.5512 107.534 26.84 107.463C27.1288 107.392 27.4339 107.439 27.6883 107.593L37.6761 113.356C38.258 113.726 38.749 114.223 39.1125 114.809C39.476 115.395 39.7027 116.055 39.7758 116.741L39.8252 117.235C39.8759 118.759 39.8402 120.284 39.7182 121.804L39.6276 123.212C39.3888 127.758 39.0841 132.459 38.6971 137.21C38.6971 137.77 38.5654 138.462 38.4584 139.236C38.1043 141.887 37.5032 146.325 38.9359 147.47C39.152 147.65 39.2929 147.904 39.331 148.183C39.3691 148.462 39.3016 148.745 39.1418 148.977C39.0333 149.115 38.8926 149.225 38.7318 149.297C38.5711 149.369 38.3952 149.4 38.2196 149.388V149.388Z" fill="#3464C3"/>
<path fill-rule="evenodd" clip-rule="evenodd" d="M14.6379 124.497L4.65831 118.733C2.8139 117.342 2.14695 115.646 1.75996 113.414C1.44279 110.293 1.8805 107.141 3.03621 104.225C4.56691 100.067 7.08455 96.3426 10.3727 93.3725C12.0981 91.7889 14.1624 90.6201 16.4082 89.9554C18.6396 89.4284 19.7018 89.8978 22.0896 88.9262C23.7864 88.2066 25.243 87.0185 26.289 85.5009L36.2768 91.2647C35.3936 92.5118 34.2466 93.5491 32.9173 94.303L32.6044 94.4595C29.5743 95.8428 27.664 95.0606 24.6916 96.3121C21.1592 97.9095 18.5161 100.61 16.3012 103.723C13.6052 107.478 11.993 111.901 11.6407 116.51C11.5584 119.565 12.0524 122.546 14.6379 124.497Z" fill="#A1BFEB"/>
<path fill-rule="evenodd" clip-rule="evenodd" d="M26.5606 86.942C25.4883 88.2585 24.1082 89.2907 22.5424 89.9474C21.3517 90.449 20.0791 90.7281 18.7877 90.7708C18.0754 90.8056 17.3673 90.902 16.6716 91.059C14.5925 91.6768 12.6846 92.7675 11.0972 94.2455C7.95317 97.0945 5.54608 100.663 4.08189 104.645C2.97387 107.386 2.56088 110.359 2.87971 113.299C3.20083 115.201 3.70311 116.65 5.3499 117.869L11.0478 121.162C10.6375 119.65 10.4653 118.083 10.5373 116.518C10.8908 111.695 12.5722 107.064 15.3954 103.138C18.129 99.3011 20.9451 96.8227 24.2551 95.3241C25.5689 94.792 26.9582 94.4698 28.3721 94.3691C29.6667 94.293 30.9377 93.9891 32.1268 93.4715L32.3985 93.3316C33.2081 92.8816 33.9371 92.2999 34.5558 91.6106L26.5524 86.9831L26.5606 86.942ZM14.6378 125.642C14.4443 125.64 14.2544 125.589 14.0862 125.493L4.09835 119.73C3.13591 119.002 2.33363 118.084 1.74148 117.033C1.14933 115.982 0.780015 114.82 0.656552 113.62C0.306556 110.311 0.761341 106.966 1.98221 103.871C3.57879 99.5451 6.19748 95.6694 9.61512 92.574C11.48 90.8749 13.7031 89.617 16.1199 88.8934C16.9322 88.709 17.7585 88.5932 18.5901 88.5476C19.6355 88.5208 20.6675 88.306 21.6367 87.9135C23.1464 87.2724 24.4388 86.2087 25.3585 84.8505C25.5249 84.6363 25.7624 84.4886 26.0282 84.4342C26.294 84.3798 26.5705 84.4224 26.8077 84.5541L36.7954 90.3179C36.9329 90.3985 37.0521 90.5067 37.1457 90.6356C37.2392 90.7646 37.305 90.9116 37.3389 91.0672C37.3695 91.2234 37.3663 91.3844 37.3294 91.5392C37.2924 91.6941 37.2227 91.8391 37.1248 91.9647C36.1597 93.343 34.8959 94.4857 33.4277 95.3076L33.0737 95.4806C31.659 96.1145 30.1417 96.4882 28.5944 96.5839C27.3897 96.6755 26.2064 96.9533 25.0867 97.4073C22.1801 98.733 19.6606 100.973 17.1821 104.447C14.5975 108.026 13.0529 112.249 12.7193 116.65C12.6452 120.15 13.411 122.266 15.2801 123.674C15.5088 123.845 15.664 124.097 15.7145 124.378C15.7649 124.659 15.7068 124.949 15.5518 125.189C15.4419 125.325 15.3025 125.434 15.1442 125.508C14.9858 125.582 14.8127 125.62 14.6378 125.617V125.642Z" fill="#3464C3"/>
<path fill-rule="evenodd" clip-rule="evenodd" d="M43.3826 46.8096C49.4977 42.2205 55.6156 37.9415 61.7362 33.9728C63.9593 32.5236 65.9437 32.6307 67.0306 34.2363C68.1175 35.8419 68.0022 38.518 66.7177 41.3587C65.4031 44.1641 64.6854 47.2119 64.6098 50.309C64.6098 57.7196 69.8137 60.7496 76.2444 57.0361C82.6751 53.3226 87.9037 44.2817 87.9037 36.8547C87.9714 34.9629 87.5185 33.0889 86.5945 31.4367C86.026 30.4656 85.6095 29.4132 85.3594 28.316C84.9946 26.123 85.4082 23.8714 86.5287 21.9512C87.5257 19.8397 89.1542 18.0903 91.1891 16.945C97.9244 13.5087 104.668 10.366 111.42 7.51701C114.952 6.02666 118.468 6.86655 117.892 11.247C116.723 20.2385 115.833 29.0653 115.29 37.6863C115.125 40.3459 116.171 42.0421 118.098 42.215C120.024 42.3879 122.272 40.9882 124.108 38.4768C125.865 36.0102 128.106 33.9284 130.696 32.3589C137.135 28.6454 142.355 31.6508 142.355 39.0779C142.355 46.5049 137.135 55.5458 130.696 59.2594C129.09 60.261 127.244 60.81 125.352 60.8485C123.819 60.8555 122.312 61.2491 120.971 61.993C119.192 63.0758 117.715 64.591 116.679 66.3977C115.642 68.2045 115.08 70.2441 115.043 72.3267C115.488 80.8609 116.45 89.3601 117.925 97.7778C118.575 101.442 114.961 106.259 111.453 108.976C105.87 113.307 100.249 117.377 94.5897 121.187C92.4818 122.603 90.588 122.644 89.4188 121.286C88.2495 119.927 88.1343 117.564 89.1059 114.839C89.8755 112.632 90.2598 110.309 90.2422 107.971C90.2422 100.561 85.0218 97.5309 78.5829 101.253C72.1439 104.974 66.9071 113.982 66.9071 121.393C66.8429 123.286 67.2925 125.161 68.2081 126.819L68.381 127.124C69.2702 128.77 69.1138 131.241 67.9446 133.859C66.9621 136.304 65.1721 138.338 62.8724 139.623C56.428 142.818 49.9314 145.689 43.3826 148.236C39.8667 149.611 36.4826 148.828 36.9107 144.506C37.8 135.607 38.4093 126.855 38.7387 118.248C38.8457 115.654 37.7671 114.032 35.8486 113.916C33.93 113.801 31.7316 115.193 29.8872 117.696C28.1426 120.195 25.8999 122.306 23.3 123.896C16.861 127.618 11.6489 124.604 11.6489 117.177C11.6489 109.75 16.861 100.709 23.3 97.0039C24.9035 95.9967 26.7506 95.4444 28.6438 95.4064C30.0322 95.3882 31.3982 95.0531 32.6373 94.4266C34.5054 93.4564 36.042 91.9514 37.0507 90.1038C38.1991 88.307 38.8052 86.2171 38.7963 84.0847C38.4423 75.2332 37.8083 66.5299 36.9437 57.9831C36.5238 54.146 39.8667 49.4362 43.3826 46.8096Z" fill="white"/>
<path fill-rule="evenodd" clip-rule="evenodd" d="M35.6099 112.813H35.9146C38.4753 112.97 40.0316 115.077 39.8669 118.313C39.521 126.976 38.9035 135.827 38.0307 144.662C37.9072 145.947 38.1624 146.844 38.78 147.322C39.6034 147.947 41.2502 147.915 42.9711 147.231C49.4759 144.695 56.0055 141.813 62.3785 138.651C64.4417 137.492 66.0457 135.661 66.9237 133.464C67.9282 131.175 68.1094 129.018 67.4013 127.7C67.4013 127.7 67.2448 127.437 67.2448 127.428C66.2165 125.6 65.7122 123.523 65.7874 121.426C65.7874 113.645 71.263 104.134 77.9984 100.273C81.4649 98.2719 84.7832 97.9755 87.3522 99.4493C89.9212 100.923 91.3209 103.945 91.3209 107.955C91.3399 110.418 90.939 112.865 90.1353 115.193C89.3119 117.515 89.3119 119.516 90.2258 120.545C91.2633 121.739 93.0007 120.874 93.9229 120.248C99.5714 116.452 105.22 112.352 110.745 108.079C114.08 105.485 117.332 101.063 116.789 97.9508C115.312 89.4915 114.344 80.9512 113.89 72.3761C113.903 70.0756 114.51 67.8175 115.653 65.8208C116.795 63.8242 118.435 62.1567 120.412 60.9803C121.932 60.1649 123.627 59.7272 125.352 59.704C127.038 59.6595 128.681 59.1648 130.111 58.2713C136.221 54.7389 141.194 46.1262 141.194 39.0614C141.194 35.8914 140.181 33.5529 138.345 32.4743C136.509 31.3956 133.973 31.7003 131.231 33.2977C128.78 34.7927 126.662 36.7739 125.006 39.119C122.939 41.9433 120.329 43.516 117.999 43.302C115.43 43.0796 113.956 40.8811 114.17 37.5875C114.714 29.1889 115.586 20.2962 116.78 11.0824C116.896 10.1849 116.863 8.98274 116.072 8.38166C115.282 7.78058 113.602 7.78062 111.865 8.52167C105.039 11.4118 98.254 14.5818 91.6915 17.9166C89.8733 18.9596 88.4212 20.5382 87.5333 22.437C86.5394 24.1264 86.1557 26.106 86.4464 28.0444C86.6706 29.0241 87.0456 29.963 87.558 30.8275C88.5861 32.6567 89.093 34.7329 89.0237 36.8301C89.0237 44.6112 83.5481 54.1214 76.8045 57.9831C73.338 59.9839 70.0197 60.2804 67.4589 58.8065C64.8982 57.3326 63.4819 54.3108 63.4819 50.3008C63.5526 47.0431 64.3073 43.8367 65.6968 40.8894C66.8002 38.4192 66.9566 36.1219 66.1085 34.8456C65.1287 33.4129 63.3337 34.261 62.3456 34.895C56.2113 38.8885 50.0523 43.1949 44.0497 47.6989C40.8714 50.0785 37.6766 54.4507 38.0307 57.8843C38.9117 66.5547 39.5293 75.3568 39.8751 84.0601C39.8894 86.3921 39.2319 88.6789 37.9813 90.6473C36.8529 92.6838 35.1487 94.3422 33.0821 95.4147C31.6749 96.0773 30.1488 96.4498 28.5946 96.5099C26.9041 96.5489 25.2561 97.047 23.8271 97.9508C17.7175 101.475 12.7442 110.088 12.7442 117.152C12.7442 120.331 13.7569 122.661 15.5931 123.74C17.4293 124.818 19.9489 124.505 22.7073 122.916C25.1834 121.412 27.3177 119.406 28.9733 117.029C30.9577 114.312 33.3538 112.78 35.6099 112.78V112.813ZM40.435 149.998C39.3614 150.031 38.3063 149.713 37.4296 149.092C36.5404 148.417 35.5358 147.066 35.7828 144.423C36.6474 135.662 37.2567 126.852 37.6108 118.231C37.6519 117.087 37.479 115.16 35.7499 115.061C34.2184 114.938 32.3328 116.23 30.8095 118.355C28.964 120.987 26.592 123.208 23.8436 124.876C20.3771 126.877 17.0506 127.173 14.4816 125.699C11.9126 124.225 10.521 121.195 10.521 117.185C10.521 109.412 15.9884 99.894 22.7237 96.0405C24.5029 94.9281 26.554 94.327 28.6522 94.3031C29.8659 94.2769 31.0575 93.9728 32.1352 93.4139C33.8 92.5364 35.169 91.1874 36.071 89.5357C37.1045 87.9238 37.6532 86.0489 37.6519 84.1342C37.3061 75.4803 36.6886 66.7276 35.8158 58.1066C35.3876 53.8085 38.9611 48.7117 42.7241 45.8874C48.7678 41.367 54.9597 37.0359 61.1435 33.0095C63.9018 31.2145 66.5202 31.4368 67.9694 33.6023C69.2869 35.5373 69.1963 38.6085 67.7636 41.7951C66.5006 44.4544 65.8105 47.3495 65.738 50.2926C65.738 53.4709 66.7508 55.8093 68.587 56.8798C70.4231 57.9502 72.9674 57.6538 75.7093 56.0564C81.819 52.5322 86.8005 43.9112 86.8005 36.8464C86.8606 35.1591 86.4652 33.4867 85.656 32.0049C85.0172 30.942 84.5556 29.7824 84.2892 28.5714C83.851 26.1176 84.2974 23.588 85.549 21.4325C86.6443 19.1063 88.445 17.1846 90.6952 15.9405C97.2824 12.5728 104.133 9.35322 111 6.47956C113.536 5.40915 115.941 5.46682 117.456 6.61958C118.361 7.303 119.366 8.69458 119.02 11.3953C117.826 20.5268 116.962 29.3948 116.426 37.744C116.352 38.9379 116.484 40.9388 118.205 41.087C119.695 41.2187 121.638 39.9671 123.219 37.7934C125.06 35.2012 127.41 33.0128 130.128 31.3627C133.602 29.3536 136.929 29.0654 139.481 30.5393C142.034 32.0132 143.458 35.035 143.458 39.045C143.458 46.8261 137.975 56.3363 131.247 60.1981C129.451 61.2729 127.411 61.8736 125.319 61.9437C123.969 61.9352 122.64 62.2815 121.466 62.9482C119.834 63.8819 118.503 65.2615 117.628 66.9252C116.628 68.5139 116.11 70.3589 116.138 72.2361C116.59 80.7226 117.547 89.1746 119.004 97.5474C119.761 101.738 115.965 106.852 112.128 109.832C106.562 114.139 100.872 118.264 95.1992 122.076C92.5972 123.83 90.1106 123.797 88.5461 121.986C87.1052 120.339 86.8993 117.548 88.0438 114.427C88.7586 112.339 89.1149 110.145 89.0978 107.939C89.0978 104.76 88.0932 102.438 86.2488 101.351C84.4044 100.265 81.8848 100.577 79.1347 102.175C73.0251 105.699 68.0435 114.312 68.0435 121.376C67.9809 123.063 68.3734 124.735 69.1798 126.218L69.361 126.539C70.4396 128.515 70.2996 131.34 68.9904 134.287C67.9032 136.969 65.9301 139.198 63.3996 140.603C56.9524 143.781 50.3652 146.688 43.8027 149.265C42.7344 149.713 41.593 149.961 40.435 149.998Z" fill="#3464C3"/>
<path fill-rule="evenodd" clip-rule="evenodd" d="M109.444 110.516C104.503 114.27 99.5411 117.838 94.5568 121.22C92.4489 122.636 90.5551 122.677 89.3858 121.319C88.2166 119.96 88.1013 117.597 89.0729 114.871C89.8425 112.664 90.2269 110.342 90.2092 108.004C90.2092 100.594 84.9889 97.5636 78.5499 101.285C72.111 105.007 66.9071 113.982 66.9071 121.393C66.8429 123.286 67.2925 125.161 68.2081 126.819L68.381 127.124C69.2702 128.77 69.1138 131.241 67.9446 133.859C66.9621 136.303 65.1721 138.337 62.8724 139.623C56.428 142.818 49.9314 145.688 43.3826 148.235C39.8667 149.611 36.4826 148.828 36.9107 144.505C37.8 135.607 38.4093 126.855 38.7387 118.247C38.8457 115.654 37.7671 114.032 35.8485 113.916C33.93 113.801 31.7316 115.193 29.8872 117.696C28.1426 120.195 25.8999 122.306 23.3 123.896C16.861 127.618 11.6489 124.604 11.6489 117.177C11.6489 109.75 16.861 100.709 23.3 97.0037C24.9017 95.9927 26.75 95.4401 28.6438 95.4063C30.0297 95.3889 31.3931 95.0537 32.6291 94.4265C34.5014 93.4592 36.0414 91.9536 37.0507 90.1036C38.1991 88.3068 38.8052 86.217 38.7963 84.0845C38.7469 82.9647 38.6975 81.8614 38.6481 80.791C73.766 62.6845 102.618 75.6201 109.444 110.516Z" fill="#A1BFEB"/>
<path fill-rule="evenodd" clip-rule="evenodd" d="M35.6099 112.813H35.9146C38.4753 112.969 40.0316 115.077 39.8669 118.313C39.521 126.975 38.9035 135.827 38.0307 144.662C37.9072 145.946 38.1624 146.844 38.78 147.322C39.6034 147.947 41.2502 147.914 42.9711 147.231C49.4759 144.695 56.0055 141.813 62.3785 138.651C64.4417 137.492 66.0457 135.661 66.9237 133.464C67.9282 131.175 68.1094 129.017 67.4013 127.7L67.2448 127.428C66.2177 125.599 65.7135 123.522 65.7874 121.426C65.7874 113.645 71.263 104.134 77.9984 100.273C81.4649 98.2718 84.7832 97.9754 87.3522 99.4492C89.9212 100.923 91.3209 103.945 91.3209 107.955C91.3399 110.417 90.939 112.865 90.1352 115.193C89.3118 117.515 89.3119 119.515 90.2258 120.545C91.2633 121.739 93.0007 120.874 93.9229 120.248C98.7068 117.029 103.507 113.595 108.201 110.03C104.973 94.2948 97.2 83.039 85.7301 77.4728C73.1651 71.3879 56.87 72.7959 39.7598 81.4251L39.8751 84.0518C39.8894 86.3838 39.2319 88.6706 37.9813 90.6389C36.8528 92.6755 35.1487 94.3338 33.0821 95.4063C31.6755 96.0704 30.149 96.443 28.5946 96.5015C26.902 96.5269 25.2504 97.0261 23.8271 97.9425C17.7175 101.467 12.7442 110.079 12.7442 117.144C12.7442 120.322 13.7569 122.653 15.5931 123.731C17.4293 124.81 19.9489 124.497 22.7073 122.908C25.1797 121.399 27.3131 119.394 28.9733 117.021C30.9577 114.303 33.3538 112.772 35.6099 112.772V112.813ZM40.435 149.998C39.3614 150.03 38.3063 149.712 37.4296 149.092C36.5404 148.417 35.5358 147.066 35.7828 144.423C36.6474 135.654 37.2567 126.852 37.6108 118.231C37.6519 117.086 37.479 115.16 35.7499 115.061C34.2184 114.937 32.3328 116.23 30.8095 118.355C28.9662 120.989 26.5937 123.21 23.8436 124.876C20.3606 126.893 17.0506 127.173 14.4816 125.699C11.9126 124.225 10.521 121.195 10.521 117.185C10.521 109.412 15.9884 99.8939 22.7237 96.0404C24.5077 94.9387 26.5558 94.3385 28.6522 94.303H28.751C29.9304 94.2569 31.0854 93.9534 32.1352 93.4138C33.8017 92.5387 35.1714 91.1891 36.071 89.5356C37.1045 87.9237 37.6532 86.0488 37.6519 84.1341L37.512 80.8405C37.5006 80.6258 37.5522 80.4124 37.6605 80.2267C37.7687 80.0409 37.9289 79.8907 38.1213 79.7948C56.096 70.548 73.3544 69.0165 86.7017 75.4967C99.0032 81.458 107.245 93.4961 110.539 110.31C110.576 110.515 110.556 110.726 110.482 110.92C110.408 111.114 110.283 111.285 110.119 111.413C105.179 115.151 100.189 118.766 95.1827 122.117C92.5807 123.871 90.0941 123.838 88.5296 122.027C87.0887 120.38 86.8828 117.589 88.0274 114.468C88.7421 112.38 89.0984 110.186 89.0813 107.98C89.0813 104.801 88.0768 102.479 86.2324 101.392C84.3879 100.306 81.8684 100.618 79.1182 102.216C73.0086 105.74 68.0271 114.353 68.0271 121.418C67.9645 123.104 68.3569 124.776 69.1633 126.259L69.3445 126.58C70.4231 128.565 70.2832 131.381 68.974 134.345C67.8813 137.019 65.9091 139.241 63.3831 140.644C56.9359 143.822 50.3487 146.729 43.7863 149.306C42.7204 149.738 41.5848 149.972 40.435 149.998Z" fill="#3464C3"/>
<path fill-rule="evenodd" clip-rule="evenodd" d="M79.9819 54.1789C84.5847 49.7244 87.903 42.7749 87.903 36.8876C87.9707 34.9958 87.5178 33.1218 86.5938 31.4697C86.0253 30.4986 85.6087 29.4461 85.3587 28.349C84.9938 26.1559 85.4075 23.9043 86.5279 21.9841C87.525 19.8727 89.1535 18.1232 91.1884 16.9778C97.9237 13.5415 104.667 10.3989 111.419 7.54997C114.952 6.05962 118.468 6.89951 117.891 11.28C116.722 20.2715 115.833 29.0983 115.289 37.7192C115.125 40.3788 116.17 42.075 118.097 42.2479C120.024 42.4208 122.272 41.021 124.108 38.5097C125.864 36.0431 128.106 33.9613 130.695 32.3919C135.915 29.3783 140.329 30.7863 141.811 35.3726C136.833 39.5702 131.502 43.3306 125.878 46.612C108.439 56.6245 92.4729 58.757 79.9819 54.1789Z" fill="#A1BFEB"/>
<path fill-rule="evenodd" clip-rule="evenodd" d="M82.008 53.6767C94.359 57.4973 109.6 54.6648 125.278 45.6074C130.618 42.4956 135.691 38.9455 140.445 34.9938C140.203 34.3694 139.836 33.8008 139.368 33.3224C138.899 32.844 138.338 32.4657 137.719 32.2107C135.957 31.5273 133.651 31.9308 131.231 33.3224C128.78 34.8175 126.662 36.7986 125.006 39.1438C122.939 41.968 120.329 43.5407 117.999 43.3266C115.43 43.1043 113.956 40.9058 114.17 37.6122C114.713 29.2136 115.586 20.321 116.78 11.1071C116.895 10.2096 116.862 9.00746 116.072 8.40638C115.281 7.8053 113.602 7.80524 111.864 8.5463C105.022 11.4529 98.2454 14.6148 91.6912 17.9413C89.8707 18.9852 88.4182 20.5672 87.533 22.47C86.5384 24.1561 86.1546 26.1333 86.4462 28.0691C86.6718 29.0483 87.0467 29.987 87.5577 30.8522C88.5858 32.6815 89.0927 34.7575 89.0234 36.8547C89.0234 42.3961 86.2568 48.9422 82.008 53.6767V53.6767ZM93.3791 57.5714C88.6847 57.6102 84.0206 56.8157 79.6037 55.2247C79.424 55.16 79.2638 55.0503 79.1384 54.9062C79.013 54.7621 78.9266 54.5883 78.8874 54.4013C78.8476 54.2166 78.8562 54.0247 78.9125 53.8444C78.9688 53.664 79.0707 53.5014 79.2085 53.3721C83.7372 48.9834 86.7838 42.3467 86.7838 36.8547C86.8438 35.1673 86.4485 33.4949 85.6392 32.0131C85.0019 30.9495 84.5404 29.7902 84.2724 28.5796C83.8343 26.1259 84.2807 23.5963 85.5322 21.4407C86.6275 19.1145 88.4282 17.1927 90.6784 15.9486C97.2656 12.5974 104.092 9.41086 110.983 6.4878C113.519 5.41739 115.924 5.47506 117.439 6.62782C118.345 7.31124 119.349 8.70282 119.003 11.4036C117.809 20.535 116.945 29.403 116.41 37.7523C116.335 38.9462 116.467 40.947 118.188 41.0952C119.678 41.2269 121.622 39.9754 123.203 37.8016C125.043 35.2094 127.394 33.021 130.111 31.3709C133.125 29.6253 136.105 29.1807 138.518 30.1029C139.564 30.5313 140.498 31.1933 141.248 32.0381C141.999 32.883 142.546 33.8884 142.849 34.9774C142.917 35.1908 142.92 35.4195 142.859 35.6349C142.797 35.8502 142.674 36.0426 142.503 36.1878C137.468 40.4221 132.08 44.2181 126.397 47.5342C114.919 54.179 103.598 57.5714 93.3874 57.5714H93.3791Z" fill="#3464C3"/>
<path fill-rule="evenodd" clip-rule="evenodd" d="M27.5156 48.4975C29.2448 43.9029 33.0241 41.268 36.82 38.5014C40.9782 35.4631 45.1693 32.5483 49.4509 29.7076C51.3283 28.4725 53.7079 26.414 56.0381 27.5503L66.0259 33.3141C65.5444 33.0766 65.0148 32.953 64.4779 32.953C63.9411 32.953 63.4114 33.0766 62.9299 33.3141C61.4928 34.0526 60.1162 34.9033 58.813 35.8583C56.104 37.6616 53.4362 39.4978 50.7766 41.3669C48.117 43.236 45.2104 45.2616 42.6661 47.3201C41.3154 48.4599 40.1171 49.7688 39.1008 51.2147C38.4412 52.1576 37.8888 53.1711 37.454 54.2365V54.2365L27.5156 48.4975Z" fill="#A1BFEB"/>
<path fill-rule="evenodd" clip-rule="evenodd" d="M28.9563 48.02L37.0091 52.6804C37.3665 51.955 37.7708 51.2536 38.2195 50.5807C39.2979 49.0548 40.565 47.6715 41.9906 46.4638C44.1479 44.7346 46.5029 43.0632 48.7919 41.4411L50.1834 40.4612C52.8595 38.5756 55.5273 36.723 58.2445 34.928L59.1091 34.3351C60.1054 33.6158 61.154 32.9717 62.2462 32.4084L55.4944 28.5219C54.2181 27.8961 52.7689 28.769 50.8669 30.0946L50.0435 30.6463C45.8606 33.4294 41.7354 36.2866 37.4619 39.4073L37.0091 39.7283C33.7155 42.1409 30.5784 44.4382 28.9233 48.02H28.9563ZM37.4949 55.3729C37.307 55.3764 37.1218 55.328 36.9597 55.233L26.9801 49.4692C26.7487 49.3373 26.5718 49.1273 26.4812 48.8768C26.3907 48.6262 26.3924 48.3517 26.4861 48.1023C28.2564 43.376 32.0522 40.6012 35.7164 37.9169L36.1775 37.5958C40.4838 34.4586 44.6337 31.5685 48.8413 28.7772L49.5988 28.2502C51.435 26.9822 53.9464 25.2284 56.5648 26.5458L66.6184 32.3096C66.855 32.462 67.0255 32.6978 67.0961 32.9702C67.1666 33.2426 67.1321 33.5316 66.9992 33.7797C66.8663 34.0278 66.645 34.2167 66.3791 34.3089C66.1133 34.4012 65.8224 34.3899 65.5645 34.2774C65.2174 34.1101 64.8353 34.028 64.45 34.038C64.0648 34.0481 63.6875 34.1499 63.3495 34.3351C62.3144 34.8584 61.3232 35.4641 60.3853 36.1466L59.4878 36.7559C56.7953 38.5509 54.1357 40.3789 51.4844 42.248L50.0846 43.2525C47.8368 44.8334 45.5066 46.4802 43.4234 48.1929C42.1526 49.2611 41.026 50.4901 40.0721 51.8488C39.4745 52.7261 38.9722 53.6645 38.5735 54.6483C38.5125 54.8005 38.4189 54.9376 38.2995 55.0499C38.18 55.1623 38.0375 55.2472 37.8819 55.2988C37.7577 55.344 37.627 55.369 37.4949 55.3729V55.3729Z" fill="#3464C3"/>
</svg>
