<svg width="128" height="150" viewBox="0 0 128 150" fill="none" xmlns="http://www.w3.org/2000/svg">
<path fill-rule="evenodd" clip-rule="evenodd" d="M48.0764 132.274C48.0764 153.76 4.56201 153.924 4.56201 132.422V94.8186C4.63049 95.2269 4.72648 95.6301 4.84935 96.0255C5.22647 97.0786 5.78192 98.059 6.4914 98.9237C8.79028 101.814 12.6738 103.735 16.1713 104.794C23.7987 107.101 33.8234 106.707 40.9828 102.98C43.1811 101.888 45.1017 100.31 46.5985 98.3654C47.2159 97.472 47.6717 96.4772 47.945 95.4262L48.0682 94.8186L48.0764 132.274Z" fill="#A1BFEB"/>
<path fill-rule="evenodd" clip-rule="evenodd" d="M5.6784 99.7037V132.422C5.6784 142.676 16.3518 147.356 26.2041 147.356C36.196 147.356 46.9761 142.627 46.9761 132.274V99.7037C45.4474 101.472 43.5833 102.921 41.4916 103.965C34.4964 107.627 24.1515 108.39 15.8345 105.861C13.2811 105.04 8.58483 103.259 5.6784 99.7037ZM26.2041 149.589C20.3091 149.589 14.8164 148.095 10.6949 145.394C5.95754 142.266 3.43701 137.783 3.43701 132.422V94.8186C3.43759 94.5406 3.54107 94.2726 3.72756 94.0664C3.91404 93.8602 4.1703 93.7303 4.44686 93.7019C4.72115 93.6742 4.99593 93.7496 5.21757 93.9136C5.43922 94.0775 5.59179 94.3183 5.64553 94.5887C5.71944 94.9527 5.81539 95.3118 5.93287 95.6642C6.25569 96.5916 6.73324 97.4577 7.34511 98.2258C9.87387 101.354 14.1596 103.012 16.4914 103.719C24.3075 106.099 33.9299 105.361 40.4571 101.994C42.5062 100.99 44.2959 99.5259 45.687 97.7168C46.221 96.9306 46.6231 96.0626 46.8775 95.1469L47.0171 94.5969C47.0673 94.3269 47.2181 94.086 47.4391 93.9229C47.6601 93.7598 47.9348 93.6867 48.2076 93.7184C48.4821 93.7447 48.7371 93.8717 48.9235 94.0749C49.11 94.278 49.2147 94.5429 49.2175 94.8186V132.274C49.2175 144.171 37.2797 149.589 26.2041 149.589Z" fill="#3464C3"/>
<path fill-rule="evenodd" clip-rule="evenodd" d="M8.98704 75.6231C18.6013 70.0811 34.1844 70.0811 43.7904 75.6231C53.3964 81.165 53.4128 90.1717 43.7904 95.7218C34.1679 101.272 18.6013 101.272 8.98704 95.7218C-0.627189 90.1717 -0.627189 81.1732 8.98704 75.6231Z" fill="#A1BFEB"/>
<path fill-rule="evenodd" clip-rule="evenodd" d="M26.3927 72.5687C20.3088 72.5687 14.1922 73.907 9.56161 76.5917C5.26764 79.0548 2.91131 82.2897 2.91131 85.6723C2.91131 89.055 5.26764 92.2405 9.56161 94.7529C18.8556 100.122 33.9543 100.122 43.2237 94.7529C47.5095 92.2898 49.8412 89.0057 49.8412 85.6723C49.8412 82.339 47.4848 79.1041 43.1908 76.5917C38.5602 73.907 32.5175 72.5687 26.3598 72.5687H26.3927ZM26.3927 100.976C19.8983 100.976 13.3712 99.5476 8.42037 96.6905C3.46958 93.8333 0.669922 89.8842 0.669922 85.6723C0.669922 81.4605 3.43677 77.5524 8.45324 74.6541C18.3548 68.9069 34.4634 68.9069 44.365 74.6541C49.3732 77.5524 52.1154 81.4687 52.1154 85.6723C52.1154 89.876 49.3732 93.8005 44.365 96.6905C39.3567 99.5805 32.8952 100.976 26.3927 100.976Z" fill="#3464C3"/>
<path fill-rule="evenodd" clip-rule="evenodd" d="M50.8921 87.0434V95.1469L50.7608 95.8284C50.3779 97.2717 49.6891 98.6157 48.741 99.7693C46.1301 103.053 41.7787 105.18 37.8378 106.338C29.2581 108.957 17.9443 108.497 9.9229 104.31C7.44361 103.087 5.28433 101.301 3.61737 99.0961C2.90667 98.1037 2.38097 96.9912 2.06561 95.812L1.90967 95.1306V87.0271C1.99058 87.482 2.1086 87.9295 2.26265 88.3652C2.7747 89.8144 3.57643 91.1441 4.619 92.2733C7.48438 95.4179 12.0083 97.4622 16.0395 98.5542C24.4222 100.796 35.1448 100.246 42.8953 96.2061C45.6191 94.8839 47.9469 92.8677 49.6442 90.3604C50.1469 89.5323 50.5283 88.6365 50.7771 87.7003L50.8921 87.0434Z" fill="#A1BFEB"/>
<path fill-rule="evenodd" clip-rule="evenodd" d="M3.0343 92.1257L3.1246 95.5986C3.40231 96.6428 3.87287 97.6258 4.51209 98.4969C6.0841 100.55 8.11032 102.21 10.4318 103.349C17.821 107.2 28.6914 107.98 37.5257 105.303C40.1776 104.482 44.997 102.618 47.8706 99.0715C48.7153 98.041 49.326 96.8392 49.6604 95.5493L49.8246 94.9254V92.1093C48.085 94.2453 45.9103 95.9862 43.4452 97.216C35.8836 101.165 25.005 102.142 15.7684 99.6791C12.8374 98.8581 7.37749 96.978 3.81424 93.0535C3.53581 92.778 3.2855 92.4755 3.06707 92.1503L3.0343 92.1257ZM26.4581 109.104C20.2676 109.104 14.1428 107.815 9.39726 105.328C6.75657 104.027 4.45665 102.126 2.68122 99.7776C1.88407 98.6646 1.29699 97.4153 0.948861 96.0912L0.792914 95.3769V87.0435C0.781428 86.7619 0.877581 86.4865 1.06191 86.2734C1.24624 86.0602 1.50483 85.9252 1.78512 85.8959C2.06542 85.8666 2.34636 85.9452 2.57077 86.1157C2.79518 86.2862 2.94625 86.5358 2.99321 86.8137C3.09173 87.2734 3.1574 87.6347 3.28055 88.0288C3.75602 89.3251 4.48442 90.514 5.42342 91.5264C8.609 95.0239 13.6337 96.7645 16.3349 97.487C25.0296 99.8269 35.2185 98.9402 42.3778 95.2374C44.3894 94.1865 47.107 92.3966 48.6752 89.8021C49.1311 89.0802 49.4614 88.2863 49.6521 87.454L49.8164 86.8054C49.8702 86.5363 50.0234 86.2972 50.2456 86.136C50.4677 85.9747 50.7425 85.903 51.0151 85.9351C51.2909 85.9616 51.5471 86.0898 51.7338 86.2946C51.9204 86.4995 52.0241 86.7664 52.0249 87.0435V95.147L51.8608 96.0502C51.4118 97.6631 50.6409 99.1684 49.5947 100.475C46.3763 104.49 41.056 106.559 38.1824 107.438C34.3768 108.563 30.4267 109.125 26.4581 109.104Z" fill="#3464C3"/>
<path fill-rule="evenodd" clip-rule="evenodd" d="M102.272 124.753V109.531L101.894 108.71C102.912 109.269 109.464 112.873 109.718 113.366L109.809 129.113L108.988 130.952L94.3899 139.376L87.9038 135.788V145.205C87.9613 146.642 88.1747 147.668 89.4144 148.555L81.902 144.22C80.6541 143.399 80.4242 142.2 80.3667 140.87V64.8429L77.017 62.9053C73.1828 60.6803 71.1959 57.1088 70.2435 52.8887C67.4109 40.212 74.1844 24.7521 82.3536 14.7274L89.8496 19.0706C87.6167 21.8213 85.6225 24.7575 83.889 27.8474C78.5687 37.4123 73.3059 54.6375 80.9004 64.1532C82.3782 66.0169 84.9398 66.7066 87.5178 68.4226C88.1172 68.8331 87.9038 70.549 87.9038 71.6328V134.564L100.95 127.019C101.331 126.777 101.648 126.446 101.872 126.054C102.097 125.662 102.223 125.221 102.239 124.77L102.272 124.753ZM118.446 6.67305C113.561 3.86513 111.607 2.07534 106.032 1.07368V23.849C106.032 26.0001 105.835 26.5255 104.39 28.225L95.3587 39.0133C94.16 40.4173 93.7166 40.3763 91.9843 40.2942L82.7231 39.8672C83.7822 40.4994 90.0303 44.3008 90.6953 44.3172L100.08 44.5717C102.296 44.6292 102.206 44.1366 103.643 42.4617C106.106 39.5388 111.032 33.8655 112.732 31.542C113.049 31.1967 113.286 30.7863 113.428 30.3396C113.57 29.8929 113.612 29.4206 113.553 28.9557V5.40873C115.263 5.49309 116.939 5.92314 118.479 6.67305H118.446Z" fill="#A1BFEB"/>
<path fill-rule="evenodd" clip-rule="evenodd" d="M87.1491 41.189C88.356 41.9407 89.6062 42.6205 90.8931 43.2252L100.138 43.4551C101.361 43.4551 101.394 43.4551 102.149 42.5355C102.346 42.3139 102.535 42.0347 102.814 41.7145L103.192 41.2711C105.811 38.1923 110.22 33.0609 111.829 30.8523C112.083 30.6099 112.271 30.3076 112.377 29.9734C112.483 29.6391 112.504 29.2836 112.437 28.9394V5.40871C112.435 5.25632 112.464 5.10514 112.522 4.96413C112.58 4.82311 112.665 4.69513 112.773 4.58769C111.009 3.59422 109.109 2.86399 107.133 2.42016V23.8325C107.133 26.2956 106.846 27.0264 105.269 28.9229L96.2379 39.7112C94.7929 41.46 93.9391 41.4764 92.0179 41.4025L87.1656 41.1726L87.1491 41.189ZM100.384 45.6965H100.072L90.6714 45.4338C90.1131 45.4338 89.2017 45.0397 83.2821 41.501L82.1819 40.8361C81.9689 40.7101 81.8039 40.5169 81.7126 40.2869C81.6213 40.057 81.6091 39.8032 81.6776 39.5654C81.7462 39.3277 81.8918 39.1195 82.0916 38.9735C82.2913 38.8275 82.534 38.752 82.7813 38.7588L92.0753 39.194C93.7173 39.2679 93.7173 39.2596 94.5384 38.299L103.57 27.5107C104.834 26.0246 104.933 25.7455 104.933 23.8572V1.08189C104.937 0.92344 104.976 0.767954 105.047 0.626172C105.118 0.48439 105.219 0.359713 105.343 0.260859C105.469 0.157627 105.615 0.0823285 105.772 0.0398673C105.929 -0.00259381 106.094 -0.0112894 106.254 0.0145109C110.918 0.835538 113.217 2.26412 116.427 4.21817L119.013 5.7617C119.27 5.89926 119.461 6.13291 119.546 6.41145C119.631 6.68999 119.601 6.99076 119.465 7.24781C119.328 7.49723 119.103 7.68634 118.834 7.77759C118.565 7.86883 118.271 7.85554 118.011 7.7404C116.981 7.21806 115.871 6.86857 114.727 6.7059V29.005C114.794 29.5943 114.737 30.1912 114.559 30.7569C114.381 31.3226 114.086 31.8446 113.693 32.2891C112.051 34.5223 107.601 39.6783 104.957 42.8229L104.547 43.2663L103.939 44.0052C102.929 45.2614 102.371 45.7785 100.442 45.7785L100.384 45.6965ZM82.6746 16.1395L88.2083 19.3497C86.2497 21.8474 84.4927 24.4967 82.9537 27.2727C78.6351 35.0314 72.6088 51.6243 78.4709 62.4044L77.6499 61.9035C74.3658 60.0316 72.3871 56.9774 71.4019 52.6178C68.7253 40.6472 75.0636 25.844 82.6991 16.1395H82.6746ZM89.136 135.131L94.4234 138.062L108.143 130.131L108.685 128.85L108.586 113.842C107.699 113.218 105.08 111.732 103.414 110.796V124.843C103.373 125.467 103.186 126.072 102.868 126.61C102.55 127.147 102.109 127.603 101.583 127.939L89.136 135.131V135.131ZM81.5333 66.1647V140.804C81.599 142.134 81.8535 142.783 82.5514 143.218L86.8371 145.681C86.8371 145.509 86.8371 145.336 86.8371 145.18V135.706C86.8367 135.486 86.9025 135.271 87.0259 135.09C86.9002 134.912 86.8341 134.7 86.8371 134.482V71.5506C86.8371 71.3043 86.8371 71.0334 86.8371 70.7296C86.8923 70.1815 86.8675 69.6284 86.7633 69.0875C86.0079 68.636 85.1212 68.168 84.2099 67.7165C83.2813 67.2524 82.3868 66.7228 81.5333 66.1318V66.1647ZM89.448 149.614C89.2462 149.613 89.0481 149.559 88.8733 149.458L81.3773 145.123C79.6778 144.031 79.3576 142.364 79.3002 140.862V65.4258L76.484 63.7837C72.6991 61.5752 70.3098 58.0366 69.1768 53.0447C66.0898 39.1447 73.906 23.2907 81.5333 13.9392C81.7005 13.7343 81.9344 13.5948 82.1942 13.5452C82.454 13.4957 82.7229 13.5392 82.9537 13.6682L90.4579 18.0115C90.5958 18.0957 90.7144 18.208 90.8064 18.3409C90.8983 18.4738 90.9614 18.6244 90.9916 18.7832C91.0176 18.9409 91.0113 19.1023 90.9732 19.2575C90.9351 19.4128 90.866 19.5587 90.7699 19.6864C88.5578 22.3729 86.5956 25.2557 84.9077 28.299C80.4906 36.2219 74.1523 53.7508 81.8124 63.3732C82.7936 64.3787 83.9624 65.182 85.2526 65.7378C86.2592 66.2306 87.2376 66.7788 88.1836 67.3798C89.2017 68.0531 89.136 69.5145 89.0621 70.8118C89.0621 71.0581 89.0621 71.3044 89.0621 71.5178V132.52L100.442 125.952C100.664 125.804 100.848 125.605 100.979 125.373C101.11 125.14 101.185 124.88 101.197 124.614V109.761L100.91 109.137C100.815 108.922 100.789 108.682 100.836 108.451C100.884 108.22 101.001 108.01 101.172 107.848C101.352 107.692 101.575 107.595 101.811 107.57C102.048 107.545 102.286 107.593 102.494 107.709L103.496 108.267C110.409 112.126 110.532 112.372 110.745 112.857C110.81 113.004 110.844 113.163 110.844 113.324L110.942 129.072C110.944 129.225 110.91 129.377 110.844 129.515L110.023 131.371C109.926 131.59 109.762 131.774 109.555 131.896L94.99 140.312C94.822 140.411 94.6306 140.463 94.4357 140.463C94.2408 140.463 94.0494 140.411 93.8815 140.312L89.0047 137.676V145.205C89.0621 146.576 89.292 147.118 90.0392 147.668C90.2347 147.803 90.3822 147.996 90.4603 148.22C90.5384 148.445 90.543 148.688 90.4734 148.915C90.4039 149.142 90.2637 149.341 90.0734 149.483C89.8831 149.625 89.6526 149.702 89.4152 149.704L89.448 149.614Z" fill="#3464C3"/>
<path fill-rule="evenodd" clip-rule="evenodd" d="M24.5286 88.2832L20.875 86.1567V37.1414L24.5533 39.2597L24.5286 88.2832Z" fill="#A1BFEB"/>
<path fill-rule="evenodd" clip-rule="evenodd" d="M21.9834 85.5163L23.4284 86.3373V39.9001L22.0081 39.0791V85.5163H21.9834ZM24.5286 89.3997C24.3403 89.4016 24.1553 89.3504 23.9949 89.252L20.3085 87.1256C20.1364 87.0291 19.9931 86.8885 19.8935 86.7182C19.794 86.5479 19.7417 86.354 19.742 86.1567V37.1415C19.7342 36.9428 19.7835 36.7459 19.8838 36.5743C19.9842 36.4026 20.1315 36.2633 20.3085 36.1726C20.477 36.0799 20.6663 36.0313 20.8586 36.0313C21.0509 36.0313 21.2402 36.0799 21.4087 36.1726L25.0622 38.2908C25.2337 38.3888 25.3767 38.5296 25.4775 38.6994C25.5782 38.8692 25.6331 39.0623 25.6369 39.2597V88.2832C25.6323 88.4804 25.5771 88.6731 25.4765 88.8428C25.3758 89.0125 25.2331 89.1534 25.0622 89.252C24.8995 89.345 24.716 89.3957 24.5286 89.3997V89.3997Z" fill="#3464C3"/>
<path fill-rule="evenodd" clip-rule="evenodd" d="M20.555 37.3549L16.9014 35.2284L19.2003 8.07707L22.862 10.1953L20.555 37.3549Z" fill="#A1BFEB"/>
<path fill-rule="evenodd" clip-rule="evenodd" d="M18.0676 34.6208L19.6194 35.5076L21.6966 10.811L20.1448 9.92434L18.0676 34.6208ZM20.5307 38.4715C20.343 38.4692 20.1591 38.4183 19.997 38.3236L16.3106 36.1972C16.1257 36.0922 15.9744 35.9371 15.8741 35.7496C15.7739 35.5622 15.7288 35.3501 15.7441 35.138L18.0676 7.97851C18.084 7.79463 18.1462 7.61775 18.2483 7.46397C18.3505 7.31018 18.4894 7.18431 18.6525 7.09785C18.8156 7.01139 18.9978 6.96706 19.1824 6.96886C19.367 6.97067 19.5483 7.01855 19.7097 7.10817L23.3633 9.22649C23.5481 9.33145 23.6994 9.48663 23.7997 9.67408C23.8999 9.86153 23.9451 10.0735 23.9297 10.2855L21.6308 37.4452C21.6071 37.6306 21.5406 37.8078 21.4366 37.9631C21.3326 38.1184 21.1939 38.2475 21.0315 38.3401C20.8825 38.4136 20.721 38.4582 20.5553 38.4715H20.5307Z" fill="#3464C3"/>
<path fill-rule="evenodd" clip-rule="evenodd" d="M22.8624 10.1953L19.2007 8.07707L29.9479 1.86194L33.6425 3.98837L22.8624 10.1953Z" fill="#A1BFEB"/>
<path fill-rule="evenodd" clip-rule="evenodd" d="M21.4413 8.07708L22.8617 8.8981L31.4004 3.97194L29.9553 3.15092L21.4413 8.07708V8.07708ZM22.8617 11.3119C22.6624 11.3106 22.467 11.2568 22.2952 11.1559L18.6335 9.03762C18.4631 8.9412 18.3211 8.80171 18.2216 8.63312C18.1222 8.46452 18.0688 8.2728 18.0669 8.07708C18.0691 7.8803 18.1224 7.68741 18.2217 7.51753C18.3211 7.34765 18.463 7.2066 18.6335 7.10822L29.4135 0.901309C29.5809 0.800696 29.7724 0.747467 29.9677 0.747467C30.1629 0.747467 30.3546 0.800696 30.5219 0.901309L34.1837 3.0113C34.3541 3.11019 34.4955 3.25207 34.5939 3.42282C34.6922 3.59357 34.744 3.78723 34.744 3.98427C34.744 4.18131 34.6922 4.37487 34.5939 4.54562C34.4955 4.71637 34.3541 4.85825 34.1837 4.95713L23.4282 11.1724C23.252 11.26 23.0585 11.3076 22.8617 11.3119V11.3119Z" fill="#3464C3"/>
<path fill-rule="evenodd" clip-rule="evenodd" d="M24.5289 88.2832L24.5536 39.2597L20.5552 37.3549L22.8622 10.1953L33.6423 3.98837L35.9083 28.496L31.9346 35.015L31.9017 53.7672V84.0303L24.5289 88.2832Z" fill="white"/>
<path fill-rule="evenodd" clip-rule="evenodd" d="M21.7532 36.6898L25.0373 38.2663C25.2264 38.3596 25.3863 38.5032 25.4992 38.6813C25.6122 38.8594 25.6739 39.0652 25.6777 39.2761V86.362L30.8092 83.3981V35.0478C30.8131 34.84 30.8696 34.6367 30.9733 34.4567L34.7829 28.2579L32.7058 5.86024L23.9372 10.9096L21.7614 36.7063L21.7532 36.6898ZM24.5283 89.4162C24.34 89.418 24.1551 89.3669 23.9946 89.2684C23.8236 89.1707 23.6813 89.0297 23.5819 88.8597C23.4825 88.6897 23.4295 88.4965 23.4281 88.2996V39.974L20.0784 38.3319C19.8761 38.2322 19.7084 38.074 19.5971 37.8778C19.4858 37.6816 19.4361 37.4566 19.4544 37.2317L21.7532 10.0803C21.7674 9.89841 21.8266 9.72285 21.9255 9.5695C22.0244 9.41614 22.1599 9.28984 22.3198 9.20188L33.0752 2.98665C33.2385 2.89607 33.4222 2.84854 33.6089 2.84854C33.7956 2.84854 33.9793 2.89607 34.1426 2.98665C34.3122 3.06791 34.4571 3.19291 34.5624 3.34875C34.6677 3.50459 34.7297 3.68571 34.7419 3.87342L37.0162 28.3893C37.039 28.6273 36.9843 28.8663 36.8601 29.0707L33.0423 35.3187V84.0221C33.0429 84.2183 32.9907 84.4111 32.891 84.5801C32.7913 84.7491 32.6479 84.8882 32.4759 84.9826L25.0866 89.2438C24.9173 89.3437 24.7248 89.3974 24.5283 89.3997V89.4162Z" fill="#3464C3"/>
<path fill-rule="evenodd" clip-rule="evenodd" d="M108.52 131.346L94.9317 139.187C94.2092 139.606 93.6345 139.261 93.6345 138.44V123.201C93.6589 122.752 93.7891 122.315 94.0146 121.925C94.24 121.536 94.5542 121.205 94.9317 120.96L108.52 113.127C109.209 112.709 109.809 113.045 109.809 113.875V129.096C109.78 129.545 109.649 129.981 109.426 130.371C109.202 130.761 108.892 131.095 108.52 131.346V131.346ZM115.088 53.6933C115.105 53.1352 115.295 52.5961 115.63 52.1497C115.966 51.6079 116.278 51.4929 116.943 50.5077C119.685 46.419 121.911 42.0066 123.569 37.3713C125.29 32.7453 126.198 27.8566 126.254 22.9212C126.254 17.2479 124.825 12.7897 122.338 9.78477C121.258 8.48426 119.917 7.42444 118.403 6.67355C116.888 5.92266 115.233 5.49743 113.544 5.42517V29.0297C113.567 29.425 113.545 29.8215 113.479 30.2119C113.381 30.6825 113.16 31.1187 112.838 31.4763L102.822 43.4551C102.255 44.1201 101.779 44.7524 101.114 44.7195L90.7198 44.3337C90.2436 44.3829 89.8988 44.0299 89.8988 43.4059V19.0706C86.3161 23.4741 83.3675 28.3572 81.1385 33.5781C76.3766 44.8098 75.9086 55.9266 79.8823 62.6015C80.6817 64.0091 81.7545 65.2426 83.0375 66.2296C84.3206 67.2166 85.7881 67.9371 87.3536 68.3487C87.4517 68.3667 87.5445 68.4061 87.6255 68.4643C87.7064 68.5226 87.7735 68.598 87.8217 68.6852C87.9498 69.0597 87.9946 69.4576 87.953 69.8511V145.213C87.953 146.855 88.5196 148.021 89.4637 148.563C90.4079 149.105 91.7051 149.039 93.1501 148.21L110.301 138.308C111.035 137.873 111.703 137.336 112.288 136.716C112.954 136.022 113.525 135.243 113.988 134.4C114.474 133.58 114.857 132.703 115.129 131.789C115.371 130.968 115.496 130.117 115.498 129.261L115.129 57.6178C115.129 56.3124 115.129 55.0234 115.129 53.7179L115.088 53.6933Z" fill="white"/>
<path fill-rule="evenodd" clip-rule="evenodd" d="M108.709 114.318L95.5236 121.929C95.3139 122.074 95.1379 122.263 95.0076 122.483C94.8772 122.703 94.7957 122.948 94.7683 123.201V137.98L107.97 130.361C108.18 130.213 108.355 130.02 108.482 129.798C108.61 129.575 108.687 129.327 108.709 129.072V114.293V114.318ZM94.3578 140.484C94.0473 140.478 93.7429 140.396 93.4711 140.246C93.1667 140.055 92.9193 139.786 92.7547 139.467C92.59 139.148 92.5142 138.79 92.5352 138.432V123.201C92.5656 122.557 92.7499 121.929 93.0728 121.371C93.3956 120.812 93.8476 120.339 94.3907 119.991L107.97 112.159C108.265 111.95 108.614 111.83 108.975 111.813C109.336 111.796 109.694 111.883 110.007 112.064C110.319 112.245 110.574 112.511 110.74 112.832C110.906 113.153 110.976 113.515 110.943 113.875V129.096C110.92 129.745 110.738 130.377 110.413 130.939C110.088 131.5 109.63 131.973 109.079 132.315L95.5236 140.156C95.1707 140.366 94.7686 140.479 94.3578 140.484V140.484ZM87.0507 69.4077H87.1492H87.0507ZM88.783 22.3136V43.3894C88.7728 43.683 88.8237 43.9754 88.9326 44.2481C89.0414 44.5209 89.2058 44.7681 89.4152 44.974C89.5798 45.1278 89.7736 45.2471 89.9852 45.3246C90.1967 45.4022 90.4217 45.4366 90.6468 45.4256L101.082 45.8279C102.223 45.8935 102.97 45.0068 103.66 44.1858L113.718 32.1988C114.124 31.6943 114.406 31.1006 114.539 30.4665C114.624 29.9954 114.657 29.5163 114.637 29.0379V6.68125C117.294 7.06447 119.711 8.42961 121.411 10.5073C123.874 13.4055 125.097 17.6912 125.097 22.9212C125.012 27.7269 124.13 32.4852 122.486 37.0018C120.857 41.5508 118.676 45.8826 115.992 49.9001C115.759 50.2318 115.506 50.5498 115.236 50.8525C115.014 51.0584 114.813 51.2867 114.637 51.534C114.176 52.1807 113.932 52.9567 113.939 53.7508L114.325 129.285C114.326 130.033 114.218 130.777 114.005 131.494C113.763 132.327 113.413 133.125 112.962 133.867C112.542 134.623 112.035 135.329 111.452 135.968C110.929 136.509 110.335 136.976 109.686 137.356L92.5352 147.258C92.2095 147.591 91.782 147.807 91.3201 147.872C90.8581 147.936 90.388 147.845 89.9836 147.613C89.5792 147.38 89.2635 147.02 89.0863 146.589C88.9091 146.157 88.8804 145.679 89.0047 145.23V69.6951C89.0534 69.1665 88.9539 68.6349 88.7174 68.1598C88.5985 67.9512 88.4368 67.7703 88.2429 67.6288C88.049 67.4873 87.8274 67.3884 87.5926 67.3387C86.1694 66.9635 84.8356 66.3075 83.6695 65.4093C82.5035 64.5112 81.5288 63.389 80.8027 62.1088C76.9931 55.7212 77.5186 44.9822 82.1327 34.0953C83.8865 29.9617 86.1067 26.0419 88.7501 22.4122L88.783 22.3136ZM90.8027 150C90.1276 150.007 89.4623 149.837 88.8733 149.507C87.5515 148.686 86.7962 147.2 86.7962 145.189V69.3256C83.4634 68.3759 80.6344 66.1599 78.9143 63.1515C74.7517 56.1646 75.2033 44.662 80.0884 33.1184C82.369 27.7996 85.3811 22.8255 89.0376 18.3399C89.1808 18.1629 89.3753 18.0347 89.5944 17.973C89.8135 17.9112 90.0464 17.9189 90.2609 17.995C90.4839 18.0653 90.6785 18.2054 90.8159 18.3946C90.9534 18.5838 91.0264 18.8121 91.0244 19.046V43.258L101.148 43.6275C101.407 43.4167 101.639 43.1739 101.837 42.905L111.985 30.7785C112.184 30.5404 112.325 30.2593 112.396 29.9574C112.418 29.7171 112.418 29.4753 112.396 29.2349V5.42515C112.393 5.27468 112.422 5.12527 112.48 4.98637C112.538 4.84748 112.624 4.72203 112.732 4.61795C112.841 4.51388 112.97 4.43337 113.111 4.38153C113.253 4.32969 113.403 4.30761 113.553 4.31668C115.397 4.38849 117.205 4.85004 118.858 5.6708C120.511 6.49156 121.971 7.65296 123.143 9.07868C125.877 12.3628 127.33 17.1658 127.33 22.913C127.267 27.9783 126.339 32.9957 124.588 37.749C122.903 42.4753 120.636 46.9735 117.839 51.1399C117.548 51.588 117.209 52.0036 116.829 52.3796C116.705 52.5063 116.593 52.6437 116.493 52.7902C116.305 53.05 116.194 53.3572 116.172 53.6768V53.6768L116.55 129.211C116.556 130.176 116.417 131.136 116.14 132.06C115.831 133.055 115.421 134.015 114.916 134.926C114.385 135.829 113.76 136.674 113.053 137.446C112.394 138.15 111.636 138.753 110.803 139.236L93.6763 149.171C92.8076 149.693 91.8162 149.976 90.8027 149.992V150Z" fill="#3464C3"/>
<path fill-rule="evenodd" clip-rule="evenodd" d="M43.4123 136.527C43.2664 136.527 43.122 136.498 42.9874 136.442C42.8529 136.385 42.7309 136.303 42.6285 136.199C42.5262 136.095 42.4454 135.972 42.3911 135.836C42.3368 135.701 42.31 135.556 42.3121 135.41V104.014C42.3111 103.869 42.3387 103.725 42.3935 103.591C42.4483 103.456 42.5292 103.334 42.6314 103.231C42.7337 103.128 42.8553 103.046 42.9893 102.99C43.1234 102.934 43.2671 102.906 43.4123 102.906C43.7041 102.91 43.9828 103.028 44.1884 103.236C44.394 103.443 44.5104 103.722 44.5125 104.014V135.418C44.5104 135.71 44.394 135.99 44.1884 136.197C43.9828 136.404 43.7041 136.523 43.4123 136.527V136.527Z" fill="#3464C3"/>
<path fill-rule="evenodd" clip-rule="evenodd" d="M30.4323 145.427C30.2839 145.429 30.1364 145.402 29.9986 145.347C29.8608 145.292 29.7353 145.21 29.6292 145.106C29.5231 145.002 29.4385 144.878 29.3805 144.742C29.3225 144.605 29.2921 144.458 29.291 144.31V108.029C29.3151 107.748 29.4435 107.487 29.651 107.296C29.8585 107.106 30.13 107 30.4117 107C30.6934 107 30.9649 107.106 31.1724 107.296C31.3799 107.487 31.5084 107.748 31.5324 108.029V144.31C31.5324 144.603 31.4171 144.885 31.2112 145.094C31.0053 145.303 30.7255 145.422 30.4323 145.427Z" fill="#3464C3"/>
<path fill-rule="evenodd" clip-rule="evenodd" d="M37.4519 142.069C37.3035 142.07 37.1563 142.042 37.0189 141.986C36.8815 141.93 36.7565 141.847 36.6512 141.742C36.5459 141.638 36.4623 141.513 36.4052 141.376C36.3482 141.239 36.3188 141.092 36.3188 140.944V106.699C36.3188 106.551 36.3482 106.404 36.4052 106.267C36.4623 106.13 36.5459 106.005 36.6512 105.901C36.7565 105.796 36.8815 105.713 37.0189 105.657C37.1563 105.601 37.3035 105.573 37.4519 105.574C37.7466 105.578 38.0276 105.699 38.2337 105.91C38.4398 106.121 38.5543 106.404 38.5521 106.699V140.96C38.55 141.252 38.4336 141.532 38.228 141.739C38.0224 141.946 37.7437 142.064 37.4519 142.069V142.069Z" fill="#3464C3"/>
<path fill-rule="evenodd" clip-rule="evenodd" d="M9.24118 136.527C8.94713 136.522 8.66651 136.403 8.45934 136.194C8.25216 135.986 8.13493 135.704 8.13281 135.41V104.014C8.15686 103.733 8.2853 103.472 8.49281 103.281C8.70033 103.091 8.97181 102.985 9.25351 102.985C9.5352 102.985 9.80668 103.091 10.0142 103.281C10.2217 103.472 10.3502 103.733 10.3742 104.014V135.418C10.3699 135.715 10.2484 135.998 10.0361 136.206C9.8239 136.414 9.53809 136.529 9.24118 136.527V136.527Z" fill="#3464C3"/>
<path fill-rule="evenodd" clip-rule="evenodd" d="M22.2301 145.427C21.9368 145.422 21.657 145.303 21.4511 145.094C21.2452 144.885 21.1299 144.603 21.1299 144.31V108.029C21.1299 107.736 21.2452 107.454 21.4511 107.245C21.657 107.036 21.9368 106.917 22.2301 106.912C22.5292 106.91 22.817 107.026 23.0308 107.235C23.2446 107.445 23.367 107.73 23.3714 108.029V144.31C23.3703 144.458 23.3398 144.605 23.2818 144.742C23.2237 144.878 23.1393 145.002 23.0332 145.106C22.9271 145.21 22.8015 145.292 22.6637 145.347C22.5259 145.402 22.3785 145.429 22.2301 145.427V145.427Z" fill="#3464C3"/>
<path fill-rule="evenodd" clip-rule="evenodd" d="M15.1936 142.069C14.8989 142.064 14.6179 141.944 14.4118 141.733C14.2057 141.522 14.0913 141.238 14.0935 140.944V106.699C14.0802 106.543 14.0992 106.387 14.1495 106.24C14.1998 106.092 14.2802 105.957 14.3855 105.842C14.4909 105.727 14.619 105.636 14.7617 105.573C14.9043 105.51 15.0584 105.478 15.2142 105.478C15.37 105.478 15.524 105.51 15.6667 105.573C15.8093 105.636 15.9374 105.727 16.0428 105.842C16.1482 105.957 16.2285 106.092 16.2788 106.24C16.3291 106.387 16.3482 106.543 16.3349 106.699V140.96C16.3327 141.108 16.3015 141.254 16.2429 141.389C16.1844 141.525 16.0998 141.648 15.9938 141.751C15.8878 141.854 15.7627 141.935 15.6254 141.989C15.4881 142.044 15.3413 142.071 15.1936 142.069V142.069Z" fill="#3464C3"/>
<path fill-rule="evenodd" clip-rule="evenodd" d="M109.054 131.379C108.865 131.379 108.679 131.325 108.52 131.223L101.582 127.233C101.455 127.16 101.343 127.062 101.254 126.946C101.164 126.829 101.098 126.696 101.06 126.554C101.022 126.413 101.012 126.265 101.032 126.119C101.051 125.973 101.098 125.833 101.172 125.706C101.326 125.448 101.574 125.261 101.864 125.185C102.154 125.108 102.463 125.148 102.724 125.295L109.62 129.294C109.747 129.366 109.859 129.463 109.948 129.578C110.038 129.694 110.104 129.826 110.142 129.967C110.18 130.109 110.19 130.256 110.171 130.401C110.152 130.546 110.104 130.686 110.031 130.812C109.93 130.982 109.787 131.124 109.616 131.223C109.445 131.322 109.251 131.376 109.054 131.379V131.379Z" fill="#3464C3"/>
<path fill-rule="evenodd" clip-rule="evenodd" d="M113.25 31.9772C113.051 31.9788 112.855 31.9278 112.683 31.8294L105.047 27.4287C104.921 27.3548 104.81 27.2567 104.721 27.14C104.632 27.0233 104.567 26.8903 104.53 26.7484C104.493 26.6066 104.484 26.4589 104.503 26.3136C104.523 26.1683 104.571 26.0282 104.645 25.9016C104.717 25.7747 104.813 25.6634 104.928 25.574C105.043 25.4846 105.174 25.4189 105.315 25.3807C105.455 25.3425 105.602 25.3326 105.746 25.3515C105.891 25.3705 106.03 25.4179 106.156 25.491L113.783 29.8917C113.911 29.9649 114.022 30.0625 114.112 30.1789C114.201 30.2953 114.267 30.4283 114.305 30.5702C114.343 30.712 114.353 30.86 114.334 31.0056C114.315 31.1513 114.267 31.2917 114.194 31.4188C114.104 31.5904 113.968 31.7336 113.801 31.8323C113.634 31.9309 113.443 31.981 113.25 31.9772Z" fill="#3464C3"/>
<path fill-rule="evenodd" clip-rule="evenodd" d="M101.648 45.5488C101.457 45.5531 101.269 45.5017 101.106 45.401L93.7991 41.1726C93.6698 41.1003 93.5563 41.0028 93.4653 40.8858C93.3744 40.7688 93.3079 40.6349 93.2696 40.4917C93.2313 40.3486 93.2221 40.1992 93.2425 40.0525C93.263 39.9057 93.3126 39.7646 93.3885 39.6373C93.4607 39.5111 93.5574 39.4005 93.6729 39.3121C93.7884 39.2237 93.9203 39.1593 94.061 39.1226C94.2018 39.0859 94.3484 39.0776 94.4923 39.0983C94.6362 39.1191 94.7747 39.1683 94.8993 39.2433L102.223 43.4633C102.35 43.5372 102.46 43.6353 102.549 43.752C102.638 43.8687 102.703 44.0017 102.74 44.1436C102.778 44.2854 102.787 44.4331 102.767 44.5784C102.747 44.7237 102.699 44.8638 102.625 44.9904C102.53 45.1646 102.388 45.309 102.215 45.4076C102.043 45.5061 101.847 45.555 101.648 45.5488V45.5488Z" fill="#3464C3"/>
<path fill-rule="evenodd" clip-rule="evenodd" d="M113.536 6.53355C113.345 6.53107 113.158 6.47714 112.994 6.3775L105.81 2.22316C105.555 2.07727 105.367 1.83574 105.289 1.55167C105.212 1.26759 105.25 0.964245 105.396 0.708389C105.542 0.452533 105.783 0.265086 106.067 0.18733C106.351 0.109574 106.655 0.147874 106.911 0.293766L114.095 4.3989C114.223 4.47127 114.335 4.56842 114.425 4.68474C114.516 4.80105 114.582 4.93415 114.62 5.07631C114.658 5.21847 114.668 5.3668 114.648 5.51268C114.628 5.65856 114.58 5.79911 114.505 5.926C114.411 6.10301 114.272 6.25218 114.102 6.35876C113.932 6.46535 113.737 6.52563 113.536 6.53355Z" fill="#3464C3"/>
</svg>
