<svg width="140" height="150" viewBox="0 0 140 150" fill="none" xmlns="http://www.w3.org/2000/svg">
<path fill-rule="evenodd" clip-rule="evenodd" d="M111.178 23.2239L110.601 21.8109C109.443 18.8728 107.583 16.2633 105.183 14.211L104.213 13.4585L103.151 12.8063L102.081 12.2127L122.022 23.7172C124.68 25.0722 126.946 27.0875 128.602 29.5698C129.586 31.2222 130.425 32.9565 131.11 34.7535C131.165 34.9195 131.254 35.0725 131.371 35.2033C131.487 35.334 131.629 35.4398 131.787 35.5143L111.846 24.0098C111.688 23.9308 111.547 23.8205 111.432 23.6854C111.317 23.5503 111.23 23.3933 111.178 23.2239V23.2239Z" fill="#A1BFEB"/>
<path fill-rule="evenodd" clip-rule="evenodd" d="M112.247 22.7808C112.24 22.8173 112.245 22.8553 112.262 22.8886C112.279 22.9219 112.306 22.9487 112.339 22.9647L128.894 32.5378C128.54 31.7124 128.118 30.9182 127.631 30.1634C126.081 27.8353 123.944 25.9578 121.436 24.7205L110.015 18.107C110.6 19.0936 111.085 20.1471 111.687 21.351L112.272 22.7808H112.247ZM131.795 36.6514C131.591 36.6481 131.39 36.5964 131.21 36.5009C131.21 36.5009 131.118 36.4256 131.018 36.4005L111.278 24.988C110.739 24.7373 110.321 24.2835 110.116 23.7256V23.6335L109.538 22.2206C108.47 19.4413 106.695 16.9888 104.388 15.1055L103.226 14.2694L101.487 13.2411C101.245 13.0771 101.071 12.8295 101 12.5455C100.929 12.2616 100.966 11.9614 101.103 11.7027C101.166 11.5762 101.254 11.4639 101.362 11.3725C101.47 11.2812 101.596 11.2128 101.731 11.1714C101.866 11.1299 102.008 11.1164 102.149 11.1316C102.289 11.1467 102.426 11.1903 102.549 11.2596L104.388 12.2879L122.581 22.7808C125.37 24.2042 127.739 26.3311 129.454 28.9511C130.527 30.6697 131.434 32.4866 132.163 34.3773V34.4358L132.355 34.5612C132.493 34.6257 132.614 34.7197 132.711 34.8367C132.808 34.9536 132.877 35.0906 132.915 35.2376C132.952 35.3847 132.957 35.5382 132.928 35.6872C132.899 35.8363 132.838 35.9771 132.748 36.0996C132.651 36.2664 132.512 36.405 132.345 36.5018C132.178 36.5985 131.988 36.6501 131.795 36.6514V36.6514Z" fill="#3464C3"/>
<path fill-rule="evenodd" clip-rule="evenodd" d="M119.437 46.5423L99.5051 35.021C99.3492 34.9581 99.2085 34.8631 99.0918 34.7421C98.9751 34.6211 98.8852 34.4768 98.8281 34.3187C97.9212 31.8282 96.1775 29.73 93.895 28.3825L93.2178 28.0481L113.15 39.5526C115.497 40.6783 117.354 42.6187 118.376 45.0123C118.601 45.7229 118.727 46.1827 119.437 46.5423Z" fill="white"/>
<path fill-rule="evenodd" clip-rule="evenodd" d="M99.3718 32.9308C99.5641 33.2318 99.6645 33.5412 99.8568 33.8589L100.049 34.0345L115.935 43.2314C115.058 42.101 113.93 41.1906 112.641 40.5726L99.3802 32.9392L99.3718 32.9308ZM119.438 47.6709C119.27 47.667 119.104 47.6271 118.953 47.554L118.669 47.37L98.8868 36.0076C98.3952 35.7445 97.9913 35.3435 97.7247 34.8538C97.005 32.7902 95.6534 31.0057 93.8619 29.7537L92.6999 29.0347C92.5654 28.9685 92.4457 28.8757 92.348 28.762C92.2502 28.6483 92.1765 28.516 92.1312 28.373C92.0859 28.2301 92.0698 28.0795 92.0842 27.9303C92.0986 27.7811 92.1431 27.6362 92.2149 27.5046C92.3631 27.2427 92.6066 27.048 92.8946 26.9608C93.1826 26.8736 93.4931 26.9007 93.7617 27.0365L94.439 27.3625L95.0158 27.7722L113.694 38.5743C116.224 39.8324 118.242 41.9268 119.404 44.5022L119.597 44.962C119.697 45.2797 119.697 45.3801 119.797 45.4387L119.99 45.5474C120.122 45.6145 120.24 45.7074 120.337 45.8206C120.433 45.9338 120.506 46.0649 120.551 46.2066C120.596 46.3482 120.612 46.4974 120.599 46.6454C120.586 46.7935 120.544 46.9375 120.475 47.069C120.362 47.2478 120.21 47.3987 120.03 47.5102C119.851 47.6217 119.648 47.691 119.438 47.7128V47.6709Z" fill="#3464C3"/>
<path fill-rule="evenodd" clip-rule="evenodd" d="M72.4668 28.9929C72.3822 28.2114 72.4982 27.4213 72.804 26.6971C73.1097 25.9729 73.595 25.3387 74.2141 24.8543C79.147 20.9247 85.8273 17.4633 92.215 17.6305C93.9301 17.6736 95.6258 18.0042 97.2315 18.6087L98.1931 19.0017L118.134 30.5146C117.5 30.2393 116.852 29.9965 116.194 29.7872C114.156 29.1882 112.019 28.9949 109.907 29.2186C104.681 29.7203 99.5474 32.3372 95.3921 35.3973L93.8453 36.5511C92.8754 37.4541 92.0059 39.1429 92.3905 40.5057L93.1682 43.3317C93.251 43.672 93.4563 43.9697 93.7451 44.1678L73.8211 32.6633C73.4365 32.379 73.4366 32.2954 73.2443 31.8272L72.4668 28.9929Z" fill="#A1BFEB"/>
<path fill-rule="evenodd" clip-rule="evenodd" d="M73.537 28.7337L74.3061 31.5346L91.4374 41.5676L91.2451 40.8318C91.1313 39.8894 91.2483 38.9335 91.5862 38.0465C91.9242 37.1594 92.4729 36.3679 93.1849 35.7401L94.7316 34.5361C98.31 31.9108 103.728 28.6834 109.823 28.1233C110.408 28.0647 110.985 28.0397 111.495 28.0397L96.7883 19.6788C95.3344 19.1244 93.7958 18.8246 92.24 18.7927C84.7153 18.6338 77.6253 23.6085 74.9164 25.7656C74.4691 26.121 74.1128 26.5778 73.8772 27.0984C73.6417 27.6189 73.5335 28.1881 73.5619 28.7587L73.537 28.7337ZM93.6613 45.2881C93.494 45.283 93.3305 45.237 93.1849 45.1543L73.2442 33.6499C72.7214 33.345 72.3399 32.8463 72.1824 32.2619L71.3463 29.2938V29.2353C71.2359 28.2489 71.3721 27.2505 71.7427 26.3296C72.1134 25.4088 72.7069 24.5944 73.47 23.9596C76.3712 21.6436 84.1133 16.2677 92.2484 16.5018C94.1011 16.5349 95.9341 16.8884 97.6662 17.5469L98.6362 17.9482L118.761 29.5279C119.002 29.6802 119.177 29.9185 119.25 30.1947C119.323 30.4709 119.288 30.7644 119.154 31.0162C119.03 31.2787 118.808 31.482 118.536 31.5821C118.264 31.6823 117.963 31.6712 117.699 31.5513C117.022 31.2754 116.537 31.0663 115.96 30.8824C114.041 30.3343 112.035 30.1555 110.049 30.3556C104.539 30.8824 99.4054 33.8923 96.1196 36.3169L94.6648 37.454C94.2754 37.8018 93.9688 38.2324 93.7677 38.7142C93.5666 39.196 93.476 39.7168 93.5025 40.2382L94.28 43.0474C94.5495 43.221 94.7407 43.4929 94.8126 43.8052C94.8844 44.1176 94.8314 44.4458 94.6648 44.7196C94.5634 44.8952 94.4168 45.0405 94.2404 45.1405C94.064 45.2405 93.8641 45.2914 93.6613 45.2881V45.2881Z" fill="#3464C3"/>
<path fill-rule="evenodd" clip-rule="evenodd" d="M72.7595 10.967C81.9564 3.90207 94.0546 -1.57428 105.668 2.60614L125.6 14.1107C122.116 12.7888 118.366 12.3215 114.664 12.7478C113.527 12.8748 112.397 13.0589 111.278 13.2996C103.435 14.9717 96.8554 19.1522 90.7604 24.0099C90.2553 24.417 89.8401 24.9244 89.5407 25.4999C89.2414 26.0755 89.0648 26.7069 89.0215 27.3542V28.0899L89.7906 30.9075C89.9829 31.3841 89.9829 31.4677 90.4679 31.7436L70.5356 20.2391C70.2185 20.0488 69.9786 19.7527 69.8583 19.403L69.0808 16.3513C68.6962 13.818 71.0204 12.2796 72.7595 10.967Z" fill="#A1BFEB"/>
<path fill-rule="evenodd" clip-rule="evenodd" d="M71.0199 19.102V19.2357L88.1513 29.1099L87.8586 27.4378C87.9032 26.6042 88.1142 25.7879 88.4789 25.037C88.8436 24.2861 89.3547 23.6156 89.9822 23.0651C95.2161 18.9599 102.281 14.0269 110.985 12.129C112.167 11.8761 113.361 11.6836 114.563 11.5522C116.012 11.4367 117.466 11.406 118.919 11.4602L105.182 3.51744C93.477 -0.662975 81.3705 5.73301 73.411 11.8281L72.9262 12.196C71.1872 13.5504 69.9245 14.6206 70.2171 16.1255L70.9948 19.0686L71.0199 19.102ZM90.3752 32.8639C90.2045 32.8727 90.0352 32.8289 89.8902 32.7385L69.9497 21.2256C69.3953 20.9194 68.9815 20.4098 68.7958 19.8043L67.9597 16.6355C67.5751 13.5671 69.8995 11.7529 71.5466 10.4319L72.0316 10.0639C80.5429 3.63446 93.3182 -3.07092 106.094 1.51082L126.227 13.0989C126.358 13.159 126.476 13.2458 126.572 13.3537C126.668 13.4616 126.741 13.5884 126.786 13.7259C126.831 13.8634 126.846 14.0088 126.832 14.1527C126.818 14.2966 126.774 14.436 126.703 14.5621C126.58 14.8247 126.364 15.032 126.097 15.1434C125.829 15.2548 125.529 15.2621 125.257 15.164C121.678 13.843 119.162 13.5421 114.806 13.8598C113.969 13.9434 112.481 14.1859 111.511 14.3865C103.192 16.2008 96.4117 20.9497 91.4454 24.8793C90.7344 25.5468 90.259 26.4269 90.0908 27.3876L90.1913 27.9478L90.9604 30.5982C91.2078 30.7895 91.382 31.0601 91.4536 31.3646C91.5251 31.669 91.4897 31.9889 91.3533 32.2704C91.2476 32.4385 91.1041 32.5796 90.9343 32.6826C90.7645 32.7856 90.5731 32.8477 90.3752 32.8639V32.8639Z" fill="#3464C3"/>
<path fill-rule="evenodd" clip-rule="evenodd" d="M118.727 45.8232C115.249 36.9858 105.475 36.1163 95.6012 43.7414C94.531 44.5775 93.4693 44.427 93.185 43.3317L92.4073 40.5058C92.2251 39.773 92.3298 38.9984 92.7 38.3403C92.967 37.5468 93.472 36.8549 94.1464 36.3588C107.699 25.7406 121.052 26.9445 125.7 39.1932C125.864 39.8951 125.797 40.6311 125.508 41.2916C125.23 42.0816 124.765 42.793 124.153 43.3652L121.344 45.8735C120.274 46.8768 119.12 46.8182 118.727 45.8232Z" fill="white"/>
<path fill-rule="evenodd" clip-rule="evenodd" d="M108.377 37.4123C109.55 37.4177 110.719 37.5693 111.855 37.8637C113.681 38.3972 115.354 39.358 116.735 40.6665C118.116 41.975 119.166 43.5936 119.797 45.3884V45.4554C120.081 45.3569 120.343 45.2035 120.567 45.0039L123.376 42.4956C123.874 42.0749 124.243 41.5209 124.438 40.8987C124.63 40.3468 124.73 39.8787 124.538 39.5861C122.791 34.9625 119.697 31.9191 115.634 30.7653C109.731 29.0932 102.081 31.4844 94.8238 37.2366C94.3176 37.6186 93.9457 38.1514 93.7619 38.7583C93.5013 39.1895 93.3978 39.6976 93.4692 40.1964L94.2469 43.0307C94.3389 43.131 94.531 43.1143 94.924 42.8217C99.5642 39.26 104.213 37.3955 108.377 37.3955V37.4123ZM119.797 47.7295C119.601 47.7242 119.405 47.7018 119.212 47.6625C118.86 47.5662 118.535 47.3869 118.266 47.1397C117.997 46.8924 117.791 46.5844 117.665 46.2412V46.2412C116.311 42.9972 114.179 40.8652 111.178 40.0626C106.997 38.8921 101.604 40.5642 96.2785 44.6443C95.9217 44.9779 95.4853 45.2145 95.0111 45.3316C94.5369 45.4487 94.0407 45.4424 93.5696 45.3132C93.196 45.18 92.8602 44.9582 92.5909 44.6671C92.3215 44.3759 92.1266 44.0239 92.0228 43.641L91.2453 40.8151C91.0484 39.8321 91.1837 38.8116 91.6299 37.9139C91.9851 36.9368 92.626 36.089 93.4692 35.4809C101.312 29.2771 109.631 26.7856 116.211 28.6166C121.052 29.9544 124.73 33.491 126.762 38.8168C127.03 39.7691 126.962 40.7849 126.57 41.693C126.271 42.6752 125.689 43.5476 124.898 44.2013L122.088 46.7095C121.467 47.3042 120.656 47.6596 119.797 47.7128V47.7295Z" fill="#3464C3"/>
<path fill-rule="evenodd" clip-rule="evenodd" d="M131.143 34.7451C125.725 19.1856 109.079 17.689 92.4326 31.2503C91.2705 32.1784 90.1084 32.0195 89.8158 30.8991L89.0464 28.0815C88.9622 27.361 89.06 26.6308 89.3308 25.9578C89.6062 25.1664 90.113 24.4761 90.7856 23.9763C111.203 7.25465 131.628 9.10238 138.108 28.2487C138.215 28.5912 138.253 28.9516 138.22 29.3089C138.187 29.6662 138.084 30.0134 137.916 30.3305C137.666 31.1226 137.196 31.8274 136.561 32.3623L133.752 34.8705C132.665 35.8571 131.503 35.8069 131.143 34.7451Z" fill="white"/>
<path fill-rule="evenodd" clip-rule="evenodd" d="M114.178 20.8662C116.009 20.8577 117.831 21.0996 119.596 21.5852C125.507 23.2574 129.855 27.697 132.137 34.3606V34.4525C132.453 34.3884 132.743 34.2345 132.973 34.0094L135.783 31.5011C136.219 31.0561 136.55 30.519 136.753 29.9293C136.941 29.5133 137.008 29.0524 136.945 28.6C134.437 21.2006 129.688 16.3346 123.3 14.5036C114.203 11.895 102.59 15.6741 91.3615 24.8543C90.8893 25.2645 90.5247 25.784 90.2997 26.3676C90.0565 26.7934 89.9876 27.2968 90.1074 27.7722L90.8767 30.5982C90.8767 30.7236 91.1692 30.6902 91.5538 30.3557C99.204 24.152 107.138 20.8578 114.128 20.8578L114.178 20.8662ZM132.179 36.7099C131.984 36.7067 131.79 36.6787 131.602 36.6263C131.228 36.5432 130.885 36.3577 130.61 36.0904C130.335 35.8232 130.14 35.4848 130.047 35.1131C128.015 29.1685 124.153 25.2473 119.019 23.7757C111.662 21.6855 102.18 24.7205 93.1006 32.1366C92.7175 32.4928 92.2514 32.7475 91.7446 32.8774C91.2379 33.0074 90.7067 33.0086 90.1994 32.8807C89.8381 32.7432 89.5163 32.5186 89.2625 32.2269C89.0087 31.9352 88.8308 31.5854 88.7447 31.2085L87.9672 28.3909C87.787 27.435 87.8886 26.4474 88.2597 25.5482C88.6136 24.5975 89.2139 23.7579 89.9988 23.1152C101.813 13.4584 114.195 9.5372 124.069 12.3381C131.134 14.3865 136.452 19.771 139.169 27.8977C139.481 28.8344 139.409 29.8567 138.968 30.7403C138.668 31.7216 138.086 32.5935 137.296 33.2485L134.487 35.7568C133.853 36.335 133.036 36.6723 132.179 36.7099V36.7099Z" fill="#3464C3"/>
<path fill-rule="evenodd" clip-rule="evenodd" d="M41.0212 146.22C35.6953 149.297 30.8543 149.565 27.3762 147.566H27.276L7.40229 136.053C6.28422 135.389 5.30027 134.521 4.50111 133.495C1.39924 129.315 1.30724 123.061 2.17677 118.161C3.91582 108.739 9.81862 98.6554 17.2765 92.6439L18.1126 91.975C18.3049 90.8965 18.4051 89.8933 18.5974 88.8314C21.2059 73.5228 31.8578 56.3579 45.5027 48.4737C50.8202 45.3802 57.6927 43.2983 63.5954 45.8985L64.2727 46.1828L68.4364 48.5489C72.2155 45.2046 77.2486 42.1111 82.3738 42.1947C83.634 42.2124 84.8806 42.4589 86.0527 42.9221L86.6296 43.1646L95.2496 48.1811L96.2111 47.9971C98.2209 47.6119 100.298 47.7883 102.214 48.507L102.891 48.7998L122.824 60.3043C126.603 62.1771 129.019 66.6334 129.019 73.113C129.019 85.4453 120.407 100.436 109.664 106.556L41.0212 146.22Z" fill="#A1BFEB"/>
<path fill-rule="evenodd" clip-rule="evenodd" d="M57.8602 45.8399C53.2116 45.8399 48.7636 47.9134 46.155 49.4602C33.3797 56.8679 22.5439 73.1297 19.7347 89.0237C19.6427 90.0688 19.4421 91.0469 19.3501 92.092C19.3245 92.3946 19.1839 92.6759 18.9572 92.878L18.1211 93.5468C10.53 99.8937 5.34006 108.648 3.41434 118.353C2.92941 121.204 2.05993 128.295 5.5464 132.818C6.22141 133.736 7.07443 134.51 8.05465 135.092L27.8865 146.563C31.1807 148.469 35.6287 148.001 40.4696 145.234L109.087 105.628C119.438 99.667 127.857 85.0941 127.857 73.1381C127.857 67.3942 125.825 63.1051 122.347 61.3493L101.83 49.5772C100.093 48.9451 98.2183 48.7948 96.4035 49.1424L95.5674 49.3181C95.3045 49.3788 95.0283 49.3338 94.7983 49.1927L85.6014 43.9839C84.5852 43.5783 83.5016 43.3684 82.4075 43.3652C76.8893 43.2565 71.8561 47.1192 69.2475 49.4184C69.0814 49.5775 68.8669 49.6762 68.638 49.699C68.4092 49.7217 68.1792 49.667 67.985 49.5437L63.2445 46.9269C61.568 46.1953 59.7561 45.8249 57.9269 45.8399H57.8602ZM32.4013 149.999C30.4361 150.023 28.5 149.524 26.7912 148.553L6.8591 137.032C5.61123 136.312 4.52414 135.345 3.66521 134.189C-0.306188 128.947 0.563339 121.087 1.15696 117.961C3.18051 107.716 8.64377 98.4715 16.6412 91.7577L17.126 91.3646C17.218 90.4366 17.4105 89.5671 17.5108 88.639C20.412 72.1264 31.7241 55.1957 44.9928 47.4954C48.9641 45.1376 56.8985 41.6428 64.1557 44.8533L64.833 45.1543L68.3196 47.1777C71.3211 44.6694 76.5465 41.0826 82.1566 41.0826H82.3489C83.7816 41.1049 85.1982 41.3882 86.5293 41.9187L87.1064 42.1779L95.4672 47.0272L96.0441 46.9269C98.2842 46.4987 100.599 46.6983 102.733 47.5037L103.41 47.8047L123.476 59.3677C127.732 61.4747 130.248 66.5079 130.248 73.1631C130.248 85.8465 121.344 101.297 110.316 107.627L41.5982 147.207C38.8277 148.922 35.6577 149.884 32.4013 149.999V149.999Z" fill="#3464C3"/>
<path fill-rule="evenodd" clip-rule="evenodd" d="M41.0218 146.22C30.3701 152.374 21.6665 147.366 21.6665 135.042C21.6665 123.847 28.8233 110.461 38.1122 103.48C39.8596 86.8332 51.4895 68.0715 65.5023 60.0033C74.6992 54.644 82.9264 55.2126 87.9512 60.4799C89.6364 58.918 91.4866 57.5443 93.4692 56.3831C101.989 51.492 109.146 53.6575 111.763 60.9314C121.436 56.5253 128.986 61.642 128.986 73.1632C128.986 85.4955 120.374 100.486 109.631 106.607L41.0218 146.22Z" fill="white"/>
<path fill-rule="evenodd" clip-rule="evenodd" d="M77.809 57.3861C73.6608 57.5313 69.624 58.7654 66.1038 60.9646C52.5509 68.7736 41.0212 87.1089 39.2905 103.605C39.2882 103.774 39.2426 103.94 39.1577 104.086C39.0727 104.233 38.9515 104.355 38.8058 104.441C29.7092 111.272 22.8448 124.457 22.8448 135.092C22.8448 140.635 24.6759 144.732 27.8613 146.63C31.2558 148.519 35.6035 148.051 40.4444 145.284L109.062 105.678C119.413 99.717 127.832 85.1441 127.832 73.1881C127.832 67.8623 126.16 63.8408 123.091 61.8593C120.282 60.0366 116.403 60.0867 112.222 61.993C111.911 62.1185 111.563 62.1185 111.252 61.993C111.113 61.9322 110.99 61.8415 110.89 61.7273C110.79 61.6131 110.717 61.4783 110.675 61.3325C109.605 58.3979 107.766 56.3662 105.249 55.4799C102.156 54.3345 98.1844 55.02 94.0291 57.4112C92.1133 58.5288 90.327 59.8551 88.7032 61.3659C88.5982 61.4645 88.4747 61.5414 88.3398 61.592C88.205 61.6425 88.0614 61.6657 87.9175 61.6602C87.7736 61.6548 87.6322 61.6208 87.5015 61.5602C87.3708 61.4997 87.2535 61.4137 87.1563 61.3074C85.9395 60.0552 84.4779 59.0667 82.8626 58.4036C81.2473 57.7405 79.5129 57.417 77.7671 57.4531L77.809 57.3861ZM32.418 149.999C30.4528 150.023 28.5166 149.524 26.8079 148.553C22.7445 146.228 20.5205 141.429 20.5205 135.042C20.5205 123.721 27.4851 110.277 37.0666 102.869C38.998 85.8464 50.9039 67.068 64.9417 58.9914C73.938 53.8244 82.4576 53.8077 88.0677 58.8995C89.5604 57.5683 91.1821 56.3892 92.9087 55.3796C97.6493 52.6456 102.298 51.9015 106.069 53.2727C107.481 53.811 108.767 54.6334 109.849 55.689C110.93 56.7445 111.784 58.0108 112.356 59.4095C116.904 57.6454 121.168 57.8125 124.362 59.8944C128.133 62.3107 130.165 67.0179 130.165 73.138C130.165 85.8214 121.26 101.272 110.232 107.601L41.5981 147.207C38.8276 148.922 35.6576 149.884 32.4012 149.999H32.418Z" fill="#3464C3"/>
<path fill-rule="evenodd" clip-rule="evenodd" d="M38.1119 104.617C37.909 104.615 37.71 104.561 37.535 104.458L17.5944 92.9617C17.3535 92.7924 17.1821 92.5418 17.1114 92.256C17.0407 91.9703 17.0756 91.6686 17.2098 91.4066C17.3602 91.1469 17.6073 90.9571 17.8971 90.8788C18.1868 90.8005 18.4958 90.84 18.7566 90.9885L38.6971 102.493C38.9651 102.635 39.1662 102.877 39.257 103.167C39.3478 103.456 39.3209 103.77 39.1821 104.04C39.0588 104.21 38.8984 104.351 38.713 104.451C38.5277 104.551 38.3222 104.607 38.1119 104.617Z" fill="#3464C3"/>
<path fill-rule="evenodd" clip-rule="evenodd" d="M88.2433 61.0902C88.0428 61.087 87.8456 61.0383 87.6665 60.948L67.9181 49.5272C67.6488 49.3818 67.4478 49.1361 67.3586 48.8434C67.2694 48.5507 67.2993 48.2346 67.4417 47.9637C67.5135 47.8325 67.6112 47.7172 67.7291 47.6249C67.8469 47.5326 67.9824 47.4652 68.1271 47.4269C68.2718 47.3886 68.4228 47.38 68.5709 47.4019C68.7189 47.4237 68.8608 47.4756 68.9883 47.5541L88.7283 58.9665C88.999 59.1105 89.2019 59.3555 89.2927 59.6484C89.3835 59.9412 89.3551 60.2581 89.2133 60.53C89.117 60.702 88.976 60.8448 88.8053 60.9434C88.6346 61.042 88.4404 61.0927 88.2433 61.0902V61.0902Z" fill="#3464C3"/>
<path fill-rule="evenodd" clip-rule="evenodd" d="M106.537 55.8645C106.364 55.8781 106.191 55.8275 106.052 55.7223L94.7318 49.1925C94.461 49.0486 94.2582 48.8035 94.1674 48.5107C94.0765 48.2178 94.1052 47.9009 94.247 47.6291C94.4017 47.3738 94.6499 47.189 94.9387 47.1141C95.2276 47.0391 95.5343 47.0799 95.7936 47.2278L107.114 53.7491C107.248 53.8179 107.368 53.9128 107.465 54.0282C107.562 54.1435 107.636 54.2771 107.681 54.421C107.726 54.565 107.742 54.7164 107.728 54.8666C107.714 55.0168 107.67 55.1627 107.599 55.2959C107.477 55.4648 107.318 55.6037 107.134 55.7022C106.95 55.8007 106.746 55.8561 106.537 55.8645V55.8645Z" fill="#3464C3"/>
</svg>
